<svg xmlns="http://www.w3.org/2000/svg" xmlns:xlink="http://www.w3.org/1999/xlink" width="1108" zoomAndPan="magnify" viewBox="0 0 830.88 299.999988" height="400" preserveAspectRatio="xMidYMid meet" version="1.0"><defs><clipPath id="3045fcc2e4"><path d="M 0 0.0234375 L 830.761719 0.0234375 L 830.761719 299.976562 L 0 299.976562 Z M 0 0.0234375 " clip-rule="nonzero"/></clipPath><clipPath id="b0e0ebc30a"><path d="M 0 0.0234375 L 829.878906 0.0234375 L 829.878906 299.976562 L 0 299.976562 Z M 0 0.0234375 " clip-rule="nonzero"/></clipPath><clipPath id="e74ead08cf"><rect x="0" width="831" y="0" height="300"/></clipPath></defs><g clip-path="url(#3045fcc2e4)"><g transform="matrix(1, 0, 0, 1, 0, -0.000000000000042844)"><g clip-path="url(#e74ead08cf)"><g clip-path="url(#b0e0ebc30a)"><path fill="#ffffff" d="M 829.972656 65.785156 C 807.824219 58.230469 784.988281 52.734375 761.8125 48.957031 C 751.335938 47.242188 740.863281 46.039062 730.21875 45.007812 C 734.855469 34.019531 740.007812 23.375 745.328125 12.730469 C 746.703125 9.8125 748.246094 7.0625 749.792969 4.144531 C 749.964844 3.972656 749.792969 3.628906 749.621094 3.457031 C 742.925781 2.429688 736.398438 1.226562 729.703125 0.195312 C 729.53125 0.195312 729.359375 0.195312 729.1875 0.367188 C 726.613281 6.207031 724.210938 11.871094 721.632812 17.707031 C 717.171875 26.121094 713.050781 34.707031 709.101562 43.464844 C 703.605469 43.121094 697.941406 42.949219 692.445312 42.777344 C 668.410156 42.261719 644.371094 43.292969 620.507812 45.351562 C 596.296875 47.414062 572.261719 50.675781 548.394531 54.453125 C 536.375 56.339844 524.355469 58.402344 512.339844 60.632812 C 500.492188 62.863281 488.472656 64.925781 476.796875 67.671875 C 473.878906 68.359375 470.960938 69.21875 468.039062 69.90625 C 467.871094 69.90625 467.699219 70.074219 467.699219 70.246094 C 467.527344 70.246094 467.527344 70.246094 467.355469 70.246094 C 467.183594 70.246094 467.011719 70.417969 467.011719 70.589844 C 467.011719 77.800781 467.183594 85.011719 467.183594 92.226562 C 467.183594 92.566406 467.527344 92.738281 467.699219 92.566406 C 513.367188 83.8125 559.382812 77.457031 605.570312 73.339844 C 636.300781 70.761719 667.207031 69.21875 698.113281 69.5625 C 694.679688 78.488281 691.585938 87.589844 689.011719 96.859375 C 684.203125 112.828125 680.425781 129.140625 677.851562 145.792969 C 676.820312 152.832031 675.964844 159.871094 675.277344 167.082031 C 668.410156 170.347656 661.371094 173.609375 654.671875 177.214844 C 646.777344 181.335938 639.050781 185.796875 631.496094 190.777344 C 627.546875 193.523438 623.597656 196.445312 619.820312 199.535156 C 618.960938 199.019531 618.101562 198.503906 617.242188 197.988281 C 611.40625 194.554688 606.082031 190.261719 601.964844 184.941406 C 598.015625 179.789062 595.4375 173.609375 595.265625 167.253906 C 595.09375 157.296875 600.761719 147.855469 610.203125 144.421875 C 613.808594 143.046875 617.929688 142.875 621.363281 144.421875 C 625.3125 146.308594 627.890625 150.257812 629.261719 154.550781 C 630.464844 158.84375 630.464844 163.132812 630.464844 167.597656 C 634.242188 166.570312 638.191406 166.054688 642.140625 165.710938 C 642.65625 156.78125 642.140625 147.511719 638.191406 139.613281 C 634.757812 132.746094 628.0625 126.734375 620.164062 125.875 C 611.40625 124.847656 601.449219 127.421875 593.894531 131.886719 C 583.933594 137.722656 576.378906 147.855469 574.320312 159.359375 C 573.289062 165.367188 573.632812 171.546875 575.523438 177.386719 C 576.722656 181.335938 578.613281 184.769531 581.1875 188.03125 C 583.589844 191.636719 586.511719 194.898438 589.601562 197.988281 C 594.921875 203.140625 601.105469 207.261719 607.285156 211.382812 C 603.335938 215.5 599.902344 219.964844 596.640625 224.773438 C 593.035156 230.097656 589.945312 236.277344 589.085938 242.800781 C 587.882812 247.953125 587.882812 253.445312 589.773438 258.941406 C 592.347656 266.324219 598.359375 272.503906 605.742188 275.421875 C 612.78125 278.171875 621.191406 278 628.574219 276.796875 C 635.445312 275.59375 642.140625 272.503906 647.289062 267.695312 C 652.097656 263.234375 655.703125 257.394531 657.421875 251.042969 C 659.308594 244.519531 658.277344 237.992188 655.875 231.8125 C 652.269531 222.027344 644.371094 214.644531 635.785156 208.976562 C 634.929688 208.289062 633.898438 207.773438 632.867188 207.089844 C 635.957031 204.511719 639.050781 201.9375 642.3125 199.707031 C 652.269531 192.496094 662.914062 186.65625 674.246094 182.191406 C 674.074219 186.65625 673.902344 191.121094 673.902344 195.585938 C 673.902344 216.53125 675.449219 237.820312 683.003906 257.566406 C 684.375 261.171875 685.921875 264.605469 688.152344 267.695312 C 690.386719 270.789062 693.648438 273.191406 697.253906 274.222656 C 708.070312 276.96875 717.855469 268.039062 725.238281 261.6875 C 739.320312 249.496094 752.023438 235.761719 763.699219 221.339844 C 769.023438 214.644531 774.859375 208.460938 780.355469 201.765625 C 789.96875 190.261719 799.414062 178.585938 808.511719 166.742188 C 803.53125 162.449219 797.523438 159.1875 791.34375 156.953125 C 790.3125 156.609375 787.738281 161.761719 787.222656 162.449219 C 785.160156 165.539062 782.585938 168.285156 780.355469 171.203125 C 775.71875 177.042969 770.910156 182.878906 766.273438 188.71875 C 757.347656 199.707031 748.074219 210.351562 738.804688 220.996094 C 730.390625 230.78125 722.148438 240.226562 712.191406 248.640625 C 710.300781 250.011719 708.242188 251.558594 706.011719 251.214844 C 703.089844 250.699219 701.546875 247.78125 700.34375 245.035156 C 694.851562 231.46875 693.648438 218.078125 693.476562 203.65625 C 693.132812 188.890625 694.507812 173.953125 696.566406 159.355469 C 700.171875 133.773438 706.523438 108.707031 714.765625 84.15625 C 716.3125 79.347656 718.027344 74.710938 719.746094 70.074219 C 727.816406 70.417969 735.886719 70.761719 743.953125 71.449219 C 769.195312 73.339844 795.292969 75.570312 819.5 83.640625 C 819.671875 83.640625 819.84375 83.640625 820.015625 83.46875 C 824.136719 77.972656 827.398438 72.136719 829.972656 65.785156 C 830.316406 66.125 830.144531 65.957031 829.972656 65.785156 Z M 634.242188 232.328125 C 636.128906 234.558594 637.847656 237.136719 638.707031 239.882812 C 639.5625 242.628906 639.734375 245.71875 639.050781 248.640625 C 637.847656 253.960938 634.070312 258.425781 629.089844 260.65625 C 623.941406 262.890625 617.414062 262.546875 613.125 258.769531 C 609.347656 255.335938 607.800781 250.183594 607.800781 245.203125 C 607.800781 240.570312 609.175781 236.105469 610.890625 231.984375 C 611.921875 230.265625 612.953125 228.722656 613.980469 227.175781 C 615.699219 224.773438 617.585938 222.371094 619.476562 220.136719 C 619.476562 220.136719 619.648438 220.308594 619.648438 220.308594 C 622.222656 222.199219 624.796875 224.085938 627.375 226.148438 C 629.949219 228.207031 632.351562 230.097656 634.242188 232.328125 Z M 550.28125 262.890625 C 543.414062 251.730469 541.183594 238.507812 541.355469 225.632812 C 541.527344 211.894531 543.585938 197.300781 547.535156 184.253906 C 548.394531 181.335938 549.425781 178.585938 550.453125 175.667969 C 552 170.347656 553.886719 165.195312 556.292969 160.386719 C 556.980469 159.015625 557.664062 157.640625 558.351562 156.4375 C 555.261719 154.894531 552.171875 153.519531 549.253906 151.972656 C 546.847656 150.773438 544.273438 149.742188 542.042969 148.367188 C 542.042969 148.367188 541.871094 148.539062 541.871094 148.539062 C 541.355469 149.054688 541.011719 149.742188 540.839844 150.429688 C 540.324219 151.460938 539.980469 152.316406 539.636719 153.347656 C 538.949219 155.066406 538.09375 156.953125 537.40625 158.671875 C 537.0625 159.527344 536.71875 160.386719 536.375 161.074219 C 535.171875 163.648438 533.972656 166.054688 532.769531 168.628906 C 526.933594 164.335938 520.066406 161.417969 512.851562 160.042969 C 504.785156 158.5 496.371094 158.84375 488.472656 160.902344 C 468.726562 166.398438 451.558594 182.878906 443.488281 201.9375 C 438.164062 206.574219 432.84375 211.210938 427.347656 215.5 C 421.683594 220.136719 415.84375 224.601562 409.664062 228.722656 C 395.757812 237.820312 365.882812 253.445312 353.003906 234.902344 C 350.257812 230.953125 349.398438 225.804688 349.742188 220.824219 C 350.429688 211.550781 354.035156 201.9375 359.53125 194.382812 C 366.054688 185.625 374.808594 177.214844 385.800781 175.324219 C 387.6875 174.980469 389.746094 174.808594 391.636719 175.667969 C 394.039062 176.699219 395.585938 179.617188 395.757812 182.363281 C 396.101562 188.71875 390.777344 194.726562 387.6875 199.707031 C 391.292969 201.25 395.242188 202.28125 399.191406 202.96875 C 405.199219 196.273438 411.726562 187.515625 411.898438 178.070312 C 412.066406 170.003906 408.121094 162.105469 400.566406 158.671875 C 393.867188 155.75 386.140625 156.4375 379.101562 158.15625 C 360.214844 162.792969 343.90625 176.011719 335.320312 193.523438 C 331.027344 202.453125 328.796875 212.582031 329.140625 222.542969 C 329.484375 232.328125 332.574219 242.285156 338.238281 250.183594 C 340.988281 253.960938 344.25 257.394531 348.199219 259.972656 C 352.316406 262.546875 357.640625 263.0625 362.621094 263.0625 C 373.09375 263.40625 383.566406 260.828125 393.183594 256.363281 C 403.65625 251.558594 412.925781 244.691406 421.511719 237.136719 C 427.175781 232.15625 433.015625 227.691406 438.851562 222.882812 C 438.679688 227.175781 439.023438 231.46875 439.882812 235.589844 C 441.429688 243.660156 445.378906 253.960938 452.761719 258.425781 C 456.878906 261.34375 462.203125 262.03125 467.011719 261.171875 C 470.617188 260.65625 473.878906 259.457031 477.140625 257.910156 C 480.058594 256.707031 482.804688 255.335938 485.554688 253.789062 C 491.046875 250.871094 496.199219 247.265625 501.007812 243.488281 C 505.8125 239.539062 510.277344 235.417969 514.398438 230.609375 C 515.429688 229.410156 516.628906 228.035156 517.660156 226.660156 C 517.316406 234.214844 517.832031 241.769531 519.207031 249.324219 C 521.09375 259.113281 524.527344 268.726562 529.851562 277.140625 C 534.832031 285.210938 541.355469 292.421875 549.082031 297.914062 C 550.109375 298.601562 550.96875 299.289062 552 299.804688 C 552.171875 299.804688 552.34375 299.804688 552.515625 299.804688 C 558.007812 293.453125 562.988281 286.582031 567.453125 279.542969 C 560.242188 275.59375 554.402344 269.929688 550.28125 262.890625 Z M 524.699219 188.03125 C 520.578125 193.179688 516.460938 198.332031 512.167969 203.3125 C 507.703125 208.460938 503.238281 213.785156 498.601562 218.765625 C 491.90625 225.804688 485.039062 233.015625 475.9375 236.621094 C 475.59375 236.792969 475.082031 236.964844 474.738281 237.136719 C 471.816406 238.164062 468.554688 238.679688 465.636719 237.820312 C 461.34375 236.449219 458.769531 231.640625 458.425781 227.175781 C 457.566406 214.988281 466.839844 200.5625 475.59375 192.667969 C 488.816406 180.648438 506.328125 179.960938 522.46875 186.484375 C 523.328125 186.828125 524.183594 187.171875 524.871094 187.515625 C 524.871094 187.6875 524.699219 187.859375 524.699219 188.03125 Z M 310.769531 240.742188 C 305.617188 225.804688 304.414062 209.835938 305.101562 194.039062 C 305.101562 193.695312 305.101562 193.351562 305.101562 193.007812 C 305.960938 185.113281 307.335938 177.214844 309.050781 169.316406 C 310.597656 162.792969 312.3125 156.265625 314.203125 149.742188 C 315.230469 146.824219 316.089844 143.734375 316.949219 140.8125 C 317.292969 139.785156 317.636719 138.753906 317.980469 137.550781 C 317.980469 137.378906 318.152344 137.207031 318.152344 137.035156 C 324.847656 136.007812 331.542969 134.460938 338.066406 132.746094 C 347.855469 130.167969 357.46875 127.078125 366.914062 123.472656 C 385.628906 116.261719 403.484375 106.992188 420.308594 96 C 422.371094 94.628906 424.429688 93.253906 426.492188 91.882812 C 426.664062 91.710938 426.664062 91.539062 426.664062 91.367188 C 423.742188 85.183594 421.339844 79.003906 419.28125 72.480469 C 419.109375 72.136719 418.765625 72.136719 418.59375 72.308594 C 401.25 86.042969 382.023438 97.03125 361.417969 105.101562 C 351.289062 109.050781 340.816406 112.3125 330.167969 114.886719 C 327.59375 115.402344 325.019531 116.089844 322.445312 116.605469 C 323.472656 109.566406 324.160156 102.355469 324.332031 95.316406 C 324.675781 80.894531 322.617188 66.640625 315.917969 53.765625 C 310.082031 42.605469 301.324219 32.816406 290.679688 25.949219 C 279.003906 18.394531 264.582031 14.101562 250.503906 16.335938 C 238.65625 18.222656 227.324219 25.09375 221.144531 35.394531 C 219.425781 38.3125 218.226562 41.402344 217.367188 44.492188 C 216.507812 46.898438 215.992188 49.300781 215.648438 51.703125 C 214.277344 61.664062 216.507812 71.964844 219.769531 81.234375 C 225.949219 98.0625 237.28125 113.171875 252.046875 123.300781 C 265.785156 132.746094 282.265625 138.066406 298.921875 138.753906 C 296.519531 149.226562 293.425781 159.699219 289.476562 169.832031 C 284.5 160.730469 271.792969 158.328125 262.351562 158.5 C 251.707031 158.84375 241.402344 162.277344 232.304688 167.941406 C 223.890625 173.265625 216.507812 180.132812 208.265625 185.457031 C 198.996094 191.464844 189.378906 196.785156 179.25 200.90625 C 179.421875 196.273438 179.078125 191.636719 178.5625 187 C 176.847656 174.125 171.179688 161.417969 158.988281 155.410156 C 153.152344 152.660156 146.628906 151.460938 140.101562 151.804688 C 122.246094 152.660156 101.816406 165.882812 98.726562 184.425781 C 98.039062 189.0625 98.210938 193.695312 98.894531 198.332031 C 99.582031 202.796875 100.441406 207.261719 102.503906 211.382812 C 103.1875 212.753906 104.046875 214.128906 104.90625 215.328125 C 104.734375 215.84375 104.734375 216.359375 104.5625 216.875 C 103.1875 223.914062 102.84375 231.125 103.359375 238.335938 C 103.875 245.546875 105.421875 252.585938 108.167969 259.285156 C 109.542969 262.546875 111.085938 265.808594 113.320312 268.554688 C 115.378906 270.960938 117.78125 273.019531 120.703125 274.566406 C 126.195312 277.3125 132.71875 278.171875 138.730469 276.96875 C 145.082031 275.765625 150.921875 272.503906 155.726562 268.210938 C 160.878906 263.578125 164.65625 257.910156 167.746094 251.730469 C 171.007812 244.863281 173.070312 237.480469 174.957031 230.097656 C 175.816406 226.832031 176.503906 223.570312 177.019531 220.136719 C 178.90625 219.277344 180.796875 218.421875 182.683594 217.390625 C 190.410156 213.441406 197.621094 208.804688 204.660156 203.65625 C 205.347656 203.140625 206.207031 202.625 206.894531 201.9375 C 206.722656 202.625 206.550781 203.140625 206.378906 203.828125 C 204.660156 210.179688 203.628906 216.875 203.800781 223.570312 C 203.800781 229.582031 204.488281 235.761719 206.722656 241.425781 C 208.265625 245.203125 210.328125 248.980469 213.074219 252.074219 C 214.960938 254.648438 217.367188 256.707031 220.628906 258.082031 C 224.921875 259.800781 229.554688 259.285156 233.847656 257.910156 C 238.140625 256.535156 242.261719 254.476562 246.210938 252.074219 C 253.421875 247.4375 260.117188 241.769531 266.128906 235.761719 C 272.136719 229.753906 277.460938 223.054688 282.4375 216.1875 C 284.5 213.269531 286.558594 210.179688 288.449219 207.089844 C 288.277344 216.1875 288.621094 225.289062 289.992188 234.214844 C 291.539062 244.863281 294.457031 255.507812 298.75 265.464844 C 300.808594 270.445312 303.386719 275.078125 306.304688 279.714844 C 308.878906 283.835938 311.96875 287.785156 316.089844 290.703125 C 317.121094 291.390625 318.152344 292.078125 319.351562 292.59375 C 319.523438 292.59375 319.695312 292.59375 319.867188 292.59375 C 324.503906 287.269531 329.140625 281.949219 333.945312 276.796875 C 334.117188 276.625 334.117188 276.28125 333.945312 276.109375 C 322.785156 266.496094 315.230469 253.960938 310.769531 240.742188 Z M 154.867188 237.480469 C 153.667969 242.113281 152.121094 246.921875 149.890625 251.214844 C 147.65625 255.335938 144.566406 259.628906 140.273438 262.03125 C 138.042969 263.234375 135.640625 263.746094 133.234375 262.890625 C 131.175781 262.03125 129.457031 260.3125 128.085938 258.597656 C 125.164062 254.476562 123.621094 249.667969 122.589844 244.863281 C 121.558594 239.710938 121.214844 234.558594 121.214844 229.410156 C 121.214844 228.550781 121.214844 227.863281 121.214844 227.003906 C 124.824219 228.207031 128.769531 229.066406 132.71875 229.410156 C 140.960938 230.097656 149.375 229.066406 157.273438 227.175781 C 156.585938 230.4375 155.726562 233.875 154.867188 237.480469 Z M 159.675781 203.3125 C 159.675781 204.683594 159.675781 205.886719 159.503906 207.261719 C 155.039062 208.289062 150.578125 208.804688 146.113281 208.460938 C 137.183594 207.777344 127.570312 202.625 125.335938 193.523438 C 124.136719 188.890625 124.992188 183.566406 127.914062 179.617188 C 130.316406 176.183594 134.09375 173.78125 138.214844 172.921875 C 142.507812 172.0625 146.800781 173.09375 150.40625 175.667969 C 154.183594 178.414062 156.585938 182.707031 157.960938 187 C 159.503906 192.324219 159.675781 197.816406 159.675781 203.3125 Z M 277.972656 193.179688 C 272.996094 201.765625 267.15625 209.835938 260.460938 217.21875 C 257.199219 220.824219 253.59375 224.257812 249.816406 227.519531 C 247.242188 229.753906 244.492188 231.984375 241.746094 233.875 C 238.828125 235.246094 235.394531 236.105469 232.304688 235.417969 C 229.042969 234.730469 226.808594 232.15625 225.609375 229.238281 C 224.40625 226.320312 224.0625 223.054688 224.234375 219.964844 C 224.234375 216.53125 224.75 213.269531 225.4375 210.007812 C 226.292969 206.058594 227.839844 202.109375 229.554688 198.332031 C 230.242188 197.300781 230.757812 196.101562 231.445312 195.070312 C 236.425781 187 243.636719 180.132812 252.734375 177.042969 C 260.804688 174.292969 270.078125 174.292969 277.804688 177.902344 C 280.035156 178.929688 282.09375 180.304688 283.984375 181.847656 C 282.09375 185.625 280.207031 189.402344 277.972656 193.179688 Z M 302.355469 118.835938 C 299.4375 119.007812 296.515625 118.835938 293.769531 118.664062 C 270.589844 116.949219 249.128906 103.726562 241.058594 81.40625 C 237.96875 72.824219 237.109375 63.035156 240.714844 54.453125 C 244.320312 45.867188 252.734375 39.34375 262.007812 39.6875 C 268.1875 40.027344 273.855469 43.292969 278.660156 47.242188 C 294.972656 60.632812 303.042969 80.722656 303.386719 101.496094 C 303.386719 107.332031 303.042969 113 302.355469 118.835938 Z M 126.023438 118.835938 C 138.214844 108.707031 147.65625 96 152.808594 80.894531 C 156.929688 68.875 157.617188 55.480469 154.011719 43.292969 C 154.011719 43.121094 153.839844 42.949219 153.839844 42.949219 C 150.75 32.816406 144.394531 23.71875 135.640625 17.539062 C 119.671875 6.378906 95.804688 7.40625 77.777344 11.355469 C 47.730469 17.707031 22.148438 34.707031 2.230469 57.886719 C 1.375 58.914062 0.515625 59.773438 0.34375 60.976562 C 0 62.351562 0.515625 63.722656 0.859375 64.925781 C 2.574219 69.734375 4.464844 74.539062 6.695312 79.175781 C 18.714844 67.15625 31.761719 56.339844 46.53125 48.097656 C 44.640625 70.761719 43.609375 93.597656 43.265625 116.261719 C 43.265625 121.757812 43.09375 127.25 43.265625 132.746094 C 38.804688 134.117188 34.511719 135.492188 29.875 136.523438 C 25.582031 137.550781 21.289062 138.582031 16.996094 139.613281 C 17.855469 146.136719 18.714844 152.660156 19.574219 159.355469 C 19.574219 159.699219 19.746094 159.871094 20.089844 159.871094 C 27.816406 158.15625 35.710938 156.4375 43.4375 154.722656 C 43.78125 167.253906 44.296875 179.789062 45.15625 192.496094 C 45.5 196.785156 45.671875 201.25 46.015625 205.542969 C 46.015625 205.714844 46.015625 206.058594 46.015625 206.230469 C 47.042969 223.914062 48.246094 241.425781 49.792969 259.113281 C 50.136719 263.40625 50.648438 267.523438 50.992188 271.816406 C 58.71875 272.160156 66.617188 271.472656 74.34375 269.757812 C 69.878906 236.277344 69.191406 202.625 67.476562 168.972656 C 67.132812 162.105469 66.960938 155.410156 66.789062 148.539062 C 76.746094 145.449219 86.363281 142.015625 95.804688 137.550781 C 106.792969 132.574219 116.925781 126.390625 126.023438 118.835938 Z M 66.960938 123.472656 C 66.960938 122.097656 66.960938 120.726562 66.960938 119.351562 C 67.304688 100.464844 68.335938 81.75 69.878906 63.035156 C 70.566406 54.453125 71.425781 46.039062 72.285156 37.453125 C 86.878906 33.332031 104.5625 32.132812 116.410156 41.917969 C 131.175781 54.109375 124.136719 76.601562 113.832031 89.304688 C 107.480469 97.03125 99.238281 103.214844 91.171875 109.050781 C 83.617188 114.546875 75.546875 119.351562 66.960938 123.472656 Z M 66.960938 123.472656 " fill-opacity="1" fill-rule="nonzero"/></g></g></g></g></svg>