<svg xmlns="http://www.w3.org/2000/svg" width="210" viewBox="0 0 157.5 68.25" height="91" version="1.0"><defs><clipPath id="a"><path d="M76.605 3.656h20.891V31.86h-20.89Zm0 0"/></clipPath><clipPath id="b"><path d="M76.684 4.605c0-.257.074-.472.214-.628.145-.157.352-.239.61-.239h18.695q.412 0 .637.246c.148.164.23.387.23.66v4.66a.93.93 0 0 1-.23.606c-.156.195-.371.29-.66.29H83.977v4.675h9.421c.239 0 .438.059.594.168.156.113.238.305.238.566v4.07a.76.76 0 0 1-.207.512q-.212.247-.601.247h-9.445v4.824H96.64c.562 0 .847.289.847.867v4.73a.5.5 0 0 1-.148.344c-.055.348-.313.527-.774.527H77.508q-.377.001-.602-.203c-.148-.132-.222-.332-.222-.613V12.293l3.472-2.324-3.472-2.063Zm0 0"/></clipPath><clipPath id="d"><path d="M.605.656h20.891V28.81H.606Zm0 0"/></clipPath><clipPath id="e"><path d="M.684 1.605c0-.257.074-.472.214-.628.145-.157.352-.239.61-.239h18.695q.412 0 .637.246c.148.164.23.387.23.66v4.66a.93.93 0 0 1-.23.606c-.156.195-.371.29-.66.29H7.977v4.675h9.421c.239 0 .438.059.594.168.156.113.238.305.238.566v4.07a.76.76 0 0 1-.207.512q-.212.247-.601.247H7.977v4.824H20.64q.845 0 .847.867v4.73a.5.5 0 0 1-.148.344c-.055.348-.313.527-.774.527H1.508q-.377.001-.602-.203c-.148-.132-.222-.332-.222-.613V9.293l3.472-2.324L.684 4.906Zm0 0"/></clipPath><clipPath id="c"><path d="M0 0h22v29H0z"/></clipPath><clipPath id="f"><path d="M100.633 3.656h24.808V31.86h-24.808Zm0 0"/></clipPath><clipPath id="g"><path d="M107.96 10.496v14.488h1.583q.433.002.844-.027.41-.036.832-.066a7.5 7.5 0 0 0 2.64-.692 7.2 7.2 0 0 0 2.137-1.508 6.8 6.8 0 0 0 1.43-2.195c.351-.836.52-1.758.52-2.75q-.002-1.584-.594-2.91a7.2 7.2 0 0 0-1.61-2.297 7.2 7.2 0 0 0-2.379-1.508 7.9 7.9 0 0 0-2.91-.535Zm17.243 7.277q-.001 1.995-.512 3.801a13.6 13.6 0 0 1-1.457 3.352 14.07 14.07 0 0 1-5.152 4.973 14.6 14.6 0 0 1-3.445 1.363q-1.846.48-3.828.48h-9.274c-.226 0-.43-.05-.597-.148-.172-.094-.27-.309-.27-.637V4.621a.95.95 0 0 1 .215-.637c.14-.164.363-.246.652-.246h9.29q1.98 0 3.812.492a14.46 14.46 0 0 1 6.336 3.559c.875.84 1.632 1.781 2.257 2.828a14 14 0 0 1 1.446 3.375c.34 1.207.52 2.469.52 3.79"/></clipPath><clipPath id="i"><path d="M.633.656h24.605V28.81H.633Zm0 0"/></clipPath><clipPath id="j"><path d="M7.96 7.496v14.488h1.583q.433.002.844-.027.41-.036.832-.066a7.5 7.5 0 0 0 2.64-.692 7.2 7.2 0 0 0 2.137-1.508 6.8 6.8 0 0 0 1.43-2.195c.351-.836.52-1.758.52-2.75q-.002-1.584-.594-2.91a7.2 7.2 0 0 0-1.61-2.297 7.2 7.2 0 0 0-2.379-1.508 7.9 7.9 0 0 0-2.91-.535Zm17.243 7.277q-.001 1.995-.512 3.801a13.6 13.6 0 0 1-1.457 3.352 14.07 14.07 0 0 1-5.152 4.973 14.6 14.6 0 0 1-3.445 1.363q-1.846.48-3.828.48H1.535c-.226 0-.43-.05-.597-.148-.172-.094-.27-.309-.27-.637V1.621A.95.95 0 0 1 .883.984c.14-.164.363-.246.652-.246h9.29q1.98 0 3.812.492a14.46 14.46 0 0 1 6.336 3.559c.875.84 1.632 1.781 2.257 2.828a14 14 0 0 1 1.446 3.375c.34 1.207.52 2.469.52 3.79"/></clipPath><clipPath id="h"><path d="M0 0h26v29H0z"/></clipPath><clipPath id="k"><path d="M128.313 3.656h24.027v28.465h-24.028Zm0 0"/></clipPath><clipPath id="l"><path d="M135.64 20.535c0 .926.126 1.719.387 2.367q.388.966 1.016 1.586c.414.414.91.703 1.469.899.554.191 1.14.281 1.742.281q.942 0 1.789-.332a4.2 4.2 0 0 0 1.469-.98c.414-.43.754-.973 1-1.61.246-.64.37-1.379.37-2.203V4.539c0-.23.075-.422.24-.586a.85.85 0 0 1 .628-.242h5.504c.289 0 .512.078.676.25a.8.8 0 0 1 .246.57v15.89c0 2.196-.328 4.044-.973 5.544q-.964 2.249-2.61 3.605a10 10 0 0 1-3.8 1.957 17 17 0 0 1-4.531.594c-1.582 0-3.102-.2-4.54-.605a10.2 10.2 0 0 1-3.808-1.996c-1.09-.922-1.965-2.13-2.61-3.622s-.972-3.316-.972-5.476V4.539q.002-.323.215-.57a.68.68 0 0 1 .535-.254h5.637q.281.002.594.238a.72.72 0 0 1 .312.594Zm0 0"/></clipPath><clipPath id="n"><path d="M.324.656h23.977v28.465H.324Zm0 0"/></clipPath><clipPath id="o"><path d="M7.64 17.535c0 .926.126 1.719.387 2.367q.388.966 1.016 1.586c.414.414.91.703 1.469.899.554.191 1.14.281 1.742.281q.942 0 1.789-.332a4.2 4.2 0 0 0 1.469-.98c.414-.43.754-.973 1-1.61.246-.64.37-1.379.37-2.203V1.539c0-.23.075-.422.24-.586a.85.85 0 0 1 .628-.242h5.504c.289 0 .512.078.676.25a.8.8 0 0 1 .246.57v15.89c0 2.196-.328 4.044-.973 5.544q-.964 2.249-2.61 3.605a10 10 0 0 1-3.8 1.957 17 17 0 0 1-4.531.594c-1.582 0-3.102-.2-4.54-.605a10.2 10.2 0 0 1-3.808-1.996c-1.09-.922-1.965-2.13-2.61-3.622s-.972-3.316-.972-5.476V1.539q.002-.323.215-.57a.68.68 0 0 1 .535-.254h5.637c.187 0 .386.082.593.238a.72.72 0 0 1 .313.594Zm0 0"/></clipPath><clipPath id="m"><path d="M0 0h25v30H0z"/></clipPath><clipPath id="p"><path d="M76.605 35h32.645v28.2H76.605Zm0 0"/></clipPath><clipPath id="q"><path d="M79.379 35.996q.031-.346.266-.586c.156-.164.363-.246.636-.246h6.524c.465 0 .761.238.902.719l5.129 17.11L98 35.882c.176-.473.496-.719.96-.719h6.45c.23 0 .43.082.613.238a.87.87 0 0 1 .313.594l.246 2.469c.05.55.11 1.105.164 1.656q.053.574.117 1.14c.266 2.641.543 5.274.817 7.895.46 4.352.906 8.739 1.351 13.16v.094q0 .737-.832.735h-5.336c-.578 0-.883-.274-.902-.829l-1.648-14.562-4.235 14.656c-.031.13-.121.278-.277.453-.153.18-.309.27-.457.27h-4.957c-.149 0-.313-.082-.48-.254-.173-.172-.262-.328-.278-.461l-4.234-14.621-1.649 14.52c-.02.554-.332.828-.918.828h-5.336q-.808.002-.808-.829Zm0 0"/></clipPath><clipPath id="s"><path d="M.605.133h32.493v28.066H.605Zm0 0"/></clipPath><clipPath id="t"><path d="M3.379.996Q3.41.651 3.645.41C3.8.246 4.008.164 4.28.164h6.524c.465 0 .761.238.902.719l5.129 17.11L22 .882c.176-.473.496-.719.96-.719h6.45c.23 0 .43.082.613.238a.87.87 0 0 1 .313.594l.246 2.469c.05.55.11 1.105.164 1.656q.053.574.117 1.14c.266 2.641.543 5.274.817 7.895.46 4.352.906 8.739 1.351 13.16v.094q0 .736-.832.735h-5.336c-.578 0-.883-.274-.902-.829l-1.648-14.562-4.235 14.656c-.031.13-.121.277-.277.453-.153.18-.309.27-.457.27h-4.957c-.149 0-.313-.082-.48-.254-.173-.172-.262-.328-.278-.461l-4.234-14.62-1.649 14.52c-.02.554-.332.828-.918.828H1.492q-.808.002-.808-.829Zm0 0"/></clipPath><clipPath id="r"><path d="M0 0h34v29H0z"/></clipPath><clipPath id="u"><path d="M114 35h7.523v28.2H114Zm0 0"/></clipPath><clipPath id="v"><path d="M114.09 35.996c0-.23.066-.426.207-.586q.21-.246.621-.246h5.543c.187 0 .387.074.602.23s.32.348.32.602v26.32q.002.83-.922.829h-5.543c-.547 0-.828-.274-.828-.829Zm0 0"/></clipPath><clipPath id="x"><path d="M.082.133h7.36v28.066H.081Zm0 0"/></clipPath><clipPath id="y"><path d="M.09.996C.09.766.156.57.297.41Q.507.164.918.164h5.543c.187 0 .387.074.601.23.215.157.32.348.32.602v26.32c0 .555-.304.829-.921.829H.918c-.547 0-.828-.274-.828-.829Zm0 0"/></clipPath><clipPath id="w"><path d="M0 0h8v29H0z"/></clipPath><clipPath id="z"><path d="M127.27 35h25.07v28.2h-25.07Zm0 0"/></clipPath><clipPath id="A"><path d="M127.523 35.996q-.002-.346.207-.586.214-.246.625-.246h6.157c.18 0 .355.043.55.133.192.09.348.238.489.453 1.594 2.574 3.183 5.11 4.746 7.61 1.566 2.5 3.16 5.038 4.773 7.613v-15.09a.9.9 0 0 1 .301-.528.8.8 0 0 1 .527-.183h5.372c.261 0 .484.074.66.215.18.14.27.347.27.61V62.41q.002.38-.231.559c-.156.117-.356.176-.625.176h-6.008a.62.62 0 0 1-.43-.168 3 3 0 0 1-.394-.454c-1.668-2.765-3.325-5.496-4.957-8.199-1.63-2.699-3.293-5.43-4.977-8.195v16.187c0 .274-.058.48-.191.621s-.348.208-.676.208h-5.348q-.434 0-.633-.235a.86.86 0 0 1-.199-.574Zm0 0"/></clipPath><clipPath id="C"><path d="M.375.133h24.926v28.066H.375Zm0 0"/></clipPath><clipPath id="D"><path d="M.523.996Q.522.651.73.41q.213-.246.625-.246h6.157c.18 0 .355.043.55.133.192.09.348.238.489.453 1.594 2.574 3.183 5.11 4.746 7.61 1.566 2.5 3.16 5.038 4.773 7.613V.883a.9.9 0 0 1 .301-.528.8.8 0 0 1 .527-.183h5.372c.261 0 .484.074.66.215.18.14.27.347.27.61V27.41q.002.38-.231.559c-.157.117-.356.176-.625.176h-6.008a.62.62 0 0 1-.43-.168 3 3 0 0 1-.394-.454c-1.668-2.765-3.325-5.496-4.957-8.199-1.63-2.699-3.293-5.43-4.977-8.195v16.187c0 .274-.058.48-.191.622-.133.14-.348.207-.676.207H1.363q-.433 0-.633-.235a.86.86 0 0 1-.199-.574Zm0 0"/></clipPath><clipPath id="B"><path d="M0 0h26v29H0z"/></clipPath><clipPath id="E"><path d="M4.266 14.887h29.511V57.19H4.266Zm0 0"/></clipPath><clipPath id="F"><path d="m30.023 15.668 3.493 6.289c.238.434.238.953-.012 1.375L14.313 56.375a1.39 1.39 0 0 1-1.204.688H5.711c-1.074 0-1.742-1.172-1.2-2.098l23.094-39.32a1.394 1.394 0 0 1 2.418.03"/></clipPath><clipPath id="H"><path d="M.266.887h29.511V43.19H.266Zm0 0"/></clipPath><clipPath id="I"><path d="m26.023 1.668 3.493 6.289c.238.434.238.953-.012 1.375L10.313 42.375a1.39 1.39 0 0 1-1.204.688H1.711c-1.074 0-1.742-1.172-1.2-2.098l23.094-39.32a1.394 1.394 0 0 1 2.418.03"/></clipPath><clipPath id="G"><path d="M0 0h30v44H0z"/></clipPath><clipPath id="J"><path d="M19.41 14.625h50.145v42.566H19.41Zm0 0"/></clipPath><clipPath id="K"><path d="m19.828 54.973 23.387-39.43c.531-.906 1.844-.906 2.379-.008l23.613 39.43a1.384 1.384 0 0 1-1.187 2.097h-8.493c-.492 0-.941-.257-1.195-.683L45.668 34.965a1.385 1.385 0 0 0-2.36-.047L29.43 56.434c-.254.39-.7.636-1.164.636h-7.243c-1.074 0-1.742-1.172-1.195-2.093"/></clipPath><clipPath id="M"><path d="M.41.625h50.145v42.566H.41Zm0 0"/></clipPath><clipPath id="N"><path d="m.828 40.973 23.387-39.43c.531-.906 1.844-.906 2.379-.008l23.613 39.43a1.384 1.384 0 0 1-1.187 2.097h-8.493c-.492 0-.941-.257-1.195-.683L26.668 20.965a1.385 1.385 0 0 0-2.36-.047L10.43 42.434c-.254.39-.7.636-1.164.636H2.023C.95 43.07.281 41.898.828 40.977"/></clipPath><clipPath id="L"><path d="M0 0h51v44H0z"/></clipPath><clipPath id="O"><path d="M33.777 10h7.051v7h-7.05Zm0 0"/></clipPath><clipPath id="P"><path d="M40.8 13.54a3.45 3.45 0 0 1-3.448 3.448 3.45 3.45 0 0 1-3.45-3.449 3.45 3.45 0 0 1 3.45-3.45 3.45 3.45 0 0 1 3.449 3.45"/></clipPath><clipPath id="R"><path d="M.844 0h6.984v7H.844Zm0 0"/></clipPath><clipPath id="S"><path d="M7.8 3.54a3.45 3.45 0 0 1-3.448 3.448A3.45 3.45 0 0 1 .902 3.54 3.45 3.45 0 0 1 4.352.09 3.45 3.45 0 0 1 7.8 3.54"/></clipPath><clipPath id="Q"><path d="M0 0h8v7H0z"/></clipPath></defs><g clip-path="url(#a)"><g clip-path="url(#b)"><g clip-path="url(#c)" transform="translate(76 3)"><g clip-path="url(#d)"><g clip-path="url(#e)"><path fill="#fff" d="M-110.65-18.015h226.8v98.28h-226.8z"/></g></g></g></g></g><g clip-path="url(#f)"><g clip-path="url(#g)"><g clip-path="url(#h)" transform="translate(100 3)"><g clip-path="url(#i)"><g clip-path="url(#j)"><path fill="#fff" d="M-134.65-18.015h226.8v98.28h-226.8z"/></g></g></g></g></g><g clip-path="url(#k)"><g clip-path="url(#l)"><g clip-path="url(#m)" transform="translate(128 3)"><g clip-path="url(#n)"><g clip-path="url(#o)"><path fill="#fff" d="M-162.65-18.015h226.8v98.28h-226.8z"/></g></g></g></g></g><g clip-path="url(#p)"><g clip-path="url(#q)"><g clip-path="url(#r)" transform="translate(76 35)"><g clip-path="url(#s)"><g clip-path="url(#t)"><path fill="#fff" d="M-110.65-50.015h226.8v98.28h-226.8z"/></g></g></g></g></g><g clip-path="url(#u)"><g clip-path="url(#v)"><g clip-path="url(#w)" transform="translate(114 35)"><g clip-path="url(#x)"><g clip-path="url(#y)"><path fill="#fff" d="M-148.65-50.015h226.8v98.28h-226.8z"/></g></g></g></g></g><g clip-path="url(#z)"><g clip-path="url(#A)"><g clip-path="url(#B)" transform="translate(127 35)"><g clip-path="url(#C)"><g clip-path="url(#D)"><path fill="#fff" d="M-161.65-50.015h226.8v98.28h-226.8z"/></g></g></g></g></g><g clip-path="url(#E)"><g clip-path="url(#F)"><g clip-path="url(#G)" transform="translate(4 14)"><g clip-path="url(#H)"><g clip-path="url(#I)"><path fill="#fff" d="M-38.65-29.015h226.8v98.28h-226.8z"/></g></g></g></g></g><g clip-path="url(#J)"><g clip-path="url(#K)"><g clip-path="url(#L)" transform="translate(19 14)"><g clip-path="url(#M)"><g clip-path="url(#N)"><path fill="#fff" d="M-53.65-29.015h226.8v98.28h-226.8z"/></g></g></g></g></g><g clip-path="url(#O)"><g clip-path="url(#P)"><g clip-path="url(#Q)" transform="translate(33 10)"><g clip-path="url(#R)"><g clip-path="url(#S)"><path fill="#fff" d="M-67.65-25.015h226.8v98.28h-226.8z"/></g></g></g></g></g></svg>