<svg xmlns="http://www.w3.org/2000/svg" viewBox="0 0 500 500"><g id="freepik--Plant--inject-2"><path d="M416.79,359.43c13.06,12.78,15.25,32.56,12.5,49.89-.07.39-.68.28-.68-.09,0-3.94.12-7.85.11-11.75-.07-.17-.13-.34-.21-.52-3.4-2.48-6.54-5.28-8.48-9.12-2.18-4.29-3-9.12-4.71-13.6-.15-.43.31-.31.61-.09,7.94,5.86,10.47,12.17,12.75,20.59a70.52,70.52,0,0,0-1.38-13.12c-1.72-8-5.11-15.92-10.86-21.85A.24.24,0,0,1,416.79,359.43Z" style="fill:#263238"></path><path d="M414.33,360.92c-2.24.07-3.65,3.66-5.4,4.71a1.68,1.68,0,0,1-2.48-.39c-1.74-2.42.64-5.41,2.88-7.08-1.6.66-2.93,1.82-4.65,2.14a1.62,1.62,0,0,1-2.1-1.26c-.76-3.3,3.38-4.77,6.22-4.84-1.38-.95-5.33-3.56-3.23-4.84s6.76,2.44,8.27,3.67c2.22,1.8,4.87,4.49,5,7.31C418.94,363.63,416.06,361.61,414.33,360.92Z" style="fill:#024ADF"></path><path d="M414.33,360.92c-2.24.07-3.65,3.66-5.4,4.71a1.68,1.68,0,0,1-2.48-.39c-1.74-2.42.64-5.41,2.88-7.08-1.6.66-2.93,1.82-4.65,2.14a1.62,1.62,0,0,1-2.1-1.26c-.76-3.3,3.38-4.77,6.22-4.84-1.38-.95-5.33-3.56-3.23-4.84s6.76,2.44,8.27,3.67c2.22,1.8,4.87,4.49,5,7.31C418.94,363.63,416.06,361.61,414.33,360.92Z" style="opacity:0.1"></path><path d="M415,361.47c-2.87-1.31-8.39.57-8.86-.51-.95-2.22,3.46-3.73,5.84-4-2.19-.59-6.39-1.54-6.26-3.65.16-2.58,6.44-.36,9.62,2.07,4,3.08,4,6,3.32,6.64C417.73,362.8,415.46,361.69,415,361.47Z" style="fill:#024ADF"></path><path d="M446.53,358.16c-13.54,12.28-16.48,32-14.39,49.38.06.39.67.31.69-.06.15-3.94.17-7.85.33-11.74l.23-.52c3.5-2.35,6.74-5,8.82-8.79,2.34-4.2,3.39-9,5.22-13.41.17-.43-.29-.32-.6-.11-8.16,5.55-10.93,11.76-13.53,20.09a71.28,71.28,0,0,1,1.88-13.06c2-7.92,5.72-15.71,11.68-21.42A.24.24,0,0,0,446.53,358.16Z" style="fill:#263238"></path><path d="M448.93,359.74c2.24.16,3.51,3.81,5.22,4.92a1.68,1.68,0,0,0,2.49-.3c1.83-2.35-.44-5.43-2.61-7.18,1.57.72,2.86,1.92,4.57,2.32a1.63,1.63,0,0,0,2.15-1.18c.88-3.27-3.2-4.9-6-5.07,1.42-.91,5.46-3.36,3.41-4.72s-6.84,2.18-8.4,3.35c-2.29,1.71-5,4.3-5.24,7.12C444.22,362.28,447.17,360.37,448.93,359.74Z" style="fill:#024ADF"></path><path d="M448.93,359.74c2.24.16,3.51,3.81,5.22,4.92a1.68,1.68,0,0,0,2.49-.3c1.83-2.35-.44-5.43-2.61-7.18,1.57.72,2.86,1.92,4.57,2.32a1.63,1.63,0,0,0,2.15-1.18c.88-3.27-3.2-4.9-6-5.07,1.42-.91,5.46-3.36,3.41-4.72s-6.84,2.18-8.4,3.35c-2.29,1.71-5,4.3-5.24,7.12C444.22,362.28,447.17,360.37,448.93,359.74Z" style="opacity:0.1"></path><path d="M448.26,360.27c2.92-1.19,8.36.89,8.87-.18,1-2.17-3.31-3.85-5.68-4.24,2.21-.51,6.44-1.29,6.4-3.41-.06-2.59-6.43-.61-9.7,1.71-4.12,2.92-4.21,5.88-3.57,6.5C445.46,361.5,447.77,360.47,448.26,360.27Z" style="fill:#024ADF"></path><path d="M432.69,390.59a134.09,134.09,0,0,1-4.2,19.42.49.49,0,0,1-.95-.19c.89-6,2.51-11.86,3.4-17.84a89.92,89.92,0,0,0,1-18.32c-.57-10.08-3.31-20.81-9.89-28.7-.14-.18.16-.45.31-.27,13.17,15.36,11.08,34.19,11.07,35.87,1.86-6.36,3.78-13.64,10.84-20.12.3-.28.54-.14.49.33-1.26,11.79-4.54,18-11.38,24.25Q433.14,387.83,432.69,390.59Z" style="fill:#263238"></path><path d="M422,346.73c-2.37-1.05-5.64,2-8,2.17a2,2,0,0,1-2.38-1.65c-.58-3.39,3.4-5.29,6.56-5.9-2-.12-3.95.41-5.91-.11a1.88,1.88,0,0,1-1.55-2.37c.88-3.81,5.91-3.25,8.9-1.89-.95-1.69-3.74-6.37-.92-6.65s5.79,5.93,6.74,8c1.4,3,2.79,7.11,1.47,10.09C425.38,351.87,423.42,348.32,422,346.73Z" style="fill:#024ADF"></path><path d="M422,346.73c-2.37-1.05-5.64,2-8,2.17a2,2,0,0,1-2.38-1.65c-.58-3.39,3.4-5.29,6.56-5.9-2-.12-3.95.41-5.91-.11a1.88,1.88,0,0,1-1.55-2.37c.88-3.81,5.91-3.25,8.9-1.89-.95-1.69-3.74-6.37-.92-6.65s5.79,5.93,6.74,8c1.4,3,2.79,7.11,1.47,10.09C425.38,351.87,423.42,348.32,422,346.73Z" style="opacity:0.1"></path><path d="M422.37,347.63c-2.32-2.8-9-3.63-8.94-5,.13-2.77,5.47-2.13,8.09-1.24-2-1.72-5.86-4.81-4.66-6.94,1.46-2.6,6.87,2.87,8.94,7,2.61,5.2,1.09,8.27.1,8.55C424.55,350.4,422.75,348.1,422.37,347.63Z" style="fill:#024ADF"></path><path d="M441.35,394.14l5.81,44.39H411.81c.73-3.94,7.31-44.44,7.31-44.44Z" style="fill:#024ADF"></path></g></svg>