<?xml version="1.0" encoding="utf-8"?>
<svg xmlns="http://www.w3.org/2000/svg" viewBox="0 0 500 500">
  <g id="freepik--Screen--inject-2">
    <rect x="84.51" y="51.33" width="331.72" height="231.78" style="fill:#dbdbdb"/>
    <rect x="84.51" y="51.15" width="331.72" height="9.14" style="fill:#455a64"/>
    <path d="M92.43,55.72a2,2,0,1,1-2-2A2,2,0,0,1,92.43,55.72Z" style="fill:#c7c7c7"/>
    <path d="M100.54,55.72a2,2,0,1,1-2-2A2,2,0,0,1,100.54,55.72Z" style="fill:#fff"/>
    <path d="M108.66,55.72a2,2,0,1,1-2-2A2,2,0,0,1,108.66,55.72Z" style="fill:#024ADF"/>
    <rect x="113.92" y="82.93" width="272.9" height="179.46" style="fill:#fff"/>
    <path d="M368.43,253.11H132.31v-.4a9,9,0,0,0-9-9H123V101.48h.25a9,9,0,0,0,9-9v-.25H368.43v.25a9,9,0,0,0,9,9h.25V243.69h-.25a9,9,0,0,0-9,9Zm-235.62-.5H367.93a9.52,9.52,0,0,1,9.27-9.41V102a9.54,9.54,0,0,1-9.27-9.27H132.81a9.54,9.54,0,0,1-9.27,9.27V243.2A9.52,9.52,0,0,1,132.81,252.61Z" style="fill:#024ADF"/>
    <path d="M177.76,121.31a7.05,7.05,0,0,1,7.06-6.93,7.25,7.25,0,0,1,4.45,1.5,1.15,1.15,0,0,1,.19,1.54,1.13,1.13,0,0,1-1.54.21,4.83,4.83,0,0,0-3.1-1.06,5.1,5.1,0,0,0-3.47,1.39,4.76,4.76,0,0,0-1.4,3.35,4.68,4.68,0,0,0,1.4,3.34,5.1,5.1,0,0,0,3.47,1.39,4.81,4.81,0,0,0,3.1-1.06,1.17,1.17,0,0,1,1.54.21,1.14,1.14,0,0,1-.19,1.54,7.19,7.19,0,0,1-4.45,1.5A7,7,0,0,1,177.76,121.31Z" style="fill:#024ADF"/>
    <path d="M193.19,127.18V115.82a1,1,0,0,1,1.06-1.06h6.3a1.06,1.06,0,0,1,1,1.06,1.08,1.08,0,0,1-1,1.08h-5.22v3.52h4.48a1.07,1.07,0,0,1,0,2.14h-4.48v3.54h5.22a1.07,1.07,0,0,1,0,2.13h-6.3A1.05,1.05,0,0,1,193.19,127.18Z" style="fill:#024ADF"/>
    <path d="M213.9,126.64a1.05,1.05,0,0,1-.67,1.34,1.66,1.66,0,0,1-.43.06h0a1.39,1.39,0,0,1-.75-.21,1.74,1.74,0,0,1-.62-.67,5.18,5.18,0,0,1-.4-2.31,1.57,1.57,0,0,0-.24-.83,1.8,1.8,0,0,0-.57-.56,3.78,3.78,0,0,0-1.08-.46h-2.27v4.18a1.07,1.07,0,0,1-1.08,1,1.05,1.05,0,0,1-1.06-1V115.82a1,1,0,0,1,1.06-1.06h3.44a4.11,4.11,0,0,1,4.12,4.14,4.06,4.06,0,0,1-1.5,3.16,3.08,3.08,0,0,1,.68.71,3.68,3.68,0,0,1,.63,2.08,4.65,4.65,0,0,0,.08,1.13A1,1,0,0,1,213.9,126.64Zm-2.69-7.74a2,2,0,0,0-2-2h-2.36v4h2.36A2,2,0,0,0,211.21,118.9Z" style="fill:#024ADF"/>
    <path d="M224.87,116.9h-3.06v10.28a1,1,0,0,1-1.05,1,1.05,1.05,0,0,1-1.06-1V116.9h-3a1.07,1.07,0,0,1-1.06-1.08,1,1,0,0,1,1.06-1.06h8.21a1.05,1.05,0,0,1,1.06,1.06A1.08,1.08,0,0,1,224.87,116.9Z" style="fill:#024ADF"/>
    <path d="M229.24,115.82a1,1,0,0,1,1.06-1.06,1.07,1.07,0,0,1,1.08,1.06v11.36a1.07,1.07,0,0,1-1.08,1,1,1,0,0,1-1.06-1Z" style="fill:#024ADF"/>
    <path d="M235,127.18V115.82a1.05,1.05,0,0,1,1.06-1.06h6.29a1.07,1.07,0,0,1,0,2.14h-5.21v3.52h4.48a1.07,1.07,0,0,1,0,2.14h-4.48v4.62a1.08,1.08,0,0,1-1.08,1A1.05,1.05,0,0,1,235,127.18Z" style="fill:#024ADF"/>
    <path d="M246.76,115.82a1,1,0,0,1,1.06-1.06,1.08,1.08,0,0,1,1.08,1.06v11.36a1.08,1.08,0,0,1-1.08,1,1,1,0,0,1-1.06-1Z" style="fill:#024ADF"/>
    <path d="M251.9,121.31a7.06,7.06,0,0,1,7.06-6.93,7.23,7.23,0,0,1,4.45,1.5,1.14,1.14,0,0,1,.19,1.54,1.12,1.12,0,0,1-1.54.21,4.83,4.83,0,0,0-3.1-1.06A5.06,5.06,0,0,0,255.5,118a4.73,4.73,0,0,0-1.41,3.35,4.65,4.65,0,0,0,1.41,3.34A5.06,5.06,0,0,0,259,126a4.81,4.81,0,0,0,3.1-1.06,1.17,1.17,0,0,1,1.54.21,1.13,1.13,0,0,1-.19,1.54,7.17,7.17,0,0,1-4.45,1.5A7,7,0,0,1,251.9,121.31Z" style="fill:#024ADF"/>
    <path d="M273.92,125.06h-4.68l-.94,2.5a1.09,1.09,0,0,1-1,.67,1,1,0,0,1-1-1.44l4.26-11.34a1.08,1.08,0,0,1,1-.67,1.06,1.06,0,0,1,1,.67l4.25,11.34a1.1,1.1,0,0,1-.63,1.39,1.11,1.11,0,0,1-1.35-.62Zm-.79-2.12-1.56-4.14L270,122.94Z" style="fill:#024ADF"/>
    <path d="M285.79,116.9h-3.06v10.28a1.06,1.06,0,0,1-2.11,0V116.9h-3.05a1.08,1.08,0,0,1-1.06-1.08,1,1,0,0,1,1.06-1.06h8.22a1.05,1.05,0,0,1,1.06,1.06A1.08,1.08,0,0,1,285.79,116.9Z" style="fill:#024ADF"/>
    <path d="M290.16,115.82a1,1,0,0,1,1.06-1.06,1.07,1.07,0,0,1,1.08,1.06v11.36a1.07,1.07,0,0,1-1.08,1,1,1,0,0,1-1.06-1Z" style="fill:#024ADF"/>
    <path d="M306.52,116.44a7.06,7.06,0,0,1,0,9.74,6.29,6.29,0,0,1-4.6,2,6.49,6.49,0,0,1-4.71-2,7.16,7.16,0,0,1,0-9.74,6.42,6.42,0,0,1,4.71-2.06A6.23,6.23,0,0,1,306.52,116.44Zm-.25,4.87a5,5,0,0,0-1.31-3.37,4.14,4.14,0,0,0-6.15,0,4.88,4.88,0,0,0-1.31,3.37,4.79,4.79,0,0,0,1.31,3.34,4.1,4.1,0,0,0,6.15,0A4.88,4.88,0,0,0,306.27,121.31Z" style="fill:#024ADF"/>
    <path d="M313.88,127.18a1.05,1.05,0,1,1-2.1,0V116a1,1,0,0,1,.42-.88,1.06,1.06,0,0,1,1.46.23l6.22,8.6V116a1.05,1.05,0,0,1,1-1,1.07,1.07,0,0,1,1.06,1v11.19a1.07,1.07,0,0,1-1.06,1,1,1,0,0,1-.79-.38.31.31,0,0,1-.09-.12l-6.16-8.54Z" style="fill:#024ADF"/>
    <path d="M214.18,142.82q9.06-.13,18.1-.19l18.09,0,18.1,0q9,.06,18.09.19-9,.15-18.09.2l-18.1,0-18.09,0Q223.24,143,214.18,142.82Z" style="fill:#263238"/>
    <polygon points="194.07 148.46 208.14 148.33 222.22 148.29 250.37 148.21 278.52 148.29 292.6 148.33 306.68 148.46 292.6 148.58 278.52 148.62 250.37 148.71 222.22 148.62 208.14 148.58 194.07 148.46" style="fill:#263238"/>
    <g transform="matrix(1, 0, 0, 1, -20, 0)">
      <path d="M275.37,217.84q9.18-.14,18.35-.19l18.35-.06,18.35.06q9.18,0,18.35.19-9.16.14-18.35.19l-18.35.06L293.72,218Q284.54,218,275.37,217.84Z" style="fill:#263238"/>
      <path d="M288.54,214.1q1.84-1.28,3.8-2.4a18.34,18.34,0,0,1,4.11-1.85,5.54,5.54,0,0,1,.56-.11.61.61,0,0,1,.63.21,2.15,2.15,0,0,1,.26,1.17,14.07,14.07,0,0,1-.23,2.25c-.26,1.48-.63,2.94-1,4.38a67.32,67.32,0,0,1-3,8.49,12.56,12.56,0,0,1-1.06,2,2.94,2.94,0,0,1-.41.47.59.59,0,0,1-.39.17.46.46,0,0,1-.27-.09l-.13-.14a2.19,2.19,0,0,1-.32-1.2,14.89,14.89,0,0,1,.79-4.47,25.68,25.68,0,0,1,1.69-4.19,12.67,12.67,0,0,1,2.63-3.67,4.17,4.17,0,0,1,2.07-1,2.5,2.5,0,0,1,1.18.1,1.8,1.8,0,0,1,.82.84,5.09,5.09,0,0,0,.62.9.91.91,0,0,0,.91.3,5.91,5.91,0,0,0,1.88-1.1c.3-.22.59-.46.9-.67a4.14,4.14,0,0,1,.5-.3.57.57,0,0,1,.62,0c.29.37.22.76.36,1.09a.67.67,0,0,0,.77.49,7,7,0,0,0,1.65-1.44c.5-.54,1-1.11,1.49-1.67,1-1.13,1.94-2.28,2.94-3.39.5-.56,1-1.11,1.55-1.64a8.8,8.8,0,0,1,.86-.74,2.85,2.85,0,0,1,.51-.3.8.8,0,0,1,.33-.08.41.41,0,0,1,.34.19,2,2,0,0,1,.16,1.19,10.06,10.06,0,0,1-.18,1.12,22.6,22.6,0,0,1-.6,2.18,22.12,22.12,0,0,1-1.79,4.16,4.74,4.74,0,0,1-.71.94.82.82,0,0,1-.66.26,1.79,1.79,0,0,1-.6-.17,2.78,2.78,0,0,1-1.51-1.83,1,1,0,0,1,.09-.7.71.71,0,0,1,.29-.28.69.69,0,0,1,.38-.08,4,4,0,0,1,1.16.27c.72.25,1.41.56,2.1.86s1.37.6,2.05.88c.35.13.69.27,1,.37a3.38,3.38,0,0,0,.49.11.77.77,0,0,0,.41-.09c.57-.28.94-1,1.51-1.53a1.78,1.78,0,0,1,1.14-.59.58.58,0,0,1,.46.15.59.59,0,0,1,.16.46,3.33,3.33,0,0,1-.11.61c-.11.33-.15.76-.05.78s.54,0,.85-.05a5.72,5.72,0,0,0,1.89-1c.3-.21.61-.44.95-.64a1.86,1.86,0,0,1,1.25-.3,4.66,4.66,0,0,1,1.92,1.39,4.53,4.53,0,0,0,.8.69c.13.09.26.11.29.08a3.07,3.07,0,0,0,.43-.26,18.57,18.57,0,0,0,1.68-1.42,19,19,0,0,0,2.9-3.33,3.83,3.83,0,0,0,.72-1.94c0-.67-.69-1-1.41-1.09a12.17,12.17,0,0,0-4.38.06,11.69,11.69,0,0,0-2.12.6,4.81,4.81,0,0,0-1,.52c-.27.2-.52.49-.44.76a1.34,1.34,0,0,0,.71.65,10.52,10.52,0,0,0,1,.41c.7.24,1.41.46,2.13.63a49.09,49.09,0,0,0,8.91.85v.05a47.14,47.14,0,0,1-8.95-.65,20.74,20.74,0,0,1-2.18-.61c-.35-.13-.71-.24-1.06-.41a1.6,1.6,0,0,1-.88-.84,1.1,1.1,0,0,1,.54-1.1,4.28,4.28,0,0,1,1-.57,10.32,10.32,0,0,1,2.18-.65,12.58,12.58,0,0,1,4.54-.13,3.11,3.11,0,0,1,1.13.39,1.36,1.36,0,0,1,.65,1.1,4.07,4.07,0,0,1-.77,2.23,18.43,18.43,0,0,1-2.95,3.45,16.47,16.47,0,0,1-1.74,1.47,3.23,3.23,0,0,1-.53.32.85.85,0,0,1-.77-.11,5.67,5.67,0,0,1-.89-.77,4.51,4.51,0,0,0-1.65-1.24c-.55-.08-1.19.43-1.78.85a6.29,6.29,0,0,1-2.07,1.08,1.72,1.72,0,0,1-1.33-.05.8.8,0,0,1-.25-.75,3.54,3.54,0,0,1,.12-.6,2.57,2.57,0,0,0,.09-.49c0-.06,0-.09,0-.06s0,0-.07,0a1.33,1.33,0,0,0-.8.43c-.51.47-.86,1.2-1.65,1.62a1.17,1.17,0,0,1-.67.13,2.77,2.77,0,0,1-.6-.13c-.37-.11-.72-.25-1.07-.39-.7-.29-1.38-.6-2.07-.9s-1.36-.61-2.05-.85a3.76,3.76,0,0,0-1-.26c-.24,0-.38.2-.31.52a2.36,2.36,0,0,0,1.24,1.53,1.59,1.59,0,0,0,.47.14c.1,0,.21,0,.34-.16a4,4,0,0,0,.64-.84,21.66,21.66,0,0,0,1.81-4,20.73,20.73,0,0,0,.61-2.14,8.29,8.29,0,0,0,.19-1.09,1.81,1.81,0,0,0-.08-1c-.11-.19-.53,0-.8.25a9.29,9.29,0,0,0-.84.71c-.54.51-1.05,1.06-1.55,1.61-1,1.1-2,2.24-3,3.36-.5.56-1,1.12-1.51,1.67a6.5,6.5,0,0,1-1.74,1.46.83.83,0,0,1-1-.58c-.14-.36-.13-.8-.33-1s-.27,0-.43.06a3.21,3.21,0,0,0-.46.29c-.3.21-.59.45-.89.68a6.08,6.08,0,0,1-1.95,1.16,1.14,1.14,0,0,1-1.12-.35,5.73,5.73,0,0,1-.67-.93c-.2-.31-.4-.64-.7-.74a2.32,2.32,0,0,0-1-.07,3.91,3.91,0,0,0-1.91.94,12.54,12.54,0,0,0-2.52,3.61,25.8,25.8,0,0,0-1.63,4.14,14.83,14.83,0,0,0-.72,4.34,1.79,1.79,0,0,0,.23.94l.06.07s0,0,0,0a.25.25,0,0,0,.1-.07,2.07,2.07,0,0,0,.32-.38,17.06,17.06,0,0,0,1-1.94,67.32,67.32,0,0,0,3-8.4,44.3,44.3,0,0,0,1.07-4.34,11.77,11.77,0,0,0,.25-2.2,1.87,1.87,0,0,0-.19-1c-.09-.12-.18-.15-.38-.11a3.29,3.29,0,0,0-.53.1,19.06,19.06,0,0,0-4.09,1.74c-1.31.71-2.6,1.48-3.85,2.29Z" style="fill:#263238"/>
    </g>
    <polygon points="317.68 176.27 300.85 176.39 284.02 176.43 250.37 176.51 216.72 176.43 199.89 176.39 183.07 176.27 199.89 176.14 216.72 176.1 250.37 176.02 284.02 176.1 300.85 176.14 317.68 176.27" style="fill:#263238"/>
    <polygon points="335.43 170.63 314.17 170.76 292.9 170.8 250.37 170.88 207.84 170.8 186.57 170.76 165.31 170.63 186.57 170.51 207.84 170.47 250.37 170.39 292.9 170.47 314.17 170.51 335.43 170.63" style="fill:#263238"/>
    <polygon points="330.07 181.9 310.14 182.02 290.22 182.06 250.37 182.15 210.52 182.06 190.6 182.02 170.67 181.9 190.6 181.77 210.52 181.73 250.37 181.65 290.22 181.73 310.14 181.78 330.07 181.9" style="fill:#263238"/>
    <polygon points="295.64 187.53 284.32 187.65 273.01 187.69 250.37 187.78 227.74 187.69 216.42 187.65 205.1 187.53 216.42 187.41 227.74 187.36 250.37 187.28 273.01 187.36 284.32 187.41 295.64 187.53" style="fill:#263238"/>
    <g transform="matrix(1, 0, 0, 1, 20, 0)">
      <path d="M152,217.84q9.18-.14,18.35-.19l18.35-.06,18.35.06q9.18,0,18.36.19Q216.2,218,207,218l-18.35.06L170.32,218Q161.14,218,152,217.84Z" style="fill:#263238"/>
      <path d="M206.85,214.1q-1.84-1.28-3.8-2.4a18.34,18.34,0,0,0-4.11-1.85,5.22,5.22,0,0,0-.57-.11.6.6,0,0,0-.62.21,2.15,2.15,0,0,0-.26,1.17,13,13,0,0,0,.23,2.25c.26,1.48.63,2.94,1,4.38a67.32,67.32,0,0,0,3,8.49,12.56,12.56,0,0,0,1.06,2,2.51,2.51,0,0,0,.41.47.59.59,0,0,0,.39.17.48.48,0,0,0,.27-.09l.13-.14a2.28,2.28,0,0,0,.32-1.2,15.21,15.21,0,0,0-.79-4.47,26.6,26.6,0,0,0-1.69-4.19,12.71,12.71,0,0,0-2.64-3.67,4.09,4.09,0,0,0-2.07-1,2.46,2.46,0,0,0-1.17.1,1.8,1.8,0,0,0-.82.84,5.09,5.09,0,0,1-.62.9.92.92,0,0,1-.91.3,5.8,5.8,0,0,1-1.88-1.1c-.3-.22-.6-.46-.91-.67a3.37,3.37,0,0,0-.49-.3.57.57,0,0,0-.62,0c-.29.37-.22.76-.36,1.09a.67.67,0,0,1-.77.49,6.58,6.58,0,0,1-1.65-1.44c-.51-.54-1-1.11-1.49-1.67-1-1.13-1.94-2.28-2.94-3.39-.5-.56-1-1.11-1.55-1.64a8.8,8.8,0,0,0-.86-.74,2.85,2.85,0,0,0-.51-.3.84.84,0,0,0-.33-.08.45.45,0,0,0-.35.19,2,2,0,0,0-.15,1.19,10.06,10.06,0,0,0,.18,1.12,22.6,22.6,0,0,0,.6,2.18,22.12,22.12,0,0,0,1.79,4.16,4.74,4.74,0,0,0,.71.94.82.82,0,0,0,.66.26,1.79,1.79,0,0,0,.6-.17,2.78,2.78,0,0,0,1.51-1.83,1.1,1.1,0,0,0-.09-.7.78.78,0,0,0-.29-.28.72.72,0,0,0-.39-.08,4.19,4.19,0,0,0-1.16.27c-.72.25-1.4.56-2.09.86s-1.37.6-2.06.88c-.34.13-.68.27-1,.37a3.22,3.22,0,0,1-.5.11.79.79,0,0,1-.41-.09c-.56-.28-.94-1-1.5-1.53a1.81,1.81,0,0,0-1.14-.59.58.58,0,0,0-.46.15.59.59,0,0,0-.16.46,3.33,3.33,0,0,0,.11.61c.1.33.15.76.05.78s-.54,0-.85-.05a5.72,5.72,0,0,1-1.89-1c-.3-.21-.61-.44-1-.64a1.82,1.82,0,0,0-1.24-.3,4.66,4.66,0,0,0-1.92,1.39,4.53,4.53,0,0,1-.8.69c-.13.09-.26.11-.29.08a3.07,3.07,0,0,1-.43-.26,17.4,17.4,0,0,1-1.69-1.42,19.41,19.41,0,0,1-2.89-3.33A3.74,3.74,0,0,1,160,209c0-.67.69-1,1.4-1.09a12.23,12.23,0,0,1,4.39.06,11.93,11.93,0,0,1,2.12.6,5.46,5.46,0,0,1,1,.52c.27.2.52.49.44.76a1.33,1.33,0,0,1-.72.65,10.33,10.33,0,0,1-1,.41,22,22,0,0,1-2.14.63,48.89,48.89,0,0,1-8.9.85v.05a47.19,47.19,0,0,0,9-.65,20.74,20.74,0,0,0,2.18-.61c.35-.13.71-.24,1.06-.41a1.6,1.6,0,0,0,.88-.84,1.1,1.1,0,0,0-.54-1.1,4.48,4.48,0,0,0-1-.57,10.5,10.5,0,0,0-2.18-.65,12.59,12.59,0,0,0-4.54-.13,3.22,3.22,0,0,0-1.14.39,1.38,1.38,0,0,0-.65,1.1,4.24,4.24,0,0,0,.77,2.23,18.11,18.11,0,0,0,3,3.45,16.47,16.47,0,0,0,1.74,1.47,3.58,3.58,0,0,0,.52.32.84.84,0,0,0,.77-.11,5.34,5.34,0,0,0,.9-.77,4.51,4.51,0,0,1,1.65-1.24c.55-.08,1.19.43,1.78.85a6.29,6.29,0,0,0,2.07,1.08,1.7,1.7,0,0,0,1.32-.05.79.79,0,0,0,.26-.75,3.54,3.54,0,0,0-.12-.6,2.57,2.57,0,0,1-.09-.49c0-.06,0-.09,0-.06s0,0,.07,0a1.33,1.33,0,0,1,.8.43c.51.47.85,1.2,1.64,1.62a1.22,1.22,0,0,0,.68.13,2.77,2.77,0,0,0,.6-.13c.37-.11.72-.25,1.07-.39.7-.29,1.38-.6,2.07-.9s1.36-.61,2.05-.85a3.76,3.76,0,0,1,1-.26c.24,0,.38.2.31.52a2.36,2.36,0,0,1-1.24,1.53,1.59,1.59,0,0,1-.47.14c-.1,0-.21,0-.34-.16a4,4,0,0,1-.64-.84,21.66,21.66,0,0,1-1.81-4c-.24-.71-.45-1.42-.62-2.14a8.26,8.26,0,0,1-.18-1.09,1.81,1.81,0,0,1,.08-1c.11-.19.53,0,.8.25a9.29,9.29,0,0,1,.84.71c.54.51,1,1.06,1.55,1.61,1,1.1,2,2.24,3,3.36.5.56,1,1.12,1.51,1.67a6.62,6.62,0,0,0,1.73,1.46.84.84,0,0,0,1-.58c.14-.36.13-.8.32-1s.28,0,.43.06a3.31,3.31,0,0,1,.47.29c.3.21.59.45.89.68a6.08,6.08,0,0,0,1.95,1.16,1.14,1.14,0,0,0,1.12-.35,5.73,5.73,0,0,0,.67-.93c.2-.31.4-.64.7-.74a2.31,2.31,0,0,1,1-.07,3.91,3.91,0,0,1,1.91.94,12.54,12.54,0,0,1,2.52,3.61,25.75,25.75,0,0,1,1.62,4.14,14.52,14.52,0,0,1,.73,4.34,1.89,1.89,0,0,1-.23.94l-.07.07h0a.25.25,0,0,1-.1-.07,2.07,2.07,0,0,1-.32-.38,15.61,15.61,0,0,1-1-1.94,67.37,67.37,0,0,1-3-8.4c-.41-1.44-.79-2.88-1.07-4.34a13.73,13.73,0,0,1-.25-2.2,2,2,0,0,1,.2-1c.09-.12.18-.15.38-.11a3.51,3.51,0,0,1,.53.1,19.27,19.27,0,0,1,4.09,1.74c1.31.71,2.6,1.48,3.85,2.29Z" style="fill:#263238"/>
    </g>
  </g>
  <g id="freepik--Label--inject-2">
    <polygon points="399.95 293.26 408.97 282.41 422.7 285.63 405.88 235.49 383.13 243.13 399.95 293.26" style="fill:#455a64"/>
    <polygon points="391.48 267.99 383.13 243.13 405.88 235.49 391.48 267.99" style="fill:#37474f"/>
    <polygon points="402.94 236.49 419.14 284.79 419.64 284.91 403.35 236.35 402.94 236.49" style="fill:#fff"/>
    <polygon points="385.66 242.28 401.95 290.84 402.29 290.45 386.08 242.14 385.66 242.28" style="fill:#fff"/>
    <polygon points="357.34 293.18 370.86 289.16 380.5 299.46 396.14 241.77 372.99 235.49 357.34 293.18" style="fill:#455a64"/>
    <polygon points="393.14 240.97 378 296.79 378.35 297.16 393.56 241.08 393.14 240.97" style="fill:#fff"/>
    <polygon points="375.56 236.2 360.35 292.28 360.84 292.14 375.99 236.31 375.56 236.2" style="fill:#fff"/>
    <path d="M392,179.62h0a2.11,2.11,0,0,0,3.71.39h0a2.11,2.11,0,0,1,3.83.82h0a2.11,2.11,0,0,0,3.55,1.15h0a2.11,2.11,0,0,1,3.58,1.59h0a2.11,2.11,0,0,0,3.23,1.87h0a2.11,2.11,0,0,1,3.17,2.3h0a2.11,2.11,0,0,0,2.78,2.5h0a2.11,2.11,0,0,1,2.62,2.91h0a2.11,2.11,0,0,0,2.19,3h0a2.11,2.11,0,0,1,2,3.39h0a2.11,2.11,0,0,0,1.52,3.41h0a2.11,2.11,0,0,1,1.21,3.73h0a2.11,2.11,0,0,0,.78,3.65h0a2.11,2.11,0,0,1,.41,3.9h0a2.11,2.11,0,0,0,0,3.73h0a2.11,2.11,0,0,1-.41,3.9h0a2.11,2.11,0,0,0-.78,3.65h0a2.1,2.1,0,0,1-1.21,3.72h0a2.11,2.11,0,0,0-1.52,3.41h0a2.11,2.11,0,0,1-2,3.4h0a2.11,2.11,0,0,0-2.19,3h0a2.11,2.11,0,0,1-2.62,2.91h0a2.11,2.11,0,0,0-2.78,2.5h0a2.11,2.11,0,0,1-3.17,2.3h0a2.11,2.11,0,0,0-3.23,1.87h0a2.11,2.11,0,0,1-3.58,1.59h0a2.11,2.11,0,0,0-3.55,1.15h0a2.11,2.11,0,0,1-3.83.82h0a2.11,2.11,0,0,0-3.71.39h0a2.11,2.11,0,0,1-3.92,0h0a2.11,2.11,0,0,0-3.71-.39h0a2.11,2.11,0,0,1-3.83-.82h0a2.11,2.11,0,0,0-3.55-1.15h0a2.11,2.11,0,0,1-3.58-1.59h0a2.12,2.12,0,0,0-3.24-1.87h0a2.11,2.11,0,0,1-3.17-2.3h0a2.11,2.11,0,0,0-2.77-2.5h0a2.11,2.11,0,0,1-2.62-2.91h0a2.11,2.11,0,0,0-2.19-3h0a2.11,2.11,0,0,1-2-3.4h0a2.11,2.11,0,0,0-1.52-3.41h0a2.1,2.1,0,0,1-1.21-3.72h0a2.11,2.11,0,0,0-.78-3.65h0a2.11,2.11,0,0,1-.41-3.9h0a2.11,2.11,0,0,0,0-3.73h0a2.11,2.11,0,0,1,.41-3.9h0a2.11,2.11,0,0,0,.78-3.65h0a2.11,2.11,0,0,1,1.21-3.73h0a2.11,2.11,0,0,0,1.52-3.41h0a2.11,2.11,0,0,1,2-3.39h0a2.11,2.11,0,0,0,2.19-3h0a2.11,2.11,0,0,1,2.62-2.91h0a2.11,2.11,0,0,0,2.77-2.5h0a2.11,2.11,0,0,1,3.17-2.3h0a2.12,2.12,0,0,0,3.24-1.87h0A2.11,2.11,0,0,1,377,182h0a2.11,2.11,0,0,0,3.55-1.15h0a2.11,2.11,0,0,1,3.83-.82h0a2.11,2.11,0,0,0,3.71-.39h0A2.11,2.11,0,0,1,392,179.62Z" style="fill:#024ADF"/>
    <circle cx="390.02" cy="216.11" r="32.69" transform="translate(78.87 535.5) rotate(-74.74)" style="fill:#fff"/>
    <path d="M390,246.52a30.41,30.41,0,1,1,30.41-30.41A30.44,30.44,0,0,1,390,246.52Zm0-60.06a29.66,29.66,0,1,0,29.66,29.65A29.69,29.69,0,0,0,390,186.46Z" style="fill:#024ADF"/>
    <polygon points="386.64 234.31 368.72 216.39 376.07 209.03 386.64 219.6 420.29 185.95 427.64 193.31 386.64 234.31" style="fill:#455a64"/>
  </g>
</svg>