<svg xmlns="http://www.w3.org/2000/svg" viewBox="0 0 750 500"><g id="freepik--background-simple--inject-37"><path d="M670.94,215.37c-25.62-40.94-60.83-76.73-97.78-104.38-37.39-28-81.78-49-128.84-52.34A271.61,271.61,0,0,0,308.26,84.06C277.5,98.74,250,119.15,229.63,146.69c-3.26,4.41-5.28,8.9-7.48,13.95-.39.88-.76,1.77-1.12,2.67a235.76,235.76,0,0,0-12.48,41.5c-1.62,8.08-2.31,16.8-5.48,24.48-9.37,22.68-39.14,29.22-58,41.61C100,300.58,58.57,352,67.34,409.22l0,.21C75.35,460.65,97.3,466,97.3,466H684.67s27.94-43.24,26.61-124.39C710.54,296.42,694.71,253.35,670.94,215.37Z" style="fill:#FF6600"></path><path d="M670.94,215.37c-25.62-40.94-60.83-76.73-97.78-104.38-37.39-28-81.78-49-128.84-52.34A271.61,271.61,0,0,0,308.26,84.06C277.5,98.74,250,119.15,229.63,146.69c-3.26,4.41-5.28,8.9-7.48,13.95-.39.88-.76,1.77-1.12,2.67a235.76,235.76,0,0,0-12.48,41.5c-1.62,8.08-2.31,16.8-5.48,24.48-9.37,22.68-39.14,29.22-58,41.61C100,300.58,58.57,352,67.34,409.22l0,.21C75.35,460.65,97.3,466,97.3,466H684.67s27.94-43.24,26.61-124.39C710.54,296.42,694.71,253.35,670.94,215.37Z" style="fill:#fff;opacity:0.7000000000000001"></path></g><g id="freepik--Clouds--inject-37"><path d="M655,324.55s-15.56-2.59-17.64-7.26-4.42-11.19-9.12-13.84c-5.79-3.27-10.71,2.67-16.31-1.21-6.74-4.67-7.26-15.05-24.39-17.12s-16.6,17.12-17.64,20.24-10.89-3.12-16.6,1-4.15,12.46-5.71,14-8.82-1.55-10.9,0-4.67,3.12-4.67,3.12l-11.93,3.63H662.81Z" style="fill:none;stroke:#263238;stroke-linecap:round;stroke-linejoin:round"></path><path d="M437.26,73.11S426,71.24,424.52,67.87s-3.2-8.09-6.59-10c-4.19-2.36-7.74,1.93-11.79-.87-4.87-3.37-5.25-10.87-17.62-12.37s-12,12.37-12.74,14.62-7.88-2.25-12,.75-3,9-4.13,10.12-6.37-1.12-7.87,0-3.37,2.25-3.37,2.25L339.78,75H442.89Z" style="fill:none;stroke:#263238;stroke-linecap:round;stroke-linejoin:round"></path><path d="M175.17,243s-8.06-1.34-9.14-3.76-2.29-5.81-4.73-7.18c-3-1.69-5.55,1.38-8.45-.62-3.5-2.43-3.77-7.8-12.65-8.88s-8.6,8.88-9.14,10.49-5.65-1.61-8.61.54-2.15,6.45-3,7.26-4.57-.81-5.65,0-2.42,1.61-2.42,1.61l-6.18,1.89h74Z" style="fill:none;stroke:#263238;stroke-linecap:round;stroke-linejoin:round"></path><path d="M257.09,412.45s-12.44-2.07-14.11-5.8-3.53-8.95-7.29-11.07c-4.63-2.61-8.56,2.13-13-1-5.39-3.74-5.81-12-19.5-13.69s-13.27,13.69-14.1,16.17-8.71-2.48-13.28.83-3.31,10-4.56,11.21-7.05-1.25-8.71,0-3.73,2.48-3.73,2.48l-9.55,2.91H263.31Z" style="fill:none;stroke:#263238;stroke-linecap:round;stroke-linejoin:round"></path></g><g id="freepik--Arrows--inject-37"><polyline points="675.82 302.77 569.68 202.22 594.04 202.22 417.92 94.37 469.5 202.22 493.86 202.22 571.34 275.62" style="fill:none;stroke:#263238;stroke-linecap:round;stroke-linejoin:round"></polyline><polyline points="261.31 364.42 200.57 306.89 207.74 306.89 155.89 275.13 171.08 306.89 178.25 306.89 238.98 364.42" style="fill:none;stroke:#263238;stroke-linecap:round;stroke-linejoin:round"></polyline><polygon points="571.71 123.67 534.71 101.02 545.55 123.67 554.74 123.67 598.07 164.72 605.85 164.72 562.52 123.67 571.71 123.67" style="fill:#263238"></polygon><polygon points="484.53 258.06 447.54 235.41 458.38 258.06 467.56 258.06 510.89 299.11 518.67 299.11 475.34 258.06 484.53 258.06" style="fill:#263238"></polygon><polygon points="107.62 408.39 70.63 385.74 81.46 408.39 90.65 408.39 133.98 449.44 141.76 449.44 98.43 408.39 107.62 408.39" style="fill:#263238"></polygon><polygon points="175.27 94.59 101.81 49.61 123.33 94.59 141.57 94.59 227.62 176.1 243.07 176.1 157.02 94.59 175.27 94.59" style="fill:#ffffff"></polygon></g><g id="freepik--Plant--inject-37"><path d="M578.9,427c-4-.47-5.72,4.46-7.2,2.1s4.24-6.83-2.17-10.93-9.41,1.78-11.44-.32-.57-7.59-4.8-10-6.22.59-8.56.69-9.73-3.87-12.68-.75,4.11,10.68.79,10.91-4.65,6.68-2,10.86,11.35,5.83,9.66,8-10,2.05-6.59,6.93,14.81,5.2,16.45,5.78-5.27,1.84-4.1,6.41,10.67,5.13,16.79,2.2,5-11.64,5-11.64h.31a53.69,53.69,0,0,0-2.65-5.18l-.09,0H552a.5.5,0,0,1,0-1h13.21a73.56,73.56,0,0,0-10.71-13.4l-13.59-1.33a.49.49,0,0,1-.45-.54.5.5,0,0,1,.54-.45l12.38,1.2a89.62,89.62,0,0,0-11.69-9.65.5.5,0,0,1-.15-.7.5.5,0,0,1,.69-.14,89.25,89.25,0,0,1,11.4,9.35l-2.78-9.46a.5.5,0,1,1,1-.28l3.29,11.18a77.05,77.05,0,0,1,10.28,12.61l.84-10.31a.52.52,0,0,1,.54-.46.5.5,0,0,1,.45.54l-.94,11.66a52,52,0,0,1,3.24,6.3c2.7-.18,8.74-1.17,12-6.37C585.68,434,582.89,427.45,578.9,427Z" style="fill:#263238"></path><path d="M600.11,394.09c-3.13-2.54-7.22.71-7.21-2.08s7.23-3.51,4-10.4-8.9-3.51-9.5-6.37,3.57-6.73,1.27-11-5.57-2.81-7.61-4-6.16-8.47-10.32-7.4-2.22,11.23-5.14,9.65-7.51,3.17-7.46,8.14,6.49,11,3.9,11.93-9.52-3.58-9.27,2.34,9.75,12.3,10.83,13.67-5.44-1.25-6.89,3.24,6.29,10,13,10.81,10.45-7.17,10.45-7.17l.25.16a49,49,0,0,0,.52-5.79l-.08,0-11.6-7.32a.5.5,0,0,1,.54-.84L581,398.67a74.15,74.15,0,0,0-1.92-17.05l-10.79-8.37a.51.51,0,0,1-.09-.71.54.54,0,0,1,.71-.09l9.81,7.63A88.68,88.68,0,0,0,574,365.67a.5.5,0,0,1,.91-.42,90.05,90.05,0,0,1,4.65,14l2.69-9.48a.5.5,0,0,1,1,.27L580,381.25a76.93,76.93,0,0,1,2,16.15l6.21-8.28a.51.51,0,0,1,.7-.1.5.5,0,0,1,.1.7l-7,9.36a52.56,52.56,0,0,1-.61,7.06c2.37,1.29,8,3.67,13.51,1C602.11,403.63,603.23,396.62,600.11,394.09Z" style="fill:#263238"></path><path d="M609,453.32c-1.74-1.41-4,.4-4-1.15s4-2,2.23-5.81-5-2-5.31-3.56,2-3.75.71-6.15-3.11-1.57-4.25-2.22-3.43-4.73-5.75-4.13-1.25,6.26-2.88,5.38-4.19,1.77-4.16,4.54,3.62,6.14,2.18,6.66-5.32-2-5.18,1.31,5.44,6.87,6,7.63-3-.7-3.85,1.81,3.51,5.6,7.27,6,5.83-4,5.83-4l.15.09a29.14,29.14,0,0,0,.29-3.23l0,0-6.47-4.08a.28.28,0,0,1,.3-.48l6.24,3.94a41.13,41.13,0,0,0-1.07-9.51l-6-4.68a.27.27,0,0,1,0-.39.28.28,0,0,1,.39-.05l5.48,4.25a50.19,50.19,0,0,0-2.64-8,.27.27,0,0,1,.13-.37.28.28,0,0,1,.37.14,48.87,48.87,0,0,1,2.6,7.81l1.5-5.3a.29.29,0,0,1,.35-.19.28.28,0,0,1,.19.35l-1.78,6.26a42.57,42.57,0,0,1,1.1,9l3.47-4.62a.28.28,0,0,1,.45.34l-3.92,5.22a29.12,29.12,0,0,1-.35,3.94c1.33.72,4.48,2.05,7.55.56C610.12,458.65,610.74,454.74,609,453.32Z" style="fill:#263238"></path><path d="M663.27,449.38c-2-6.08-10.24-5.31-7.81-9S668.14,442,669.8,430s-8.82-12.4-7.14-16.73,10.58-5.86,11.25-13.58-5-8.58-6.69-11.9-.86-16.61-7.33-18.79-12.69,13-15.21,8.39-12.74-2.28-17,4.38S626.81,402,622.54,401s-9.57-13-14.37-4.92,2.33,24.83,2.59,27.59-6.17-6.38-12-1.65-.31,18.81,8,25.69,20.14-.5,20.14-.5l.19.44a81.06,81.06,0,0,0,5.72-7.26.5.5,0,0,1-.08-.12l-9.11-19.79a.79.79,0,1,1,1.44-.67l8.78,19.08a117.7,117.7,0,0,0,12.23-24.36L638.94,394a.78.78,0,0,1,.49-1,.82.82,0,0,1,1,.49l6.48,18.66a141.61,141.61,0,0,0,6.17-23.29.8.8,0,0,1,.9-.67.79.79,0,0,1,.67.9,141.22,141.22,0,0,1-5.92,22.67l11.81-10.31a.79.79,0,0,1,1,1.2l-14,12.18a122.32,122.32,0,0,1-11.37,23.23l15.44-5.65a.8.8,0,0,1,1,.48.79.79,0,0,1-.47,1l-17.46,6.39a83.81,83.81,0,0,1-6.94,8.87c2,3.77,7.49,11.82,17.14,13C657.67,463.82,665.23,455.45,663.27,449.38Z" style="fill:#263238"></path><polygon points="616.01 465.97 628.94 448.65 627.34 447.46 613.51 465.97 616.01 465.97" style="fill:#263238"></polygon><polygon points="595.44 465.97 582.33 405.93 580.38 406.35 593.39 465.97 595.44 465.97" style="fill:#263238"></polygon><polygon points="584.01 465.97 569.2 446.61 567.61 447.82 581.49 465.97 584.01 465.97" style="fill:#263238"></polygon></g><g id="freepik--Character--inject-37"><path d="M459.67,305s2.35,4.73,3.32,21.3,7.8,53,11.7,67,8.78,72.48,8.78,72.48h-35.1s-1.95-12.35-3.25-22.1-5.53-26-7.15-31.53-4.55-15.92-4.55-15.92S434.57,348.09,459.67,305Z" style="fill:#FF6600;stroke:#263238;stroke-linecap:round;stroke-linejoin:round"></path><path d="M457.05,319.62s-3.45,14.39-9.71,37.24-7.51,37.55-7.82,40.37S438,412.15,438,412.15l-4.39-12.73s.93-29.73,3.75-42.25,20.34-40.68,20.34-40.68Z" style="fill:#263238;stroke:#263238;stroke-linecap:round;stroke-linejoin:round"></path><path d="M449.66,437.74a176.83,176.83,0,0,0,9.11-40.54" style="fill:none;stroke:#263238;stroke-linecap:round;stroke-linejoin:round"></path><path d="M445.77,447.26s1-2,2.46-5.72" style="fill:none;stroke:#263238;stroke-linecap:round;stroke-linejoin:round"></path><path d="M457,379.1c-1.74,13.17-4.18,31-5.72,39.88" style="fill:none;stroke:#263238;stroke-linecap:round;stroke-linejoin:round"></path><path d="M459.09,363.07s-.57,4.48-1.42,11" style="fill:none;stroke:#263238;stroke-linecap:round;stroke-linejoin:round"></path><path d="M345.29,277.77l-4.66-.66s-1.66-5.66-3.66-6.32-6.65,0-7.64-.67a64.7,64.7,0,0,0-10.31-7c-6.65-3.66-23.94,2-26.6,2s-8.65-4-8.65-4l-16.62-14s-1.66-6.65-9.31-14.63-12-11.3-17.63-18.62-11.63-4.65-16.62-2.66S206.3,235.54,209,239.87s9,11.3,12.3,15.29,19,33.92,23.61,35.25a66.34,66.34,0,0,1,8.31,3s11.31,16.29,20.29,22.28a253.59,253.59,0,0,0,22.27,12.63L299.4,331s4,57.53,7.32,68.83,3.65,46.55,3.65,46.55L310,466h117l4.33-45.55s4-46.22,13.63-68.83S462,308,459.67,305s-37.24-19.29-44.56-24.28-12.3-8.64-12.3-8.64l-52.2,3Z" style="fill:#FF6600;stroke:#263238;stroke-linecap:round;stroke-linejoin:round"></path><polygon points="370.22 425.6 370.56 431.39 354.93 459.65 342.92 442.4 336.64 433.39 337.1 430.72 340.02 413.84 342.96 396.76 345.88 379.87 348.83 362.79 351.74 345.91 354.69 328.83 357.59 312.02 357.57 311.97 351.84 300.23 350.94 298.39 362.91 288.84 365.32 291.94 371.89 300.38 368.35 305.33 363.57 312.02 364.21 322.97 365.07 337.71 365.93 352.27 366.79 367 367.64 381.57 368.51 396.3 369.36 410.87 370.22 425.6" style="fill:#fff;stroke:#263238;stroke-linecap:round;stroke-linejoin:round"></polygon><path d="M365.32,291.94l-13.48,8.29L357.57,312l10.78-6.64,3.54-4.95Zm-1.11,31-9.52,5.86-2.95,17.08,13.33-8.2Zm1.72,29.3-17.1,10.52-2.95,17.08L366.79,367Zm1.71,29.3L343,396.76,340,413.84l28.49-17.54Zm1.72,29.3L337.1,430.72l-.46,2.67,6.28,9,27.3-16.8Z" style="fill:#263238"></path><line x1="267.48" y1="249.51" x2="271.8" y2="264.47" style="fill:none;stroke:#263238;stroke-linecap:round;stroke-linejoin:round"></line><path d="M291.27,298.58c-1-4.06-1.76-6.91-1.84-7.18" style="fill:none;stroke:#263238;stroke-linecap:round;stroke-linejoin:round"></path><path d="M299.4,331s-3.95-15.81-6.88-27.45l1.27,17.31-20.32-5.15Z" style="fill:#263238;stroke:#263238;stroke-linecap:round;stroke-linejoin:round"></path><path d="M295.71,280.88a45,45,0,0,0-2.29-8.1" style="fill:none;stroke:#263238;stroke-linecap:round;stroke-linejoin:round"></path><path d="M300.4,324.66s-1.15-23.09-3.87-39.35" style="fill:none;stroke:#263238;stroke-linecap:round;stroke-linejoin:round"></path><path d="M337.31,274.11s-3,16.63,2.32,30.93" style="fill:none;stroke:#263238;stroke-linecap:round;stroke-linejoin:round"></path><path d="M341.63,321.08a33.1,33.1,0,0,0,3,4.24" style="fill:none;stroke:#263238;stroke-linecap:round;stroke-linejoin:round"></path><path d="M332.65,295.4s2.05,12.1,7.12,22.29" style="fill:none;stroke:#263238;stroke-linecap:round;stroke-linejoin:round"></path><path d="M207,225.24s4.33,8,8.32,9.64,11.3,0,15.29-5.65,6.32-10.31,3-14.3a43.57,43.57,0,0,0-7-6.65S210.62,211.94,207,225.24Z" style="fill:#FF6600;stroke:#263238;stroke-linecap:round;stroke-linejoin:round"></path><path d="M226.58,208.28s-13.93-14.46-17.43-18-12.05-10.11-19.63-16.52-15.75-16.53-17.3-13,2.91,12.64,6.61,18.47,9.91,9.14,10.5,9.53-5.64,7.77-5.06,9.91l.58,2.14s-4.86,5.83-4.47,7.58a9.73,9.73,0,0,0,2.34,3.69s-2.73,5.06-1.95,6.42,7.58,9.72,10.5,9.91,3.3-1.75,2.33-2.91-4.27-5.64-4.27-5.64,9.72,5.25,12.24,5.44a24.41,24.41,0,0,0,6.61-1s4.47,4.86,9.14,4.28,10.89-7.39,11.86-11.28S229.43,212.24,226.58,208.28Z" style="fill:#fff;stroke:#263238;stroke-linecap:round;stroke-linejoin:round"></path><path d="M210.9,196s-12.63,4.66-13.6,5.83-7.39,6.61-9.53,7.58-1.56,5.45,1,5.83,11.47-3.49,12.44-3.88,8.36,0,11.09-1.36" style="fill:none;stroke:#263238;stroke-linecap:round;stroke-linejoin:round"></path><path d="M203.71,211.71s.78,5,7.19,6a15.32,15.32,0,0,0,11.47-2.53" style="fill:none;stroke:#263238;stroke-linecap:round;stroke-linejoin:round"></path><path d="M190.69,189.35s6.61,2.14,10.69,1.94" style="fill:none;stroke:#263238;stroke-linecap:round;stroke-linejoin:round"></path><path d="M192.44,189.93s2.33,7.39,7.58,10.11" style="fill:none;stroke:#263238;stroke-linecap:round;stroke-linejoin:round"></path><path d="M184.85,200.82s3.31,4.28,7.2,6.22" style="fill:none;stroke:#263238;stroke-linecap:round;stroke-linejoin:round"></path><path d="M182.72,212.09s6.41,5.06,17.88,7.39c0,0,3.11,0,2.72-4.08" style="fill:none;stroke:#263238;stroke-linecap:round;stroke-linejoin:round"></path><line x1="190.88" y1="216.95" x2="189.33" y2="219.87" style="fill:none;stroke:#263238;stroke-linecap:round;stroke-linejoin:round"></line><path d="M357.47,175.21s-8.78,31.34-12,45.1-2.93,24.31,1.46,31.63a17.17,17.17,0,0,0,5.56,5.86l-2.34,14.06s8.79,14.93,12,17,34.26-23.72,34.26-23.72l3.22-27.24s10.55.59,13.18-5.27,2.35-11.13,1.17-12.3l-1.17-1.17s4.1-16.1,6.15-19.62c2.32-4,5.36-7.43,5.18-12.31-.44-11.56-10.54-23.24-20.88-27.54-10.1-4.21-22.64-6.84-33.5-4.66C356.59,157.64,350.15,167.31,357.47,175.21Z" style="fill:#fff;stroke:#263238;stroke-linecap:round;stroke-linejoin:round"></path><path d="M403.27,159.67c-10.1-4.21-22.64-6.84-33.5-4.66-13.18,2.63-19.62,12.3-12.3,20.2a82.2,82.2,0,0,0,11.72,2c6.15.59,20.2,1.47,25.18,3.81a33.88,33.88,0,0,1,7,4.1s-5.27,10-2.34,15.23,8.49,7.91,7.61,10.25-4.39,10.25-3.22,12,4.69-4.69,6.15-4.69a7.19,7.19,0,0,1,3.22,1.17s4.1-16.1,6.15-19.62c2.32-4,5.36-7.43,5.18-12.31C423.71,175.65,413.61,164,403.27,159.67Z" style="fill:#263238;stroke:#263238;stroke-linecap:round;stroke-linejoin:round"></path><path d="M362.73,206.26c-.28,1.92-1.42,3.34-2.54,3.17s-1.8-1.85-1.51-3.77,1.42-3.34,2.54-3.18S363,204.34,362.73,206.26Z" style="fill:#263238"></path><path d="M383,212.41c-.28,1.92-1.42,3.34-2.54,3.18s-1.8-1.86-1.51-3.78,1.41-3.34,2.53-3.18S383.23,210.49,383,212.41Z" style="fill:#263238"></path><path d="M369.19,206s-1.47,7.91-4.69,12.3-8.78,5.57-7.32,7.91,8.79,3.22,8.79,3.22" style="fill:none;stroke:#263238;stroke-linecap:round;stroke-linejoin:round"></path><path d="M358.64,233.49s8.2,4.39,15.53,1.76" style="fill:none;stroke:#263238;stroke-linecap:round;stroke-linejoin:round"></path><path d="M386.17,254.28s-5.56,2.93-17,5.86-16.7-2.34-16.7-2.34l-2.33,14C361.33,267.23,386.17,254.28,386.17,254.28Z" style="fill:#263238;stroke:#263238;stroke-linecap:round;stroke-linejoin:round"></path><path d="M350.15,203.62s-1.76-3.22-5,.88.3,15.81.3,15.81Z" style="fill:none;stroke:#263238;stroke-linecap:round;stroke-linejoin:round"></path><path d="M356.59,193.08s5.28-2.05,10.55,3.8" style="fill:none;stroke:#263238;stroke-linecap:round;stroke-linejoin:round;stroke-width:3px"></path><path d="M379.44,201a13.38,13.38,0,0,1,14.05.88" style="fill:none;stroke:#263238;stroke-linecap:round;stroke-linejoin:round;stroke-width:3px"></path><circle cx="384.71" cy="213.87" r="12.01" style="fill:none;stroke:#263238;stroke-linecap:round;stroke-linejoin:round"></circle><circle cx="358.42" cy="206.62" r="10.76" style="fill:none;stroke:#263238;stroke-linecap:round;stroke-linejoin:round"></circle><path d="M369.19,206.62s3.22-1.54,4.68.81" style="fill:none;stroke:#263238;stroke-linecap:round;stroke-linejoin:round"></path><line x1="396.42" y1="216.21" x2="406.97" y2="220.02" style="fill:none;stroke:#263238;stroke-linecap:round;stroke-linejoin:round"></line><polygon points="362.16 288.84 347.28 309.69 341.96 273.45 349.94 269.13 362.16 288.84" style="fill:#FF6600;stroke:#263238;stroke-linecap:round;stroke-linejoin:round"></polygon><polygon points="362.16 288.84 374.21 312.02 402.81 272.12 396.42 265.12 362.16 288.84" style="fill:#FF6600;stroke:#263238;stroke-linecap:round;stroke-linejoin:round"></polygon></g><g id="freepik--speech-bubble--inject-37"><path d="M327.17,142.3a54.13,54.13,0,1,0-18.87,15.5,54.63,54.63,0,0,0,9.56-6.07L333.7,166Z" style="fill:#263238;stroke:#263238;stroke-linecap:round;stroke-linejoin:round"></path><path d="M323,140.64a54.17,54.17,0,1,0-18.88,15.5,54.79,54.79,0,0,0,9.56-6.06l15.84,14.25Z" style="fill:#fff;stroke:#263238;stroke-linecap:round;stroke-linejoin:round"></path><path d="M304.16,156.14a54.25,54.25,0,0,1-60.92-8.81l9.57-15.67,6.15,3.88,16.17-44.3L289,145.57l9.38-5.82Z" style="fill:#263238;stroke:#263238;stroke-linecap:round;stroke-linejoin:round"></path><line x1="275.13" y1="91.24" x2="275.13" y2="62.78" style="fill:none;stroke:#263238;stroke-linecap:round;stroke-linejoin:round"></line><path d="M275.29,64.49s11.41.77,12.56,2.44,1.54,5.9,2,6.15,7.05.13,7.56,1,1.54,4.74,2.18,5.64,6,1.54,6,1.54a15.16,15.16,0,0,1-2.31,1.28c-.77.25-2.82.64-2.82.64l3.33.9A8.34,8.34,0,0,1,299.39,86a6.34,6.34,0,0,1-5.26-2.44c-.38-.64-4.74-.38-6.15-.77s-1.15-2.82-1.79-3.58-11-1.29-11-1.29Z" style="fill:#FF6600;stroke:#263238;stroke-linecap:round;stroke-linejoin:round"></path></g><g id="freepik--Table--inject-37"><line x1="37.78" y1="465.97" x2="730.68" y2="465.97" style="fill:none;stroke:#263238;stroke-linecap:round;stroke-linejoin:round"></line></g></svg>
