<svg xmlns="http://www.w3.org/2000/svg" viewBox="0 0 500 500">
  
  <g id="freepik--Device--inject-59">
    <path d="M374.66,58.3H202.35a17.59,17.59,0,0,0-17.43,17.76V430.77a17.61,17.61,0,0,0,17.43,17.76H374.66a17.62,17.62,0,0,0,17.45-17.76V76.06A17.6,17.6,0,0,0,374.66,58.3Zm6.55,361.5c0,9.34-7,16.89-15.62,16.89H211.44c-8.64,0-15.64-7.55-15.64-16.89V89.5c0-19,7-20,15.64-20h30.88c1.8,0,3.27,2,3.27,4.57v1.09c0,5.92,3.24,5.94,7.21,5.94h71.41c4,0,7.24,0,7.24-5.94V74.12c0-2.53,1.45-4.57,3.27-4.57h30.87c8.63,0,15.62,2.53,15.62,20Z" style="fill:#263238"></path>
    <path d="M381.22,89.5V419.8c0,9.34-7,16.89-15.62,16.89H211.45c-8.64,0-15.64-7.55-15.64-16.89V89.5c0-19,7-20,15.64-20h30.88c1.8,0,3.27,2,3.27,4.57v1.09c0,5.92,3.24,5.94,7.21,5.94h71.41c4,0,7.24,0,7.24-5.94V74.12c0-2.53,1.45-4.57,3.27-4.57H365.6C374.23,69.55,381.22,72.08,381.22,89.5Z" style="fill:#fff"></path>

<path d="M381.22,89.51v30H195.81v-30c0-19,7-20,15.64-20h30.88c1.8,0,3.27,2,3.27,4.57v1.09c0,5.92,3.24,5.94,7.21,5.94h71.41c4,0,7.24,0,7.24-5.94V74.13c0-2.53,1.45-4.57,3.27-4.57H365.6C374.23,69.56,381.22,72.09,381.22,89.51Z" 
      style="fill:#024ADF; stroke:#024ADF; stroke-width:0.5px;">
</path>
    <path d="M298.25,73.47H278.77a1.21,1.21,0,0,1-1.2-1.21h0a1.2,1.2,0,0,1,1.2-1.2h19.48a1.2,1.2,0,0,1,1.2,1.2h0A1.2,1.2,0,0,1,298.25,73.47Z" style="fill:#fff"></path>
    <rect x="207.9" y="97.8" width="16.09" height="10.2" style="fill:#fff"></rect>
    <path d="M224,97.8c-.65.62-1.31,1.22-2,1.83l-2,1.79L218,103.26l-.06.06L216,104.93l-.09.07-.09-.07L214,103.31l-.06,0c-.7-.61-1.4-1.22-2.09-1.84l-2-1.79c-.65-.61-1.31-1.21-2-1.83.69.54,1.37,1.09,2,1.64s1.36,1.11,2,1.68,1.51,1.26,2.26,1.9h0l1.68,1.44,1.69-1.44h0l2.25-1.9,2-1.67Z" style="fill:#024ADF"></path>
    <path d="M214.27,103.25s0,0,0,0l-.26.21c-.4.34-.82.67-1.24,1s-1,.76-1.56,1.13-1.06.73-1.6,1.08-1.1.69-1.66,1c.48-.43,1-.83,1.5-1.22s1-.76,1.57-1.13,1.06-.73,1.6-1.08.88-.55,1.33-.81a3.07,3.07,0,0,1,.31-.17Z" style="fill:#024ADF"></path>
    <path d="M224,107.68c-.57-.31-1.12-.65-1.66-1s-1.08-.71-1.61-1.08-1.05-.74-1.56-1.13-.83-.64-1.23-1l-.26-.21,0,0h0l.31.18q.68.39,1.32.81c.55.35,1.08.71,1.61,1.08s1.05.74,1.56,1.13S223.46,107.25,224,107.68Z" style="fill:#024ADF"></path>
    <path d="M227.44,97.8A3.45,3.45,0,1,1,224,94.35,3.45,3.45,0,0,1,227.44,97.8Z" style="fill:#455a64"></path>
    <path d="M225.13,98.49a.28.28,0,0,1-.28.27h0v.38a.28.28,0,0,1-.55,0v-.38h-1.56a.22.22,0,0,1-.17-.06.26.26,0,0,1,0-.38L224.31,96s0,0,0,0,0,0,0,0h0l0,0h.08s0,0,0,0h.16l0,0,0,0h0l0,0a0,0,0,0,0,0,0l0,0v0s0,0,0,0a0,0,0,0,1,0,0v0s0,0,0,0v2h0A.28.28,0,0,1,225.13,98.49Zm-.88-1.5-1,1.23h1Z" style="fill:#fff"></path>
    <g id="freepik--u5Zjqx--inject-59">
      <path d="M237,76.68l-.3.3-.17.17a4.07,4.07,0,0,0-5.75,0l-.16-.17c-.1-.1-.2-.19-.29-.29h0l0,0,.38-.34a4.13,4.13,0,0,1,.87-.55,4.29,4.29,0,0,1,1.16-.39c.19,0,.38,0,.57-.08h.51l.39,0a4.22,4.22,0,0,1,1.06.26,4.69,4.69,0,0,1,.72.33,5.33,5.33,0,0,1,.69.48l.31.29Z" style="fill:#fff"></path>
      <path d="M231.72,78.09l-.47-.47a3.27,3.27,0,0,1,1.91-1,3.36,3.36,0,0,1,2.89,1l-.47.47a2.73,2.73,0,0,0-1.93-.79A2.7,2.7,0,0,0,231.72,78.09Z" style="fill:#fff"></path>
      <path d="M235.11,78.56c-.16.15-.32.31-.47.47a1.37,1.37,0,0,0-1-.41,1.35,1.35,0,0,0-1,.41l-.47-.47A2.06,2.06,0,0,1,235.11,78.56Z" style="fill:#fff"></path>
      <path d="M234.07,79.45a.43.43,0,1,1-.42-.42A.42.42,0,0,1,234.07,79.45Z" style="fill:#fff"></path>
    </g>
    <path d="M207.9,77.58a1.23,1.23,0,1,1,1.23,1.23A1.23,1.23,0,0,1,207.9,77.58Z" style="fill:#fff"></path>
    <path d="M211.77,77.58A1.23,1.23,0,1,1,213,78.81,1.23,1.23,0,0,1,211.77,77.58Z" style="fill:#fff"></path>
    <path d="M215.64,77.58a1.23,1.23,0,1,1,1.23,1.23A1.23,1.23,0,0,1,215.64,77.58Z" style="fill:#fff"></path>
    <path d="M219.51,77.58a1.23,1.23,0,1,1,1.23,1.23A1.23,1.23,0,0,1,219.51,77.58Z" style="fill:#fff"></path>
    <path d="M223.38,77.58a1.23,1.23,0,1,1,1.23,1.23A1.23,1.23,0,0,1,223.38,77.58Z" style="fill:#fff"></path>
    <path d="M367.3,80.27h-10V75.63h10Zm-9.49-.51h9V76.14h-9Z" style="fill:#fff"></path>
    <rect x="358.13" y="76.42" width="6.45" height="3.06" style="fill:#fff"></rect>
    <rect x="367.31" y="76.71" width="0.89" height="2.48" style="fill:#fff"></rect>
    <path d="M355.68,106.73l-1.26,1-2.33-3.08-.85-1.13a2.15,2.15,0,0,0,.49-.27,2.08,2.08,0,0,0,.64-.84l.91,1.19Z" style="fill:#fff"></path>
    <path d="M353.2,99.47a3.44,3.44,0,1,0-1.11,5.13,3,3,0,0,0,.48-.31,3.11,3.11,0,0,0,.71-.74A3.44,3.44,0,0,0,353.2,99.47Zm-1.47,3.73a2.15,2.15,0,0,1-.49.27,2.05,2.05,0,1,1,1.13-1.11A2.08,2.08,0,0,1,351.73,103.2Z" style="fill:#fff"></path>
    <rect x="329.44" y="98.33" width="9.14" height="9.14" style="fill:#fff"></rect>
    <rect x="333.51" y="100.03" width="1" height="5.75" style="fill:#024ADF"></rect>
    <rect x="333.51" y="100.03" width="1" height="5.75" transform="translate(231.1 436.91) rotate(-90)" style="fill:#024ADF"></rect>
    <path d="M367.3,98.92a.79.79,0,1,1-.79-.79A.79.79,0,0,1,367.3,98.92Z" style="fill:#fff"></path>
    <path d="M367.3,103a.79.79,0,0,1-1.58,0,.79.79,0,1,1,1.58,0Z" style="fill:#fff"></path>
    <path d="M367.3,107.12a.79.79,0,1,1-1.58,0,.79.79,0,0,1,1.58,0Z" style="fill:#fff"></path>
    <rect x="195.81" y="119.47" width="185.4" height="28.63" style="fill:#ebebeb"></rect>
    <path d="M226,139.32a6.38,6.38,0,0,1-1.88.78,6.48,6.48,0,1,1,1.88-.78Z" style="fill:#024ADF"></path>
    <path d="M224.51,133a2,2,0,1,1-2-2A2,2,0,0,1,224.51,133Z" style="fill:#fff"></path>
    <path d="M226,138.5v.82a6.38,6.38,0,0,1-1.88.78,6.5,6.5,0,0,1-5-.78v-.82a3.42,3.42,0,0,1,6.84,0Z" style="fill:#fff"></path>
    <polygon points="263.36 138.09 254.76 138.09 258.27 133.79 254.76 129.49 263.36 129.49 266.87 133.79 263.36 138.09" style="fill:#fff"></polygon>
    <polygon points="241.26 129.49 242.66 132.32 245.78 132.77 243.52 134.98 244.06 138.09 241.26 136.62 238.47 138.09 239 134.98 236.74 132.77 239.86 132.32 241.26 129.49" style="fill:#024ADF"></polygon>
    <rect x="273.04" y="132.04" width="50.74" height="3.5" style="fill:#263238"></rect>
    <rect x="344.69" y="132.04" width="19.89" height="3.5" style="fill:#455a64"></rect>
    <path d="M226,168a6.38,6.38,0,0,1-1.88.78A6.48,6.48,0,1,1,226,168Z" style="fill:#455a64"></path>
    <path d="M224.51,161.68a2,2,0,1,1-2-2A2,2,0,0,1,224.51,161.68Z" style="fill:#fff"></path>
    <path d="M226,167.13V168a6.38,6.38,0,0,1-1.88.78,6.45,6.45,0,0,1-5-.78v-.82a3.42,3.42,0,0,1,6.84,0Z" style="fill:#fff"></path>
    <polygon points="263.36 166.72 254.76 166.72 258.27 162.42 254.76 158.12 263.36 158.12 266.87 162.42 263.36 166.72" style="fill:#fff"></polygon>
    <path d="M263.48,167h-9.25l3.72-4.55-3.72-4.55h9.25l3.71,4.55Zm-8.19-.5h8l3.3-4.05-3.3-4h-8l3.3,4Z" style="fill:#ebebeb"></path>
    <polygon points="241.26 158.12 242.66 160.95 245.78 161.4 243.52 163.61 244.06 166.72 241.26 165.25 238.47 166.72 239 163.61 236.74 161.4 239.86 160.95 241.26 158.12" style="fill:#024ADF"></polygon>
    <rect x="273.04" y="160.67" width="50.74" height="3.5" style="fill:#263238"></rect>
    <rect x="344.69" y="160.67" width="19.89" height="3.5" style="fill:#455a64"></rect>
    <rect x="195.81" y="176.73" width="185.4" height="28.63" style="fill:#ebebeb"></rect>
    <path d="M226,196.58a6.68,6.68,0,0,1-1.88.79,6.52,6.52,0,1,1,1.88-.79Z" style="fill:#024ADF"></path>
    <path d="M224.51,190.31a2,2,0,1,1-2-2A2,2,0,0,1,224.51,190.31Z" style="fill:#fff"></path>
    <path d="M226,195.76v.82a6.68,6.68,0,0,1-1.88.79,6.46,6.46,0,0,1-5-.79v-.82a3.42,3.42,0,0,1,6.84,0Z" style="fill:#fff"></path>
    <polygon points="263.36 195.35 254.76 195.35 258.27 191.05 254.76 186.75 263.36 186.75 266.87 191.05 263.36 195.35" style="fill:#fff"></polygon>
    <polygon points="241.26 186.75 242.66 189.58 245.78 190.03 243.52 192.24 244.06 195.35 241.26 193.88 238.47 195.35 239 192.24 236.74 190.03 239.86 189.58 241.26 186.75" style="fill:#fff"></polygon>
    <rect x="273.04" y="189.3" width="50.74" height="3.5" style="fill:#dbdbdb"></rect>
    <rect x="344.69" y="189.3" width="19.89" height="3.5" style="fill:#c7c7c7"></rect>
    <path d="M226,225.21a6.68,6.68,0,0,1-1.88.79,6.52,6.52,0,1,1,1.88-.79Z" style="fill:#a6a6a6"></path>
    <path d="M224.51,218.94a2,2,0,1,1-2-2A2,2,0,0,1,224.51,218.94Z" style="fill:#fff"></path>
    <path d="M226,224.4v.81a6.68,6.68,0,0,1-1.88.79,6.46,6.46,0,0,1-5-.79v-.81a3.42,3.42,0,1,1,6.84,0Z" style="fill:#fff"></path>
    <polygon points="263.36 223.98 254.76 223.98 258.27 219.68 254.76 215.38 263.36 215.38 266.87 219.68 263.36 223.98" style="fill:#fff"></polygon>
    <path d="M263.48,224.23h-9.25l3.72-4.55-3.72-4.55h9.25l3.71,4.55Zm-8.19-.5h8l3.3-4-3.3-4.05h-8l3.3,4.05Z" style="fill:#ebebeb"></path>
    <polygon points="241.26 215.38 242.66 218.21 245.78 218.67 243.52 220.87 244.06 223.98 241.26 222.51 238.47 223.98 239 220.87 236.74 218.67 239.86 218.21 241.26 215.38" style="fill:#024ADF"></polygon>
    <rect x="273.04" y="217.93" width="50.74" height="3.5" style="fill:#dbdbdb"></rect>
    <rect x="344.69" y="217.93" width="19.89" height="3.5" style="fill:#c7c7c7"></rect>
    <rect x="195.81" y="234" width="185.4" height="28.63" style="fill:#ebebeb"></rect>
    <path d="M226,253.84a6.68,6.68,0,0,1-1.88.79,6.52,6.52,0,1,1,1.88-.79Z" style="fill:#37474f"></path>
    <path d="M224.51,247.57a2,2,0,1,1-2-2A2,2,0,0,1,224.51,247.57Z" style="fill:#fff"></path>
    <path d="M226,253v.81a6.68,6.68,0,0,1-1.88.79,6.46,6.46,0,0,1-5-.79V253a3.42,3.42,0,0,1,6.84,0Z" style="fill:#fff"></path>
    <polygon points="263.36 252.61 254.76 252.61 258.27 248.31 254.76 244.01 263.36 244.01 266.87 248.31 263.36 252.61" style="fill:#fff"></polygon>
    <polygon points="241.26 244.01 242.66 246.84 245.78 247.3 243.52 249.5 244.06 252.61 241.26 251.14 238.47 252.61 239 249.5 236.74 247.3 239.86 246.84 241.26 244.01" style="fill:#024ADF"></polygon>
    <rect x="273.04" y="246.56" width="50.74" height="3.5" style="fill:#dbdbdb"></rect>
    <rect x="344.69" y="246.56" width="19.89" height="3.5" style="fill:#c7c7c7"></rect>
    <path d="M381.22,405.78v14a17.15,17.15,0,0,1-7.78,14.61H203.6a17.14,17.14,0,0,1-7.78-14.61v-14Z" style="fill:#ebebeb"></path>
    <path d="M226,425.63a6.68,6.68,0,0,1-1.88.79,6.52,6.52,0,1,1,1.88-.79Z" style="fill:#024ADF"></path>
    <path d="M224.51,419.36a2,2,0,1,1-2-2A2,2,0,0,1,224.51,419.36Z" style="fill:#fff"></path>
    <path d="M226,424.81v.82a6.68,6.68,0,0,1-1.88.79,6.5,6.5,0,0,1-5-.79v-.82a3.42,3.42,0,0,1,6.84,0Z" style="fill:#fff"></path>
    <polygon points="263.36 424.4 254.76 424.4 258.27 420.1 254.76 415.8 263.36 415.8 266.87 420.1 263.36 424.4" style="fill:#fff"></polygon>
    <polygon points="241.26 415.8 242.66 418.63 245.78 419.08 243.52 421.29 244.06 424.4 241.26 422.93 238.47 424.4 239 421.29 236.74 419.08 239.86 418.63 241.26 415.8" style="fill:#024ADF"></polygon>
    <rect x="273.04" y="418.35" width="50.74" height="3.5" style="fill:#dbdbdb"></rect>
    <rect x="344.69" y="418.35" width="19.89" height="3.5" style="fill:#c7c7c7"></rect>
    <path d="M226,282.47a6.51,6.51,0,0,1-9.74-4,6.51,6.51,0,1,1,9.74,4Z" style="fill:#263238"></path>
    <path d="M224.51,276.2a2,2,0,1,1-2-2A2,2,0,0,1,224.51,276.2Z" style="fill:#fff"></path>
    <path d="M226,281.66v.81a6.48,6.48,0,0,1-6.84,0v-.81a3.42,3.42,0,1,1,6.84,0Z" style="fill:#fff"></path>
    <polygon points="263.36 281.24 254.76 281.24 258.27 276.94 254.76 272.64 263.36 272.64 266.87 276.94 263.36 281.24" style="fill:#fff"></polygon>
    <path d="M263.48,281.49h-9.25l3.72-4.55-3.72-4.55h9.25l3.71,4.55Zm-8.19-.5h8l3.3-4.05-3.3-4.05h-8l3.3,4.05Z" style="fill:#ebebeb"></path>
    <polygon points="241.26 272.64 242.66 275.47 245.78 275.93 243.52 278.13 244.06 281.24 241.26 279.77 238.47 281.24 239 278.13 236.74 275.93 239.86 275.47 241.26 272.64" style="fill:#fff"></polygon>
    <path d="M244.39,281.7l-3.13-1.64-3.13,1.64.6-3.48-2.53-2.47,3.5-.5,1.56-3.17,1.56,3.17,3.5.5-2.53,2.47Zm-3.13-2.21,2.46,1.3-.47-2.75,2-1.94-2.76-.4-1.23-2.49L240,275.7l-2.75.4,2,1.94-.47,2.75Z" style="fill:#ebebeb"></path>
    <rect x="273.04" y="275.19" width="50.74" height="3.5" style="fill:#dbdbdb"></rect>
    <rect x="344.69" y="275.19" width="19.89" height="3.5" style="fill:#c7c7c7"></rect>
    <rect x="195.81" y="291.26" width="185.4" height="28.63" style="fill:#ebebeb"></rect>
    <path d="M226,311.11a6.66,6.66,0,0,1-1.88.78,6.5,6.5,0,1,1,4.78-7.86A6.52,6.52,0,0,1,226,311.11Z" style="fill:#024ADF"></path>
    <path d="M224.51,304.83a2,2,0,1,1-2-2A2,2,0,0,1,224.51,304.83Z" style="fill:#fff"></path>
    <path d="M226,310.29v.82a6.66,6.66,0,0,1-1.88.78,6.46,6.46,0,0,1-5-.79v-.81a3.42,3.42,0,1,1,6.84,0Z" style="fill:#fff"></path>
    <polygon points="263.36 309.88 254.76 309.88 258.27 305.57 254.76 301.27 263.36 301.27 266.87 305.57 263.36 309.88" style="fill:#fff"></polygon>
    <polygon points="241.26 301.27 242.66 304.11 245.78 304.56 243.52 306.76 244.06 309.88 241.26 308.41 238.47 309.88 239 306.76 236.74 304.56 239.86 304.11 241.26 301.27" style="fill:#024ADF"></polygon>
    <rect x="273.04" y="303.83" width="50.74" height="3.5" style="fill:#263238"></rect>
    <rect x="344.69" y="303.83" width="19.89" height="3.5" style="fill:#455a64"></rect>
    <path d="M226,339.74a6.38,6.38,0,0,1-1.88.78,6.5,6.5,0,1,1,4.78-7.86A6.52,6.52,0,0,1,226,339.74Z" style="fill:#024ADF"></path>
    <path d="M224.51,333.46a2,2,0,1,1-2-2A2,2,0,0,1,224.51,333.46Z" style="fill:#fff"></path>
    <path d="M226,338.92v.82a6.38,6.38,0,0,1-1.88.78,6.46,6.46,0,0,1-5-.79v-.81a3.42,3.42,0,1,1,6.84,0Z" style="fill:#fff"></path>
    <polygon points="263.36 338.51 254.76 338.51 258.27 334.21 254.76 329.91 263.36 329.91 266.87 334.21 263.36 338.51" style="fill:#fff"></polygon>
    <path d="M263.48,338.76h-9.25l3.72-4.55-3.72-4.55h9.25l3.71,4.55Zm-8.19-.5h8l3.3-4.05-3.3-4h-8l3.3,4Z" style="fill:#ebebeb"></path>
    <polygon points="241.26 329.91 242.66 332.74 245.78 333.19 243.52 335.39 244.06 338.51 241.26 337.04 238.47 338.51 239 335.39 236.74 333.19 239.86 332.74 241.26 329.91" style="fill:#fff"></polygon>
    <path d="M244.39,339l-3.13-1.64L238.13,339l.6-3.48L236.2,333l3.5-.51,1.56-3.17,1.56,3.17,3.5.51-2.53,2.46Zm-7.11-5.59,2,1.94-.47,2.74,2.46-1.3,2.46,1.3-.47-2.74,2-1.94-2.76-.41-1.23-2.49L240,333Z" style="fill:#ebebeb"></path>
    <rect x="273.04" y="332.46" width="50.74" height="3.5" style="fill:#dbdbdb"></rect>
    <rect x="344.69" y="332.46" width="19.89" height="3.5" style="fill:#c7c7c7"></rect>
    <rect x="195.81" y="348.52" width="185.4" height="28.63" style="fill:#ebebeb"></rect>
    <path d="M226,368.37a6.38,6.38,0,0,1-1.88.78,6.48,6.48,0,1,1,1.88-.78Z" style="fill:#455a64"></path>
    <path d="M224.51,362.09a2,2,0,1,1-2-2A2,2,0,0,1,224.51,362.09Z" style="fill:#fff"></path>
    <path d="M226,367.55v.82a6.38,6.38,0,0,1-1.88.78,6.5,6.5,0,0,1-5-.78v-.82a3.42,3.42,0,0,1,6.84,0Z" style="fill:#fff"></path>
    <polygon points="263.36 367.14 254.76 367.14 258.27 362.84 254.76 358.54 263.36 358.54 266.87 362.84 263.36 367.14" style="fill:#fff"></polygon>
    <polygon points="241.26 358.54 242.66 361.37 245.78 361.82 243.52 364.02 244.06 367.14 241.26 365.67 238.47 367.14 239 364.02 236.74 361.82 239.86 361.37 241.26 358.54" style="fill:#fff"></polygon>
    <rect x="273.04" y="361.09" width="50.74" height="3.5" style="fill:#dbdbdb"></rect>
    <rect x="344.69" y="361.09" width="19.89" height="3.5" style="fill:#c7c7c7"></rect>
    <path d="M226,397a6.38,6.38,0,0,1-1.88.78A6.48,6.48,0,1,1,226,397Z" style="fill:#a6a6a6"></path>
    <path d="M224.51,390.73a2,2,0,1,1-2-2A2,2,0,0,1,224.51,390.73Z" style="fill:#fff"></path>
    <path d="M226,396.18V397a6.38,6.38,0,0,1-1.88.78,6.45,6.45,0,0,1-5-.78v-.82a3.42,3.42,0,0,1,6.84,0Z" style="fill:#fff"></path>
    <polygon points="263.36 395.77 254.76 395.77 258.27 391.47 254.76 387.17 263.36 387.17 266.87 391.47 263.36 395.77" style="fill:#fff"></polygon>
    <path d="M263.48,396h-9.25l3.72-4.55-3.72-4.55h9.25l3.71,4.55Zm-8.19-.5h8l3.3-4-3.3-4.05h-8l3.3,4.05Z" style="fill:#ebebeb"></path>
    <polygon points="241.26 387.17 242.66 390 245.78 390.45 243.52 392.66 244.06 395.77 241.26 394.3 238.47 395.77 239 392.66 236.74 390.45 239.86 390 241.26 387.17" style="fill:#fff"></polygon>
    <path d="M244.39,396.23l-3.13-1.65-3.13,1.65.6-3.49-2.53-2.46,3.5-.51,1.56-3.17,1.56,3.17,3.5.51-2.53,2.46ZM241.26,394l2.46,1.29-.47-2.74,2-1.94-2.76-.4-1.23-2.5-1.23,2.5-2.75.4,2,1.94-.47,2.74Z" style="fill:#ebebeb"></path>
    <rect x="273.04" y="389.72" width="50.74" height="3.5" style="fill:#dbdbdb"></rect>
    <rect x="344.69" y="389.72" width="19.89" height="3.5" style="fill:#c7c7c7"></rect>
  </g>
</svg>
