<svg xmlns="http://www.w3.org/2000/svg" viewBox="0 0 500 500"><g id="freepik--Chair--inject-216"><path d="M47.73,372.74a469.1,469.1,0,0,0-.57-50.69c-2.47-40.33-7.73-93.6-2.85-104.79,3.38-7.78,16.49-18.43,17.62-20.42,2.23-3.9,9.78-26.37,13.43-31,6.16-7.79,34-7.62,38.47-2,8.25,10.59,9.92,29.14,13.23,32.73s28.11,13.29,31.46,22.47S147.86,249,147.68,254.66s26.58,69.22,27.49,83.32-13.12,34.4-13.12,34.4Z" style="fill:#a6a6a6"></path><path d="M162.05,372.39l-6.61,0h-.07S164,351.32,164,341s-24.77-75.47-24.64-86.19S155,230.27,153.8,221.23s-24.64-17.33-29.36-22-8.12-31.61-12.32-34.9-27.87-3.12-32,4-7.6,26.21-11,33.52S50.53,214,50,226.07s28,90.48,24.1,109.88S62.67,367.2,58.73,372.71h-2.4s11.23-27.43,11.49-39.2c.22-9.39-17.75-59-25-78.7h0c-.82-18-.75-32.33,1.53-37.55,3.38-7.77,16.48-18.41,17.63-20.4,2.22-3.91,9.77-26.39,13.43-31,6.16-7.8,34-7.63,38.46-2,8.25,10.59,9.92,29.14,13.24,32.73s28.1,13.29,31.45,22.47S147.85,249,147.69,254.66s26.57,69.22,27.48,83.32S162.05,372.39,162.05,372.39Z" style="fill:#ebebeb"></path><path d="M89.06,172.81c-3.89,2.09-8.75,22.49-6,23.62s9,.29,10.42-2.27S93.09,170.63,89.06,172.81Z" style="fill:#ebebeb"></path><path d="M106.67,171c3.89,2.1,8.75,22.49,6,23.63s-9,.28-10.42-2.27S102.64,168.84,106.67,171Z" style="fill:#ebebeb"></path></g><g id="freepik--Character--inject-216"><path d="M228.24,393.39H148c-6.85,0,3.06-19.49,28-27S236.12,386.08,228.24,393.39Z" style="fill:#37474f"></path><path d="M196.77,393.39a25.1,25.1,0,0,1,1.16-6.52,27.55,27.55,0,0,1,2.71-6.08,21.92,21.92,0,0,1,4.23-5.17,19.46,19.46,0,0,1,5.59-3.56c-.45.33-.9.64-1.36.95l-.67.46-.63.53-1.25,1-1.15,1.15a28.21,28.21,0,0,0-3.91,5.12,38.67,38.67,0,0,0-2.84,5.82q-.59,1.53-1.05,3.09C197.26,391.25,197,392.32,196.77,393.39Z" style="fill:#263238"></path><path d="M206.27,374.85a52.55,52.55,0,0,1,13.32,6.72,29.39,29.39,0,0,1,5.59,5,17.43,17.43,0,0,1,2.08,3.16,9.62,9.62,0,0,1,1,3.62,10.31,10.31,0,0,0-1.41-3.38,16.87,16.87,0,0,0-2.23-2.89,37.3,37.3,0,0,0-5.59-4.73c-2-1.44-4.1-2.72-6.22-4-1.06-.63-2.14-1.23-3.23-1.82S207.37,375.42,206.27,374.85Z" style="fill:#263238"></path><path d="M150.15,160c-15.6,9.47-24.18,29.17-24.18,29.17S108.89,207,109.55,219.06a21.1,21.1,0,0,0,9.69,17l.31-6.52s2.11,9,14.83,15.48,31.58,6.64,42,4.19a36.64,36.64,0,0,0,16.55-8.71l-5.67,8.21s13.22,2.71,24.37-9.35-6.35-37.5-7.21-42.27,4.35-36.81-30.05-39.39C174.38,157.73,160.88,153.5,150.15,160Z" style="fill:#263238"></path><path d="M114.65,234.12c-3.31-2.67-5.49-7.22-6.52-11.28A19.68,19.68,0,0,1,109,210c2.15-4.88,5.92-8.71,9.59-12.46s7.87-7.48,11.59-11.42c.21-.22-.12-.52-.35-.36A120.66,120.66,0,0,0,119,194.55a56.38,56.38,0,0,0-9.18,9.54,21.42,21.42,0,0,0-4.33,11.21,20.83,20.83,0,0,0,2,9.7c1.7,3.62,4.33,6.32,6.85,9.35C114.57,234.54,114.84,234.27,114.65,234.12Z" style="fill:#263238"></path><path d="M217.9,225.72c-1.16-12.54-9.8-22.4-13.69-34-2.11-6.3-3.3-13-6.62-18.82-.09-.15-.36,0-.27.16,2.63,5.16,3.5,10.81,5,16.35a86.77,86.77,0,0,0,6.54,16c4.65,9.46,10.26,20.65,6.09,31.3-1.92,4.91-6.28,9.81-11.88,10.14-.21,0-.17.37.05.33a16.76,16.76,0,0,0,11.29-6.93A21.28,21.28,0,0,0,217.9,225.72Z" style="fill:#263238"></path><path d="M217.63,229a21.94,21.94,0,0,0,.14-13.27c-1.38-4.28-4.32-7.84-7.33-11.1-3.47-3.76-7.2-7.43-8.77-12.42-.07-.21-.38-.08-.32.12,2.43,8.21,9.55,13.48,13.45,20.83,4.46,8.41,2,18.5-4.1,25.39a36.17,36.17,0,0,1-14,9.35.07.07,0,1,0,0,.14C205.85,244.75,214.65,238.54,217.63,229Z" style="fill:#263238"></path><path d="M149.06,256c7.71,33.58,23.32,76.09,35.38,84.66,9.72,6.92,71.31,26.25,74.15,26.56,7.05.71,22.55-54.4,15.25-56.42-9.2-2.55-65.08-5.7-67.57-8.26s-18.49-24.22-36.51-49.18C157.33,236.06,144.28,235.12,149.06,256Z" style="fill:#f7a9a0"></path><path d="M242.8,362.49c.93.48,14.18,7.14,22.37,9.51,6.11,1.77,23.83,6.4,26.45-.13,1.79-4.46-8.31-8.41-15.39-11.36-3.73-1.55-8.33-5.46-7.23-7.86,1.92-4.19,11.53,0,17.84,3.69,12.22,7.1,28.49,19.87,36,13.68,2.81-2.35-.46-6.61-5.25-10.79,7.77,4.87,16.07,8.87,19.3,6.39,1.85-1.41,1.94-3.35.91-5.56,2.4.78,4.52.63,6-.93,2.52-2.65,1.29-6.55-1.47-10.55a3,3,0,0,0,2.29-1.51c5.35-8.16-21.43-31.58-30.69-33.78-27.25-6.47-56.24-4.11-56.24-4.11C246.94,317.73,242.78,362.47,242.8,362.49Z" style="fill:#f7a9a0"></path><path d="M282.87,337.41a46.19,46.19,0,0,1,18.18,7c6.91,4.56,11.49,9.9,17.29,15.27.15.15-.07.39-.22.25-2.76-2.56-14.2-12.16-17.16-14.35a44,44,0,0,0-18.11-8.05A.06.06,0,0,1,282.87,337.41Z" style="fill:#263238"></path><path d="M288,325.84c7.16,2,14.5,3.94,21.15,7.33,7.27,3.71,13,9.75,18.56,15.57q5.05,5.24,9.85,10.7c.14.15-.07.39-.21.24q-8.52-9-17.58-17.51A58.33,58.33,0,0,0,300.44,330c-4.1-1.56-8.31-2.81-12.52-4C287.84,326,287.87,325.82,288,325.84Z" style="fill:#263238"></path><path d="M295.6,315.73c7,1.43,13,2.65,19.19,6.38,8.16,4.94,16,13.26,18.8,16.2,3.05,3.26,6,6.62,8.88,10,.12.14-.12.35-.24.21a231.41,231.41,0,0,0-21.23-21,45.73,45.73,0,0,0-11.87-7.72,82.61,82.61,0,0,0-13.54-4A0,0,0,0,1,295.6,315.73Z" style="fill:#263238"></path><path d="M205.89,297.6l-47-2s-8.54-23.3-11.68-44,14.49-13.26,31.94,9S205.89,297.6,205.89,297.6Z" style="fill:#37474f"></path><path d="M176.43,373.1l-2.85-47.72s12.84-14.2,10-27c-1.44-6.5-23.59-55.87-25.76-57.9-8.73-8.13-23.45-4.89-29.5-.32-33.47,25.3-57.06,79.59-68.39,133Z" style="fill:#024ADF"></path><path d="M176.43,373.1l-2.85-47.72s12.84-14.2,10-27c-1.44-6.5-23.59-55.87-25.76-57.9-8.73-8.13-23.45-4.89-29.5-.32-33.47,25.3-57.06,79.59-68.39,133Z" style="fill:#024ADF"></path><path d="M173.58,325.38l2.85,47.72H59.93c11.32-53.37,34.91-107.66,68.39-133a19.57,19.57,0,0,1,4.24-2.37c7.14-3,18.18-3.91,25.26,2.69,2.17,2,24.32,51.4,25.75,57.9C186.42,311.18,173.58,325.38,173.58,325.38Z" style="fill:#024ADF"></path><g style="opacity:0.1"><path d="M155.53,238.67H130.66a20.93,20.93,0,0,1,1.9-.9,28.39,28.39,0,0,1,3.78-1.28h14.53A18.14,18.14,0,0,1,155.53,238.67Z"></path><path d="M159.71,243.71H123.89c.88-.75,1.76-1.49,2.66-2.19h32C158.85,242.07,159.25,242.81,159.71,243.71Z"></path><path d="M162.21,248.74h-43.8c.75-.75,1.52-1.48,2.29-2.19h40.45Z"></path><path d="M164.6,253.77h-51c.67-.74,1.34-1.47,2-2.18h48Z"></path><path d="M166.93,258.8H109.24c.6-.74,1.21-1.46,1.83-2.18h54.86C166.25,257.33,166.59,258.06,166.93,258.8Z"></path><path d="M169.23,263.84H105.28l1.68-2.19h61.27Z"></path><path d="M171.48,268.87H101.66c.51-.74,1-1.47,1.54-2.19h67.3C170.83,267.41,171.16,268.14,171.48,268.87Z"></path><path d="M173.7,273.9H98.29c.47-.73.95-1.46,1.43-2.18h73C173.06,272.45,173.39,273.18,173.7,273.9Z"></path><path d="M175.89,278.93H95.15c.44-.73.89-1.46,1.34-2.18h78.45C175.27,277.48,175.58,278.21,175.89,278.93Z"></path><path d="M178,284H92.21c.42-.73.83-1.46,1.26-2.18h83.64C177.43,282.52,177.74,283.25,178,284Z"></path><path d="M180.14,289H89.44c.4-.74.79-1.47,1.19-2.19h88.6Z"></path><path d="M182.12,294H86.85c.36-.73.73-1.46,1.1-2.18h93.33C181.59,292.63,181.87,293.36,182.12,294Z"></path><path d="M183.7,299.06H84.39c.34-.73.69-1.46,1-2.18h97.7a14.86,14.86,0,0,1,.43,1.48C183.62,298.59,183.67,298.83,183.7,299.06Z"></path><path d="M184,301.91a17.65,17.65,0,0,1-.08,2.18H82.06l1-2.18Z"></path><path d="M183.45,306.94a20.72,20.72,0,0,1-.57,2.19h-103l.94-2.19Z"></path><path d="M181.89,312c-.3.75-.62,1.47-1,2.18H77.76c.29-.73.59-1.46.89-2.18Z"></path><path d="M179.45,317c-.43.77-.86,1.5-1.3,2.18H75.77c.28-.73.56-1.45.85-2.18Z"></path><path d="M176.22,322c-.64.89-1.22,1.63-1.66,2.18H73.89c.26-.73.52-1.46.79-2.18Z"></path><path d="M173.81,329.26H72.08c.26-.74.51-1.47.78-2.19H173.68Z"></path><path d="M174.11,334.29H70.38c.24-.73.48-1.46.73-2.18H174Z"></path><path d="M174.41,339.32H68.77c.22-.73.45-1.46.69-2.18H174.28Z"></path><path d="M174.71,344.35H67.23c.21-.73.43-1.45.66-2.18H174.58Z"></path><path d="M175,349.39H65.78c.2-.73.4-1.46.62-2.19H174.88Z"></path><path d="M175.31,354.42H64.4c.19-.73.38-1.45.59-2.18H175.18Z"></path><path d="M175.61,359.45H63.1c.17-.73.36-1.45.55-2.18H175.48Z"></path><path d="M175.92,364.48h-114c.17-.73.34-1.45.52-2.18H175.78Z"></path><path d="M176.22,369.52H60.71c.16-.73.32-1.46.49-2.19H176.09Z"></path><path d="M176.43,373.1H59.93c0-.24.1-.49.16-.73h116.3Z"></path></g><path d="M143.46,234.42c-7.49,1-7.22,5.35-2.71,13.23S152,258.8,155.57,258.8c2.55,0,7.53-5.83,6.29-12.25C160.21,238,151.8,233.36,143.46,234.42Z" style="fill:#37474f"></path><path d="M162.73,241.67s-2.91,14.19-7.45,14.19c-8.46,0-16-16-15.95-18.22,0-.56,4.78-13.27,8.5-23.14,2.39-6.35,4.36-11.52,4.36-11.52L171.81,224l-8.46,16.46Z" style="fill:#f7a9a0"></path><path d="M171.81,224l-8.46,16.46a37.1,37.1,0,0,1-15.52-26c2.39-6.35,4.36-11.52,4.36-11.52l2.52,2.52Z" style="fill:#263238"></path><ellipse cx="196.16" cy="207.44" rx="13.71" ry="12.03" transform="translate(-44.78 360.6) rotate(-79.04)" style="fill:#024ADF"></ellipse><path d="M180.43,204.88c-1.6,8.27,3,16.11,10.24,17.52s14.43-4.16,16-12.43-3-16.11-10.23-17.52S182,196.61,180.43,204.88Z" style="fill:#c7c7c7"></path><path d="M203.79,204.34c-5.43,32-25.23,32.39-32.13,31.22-6.27-1.08-27.48-5.52-25.39-37.94s18.71-40,33.17-38.32S209.22,172.31,203.79,204.34Z" style="fill:#f7a9a0"></path><path d="M200.2,198.43a18.65,18.65,0,0,1-2.24.09,3.57,3.57,0,0,1-2.3-.34,1.16,1.16,0,0,1-.35-1.37,2.85,2.85,0,0,1,2.58-1.34,4.22,4.22,0,0,1,2.92.79A1.23,1.23,0,0,1,200.2,198.43Z" style="fill:#263238"></path><path d="M176.92,193.31c.63.43,1.29.73,2,1.1a3.56,3.56,0,0,0,2.21.73,1.14,1.14,0,0,0,.92-1.06,2.84,2.84,0,0,0-1.68-2.36,4.22,4.22,0,0,0-3-.62A1.23,1.23,0,0,0,176.92,193.31Z" style="fill:#263238"></path><path d="M178.21,200.55c-4.14-1.24-6.31,7.14-2.47,8.28S181.68,201.59,178.21,200.55Z" style="fill:#e07f69;opacity:0.8"></path><path d="M179.89,202.88c0-.08-.19.07-.2.16-.41,2.17-1.23,4.6-3.34,4.89-.07,0-.09.12,0,.12C178.8,208.24,179.86,205,179.89,202.88Z" style="fill:#263238"></path><path d="M178.46,200.2c-3.42-1-5.21,5.89-2.05,6.84S181.32,201.06,178.46,200.2Z" style="fill:#263238"></path><path d="M177,200.22c-.71.23-1.48.77-2.23.65s-1.31-1-1.68-1.86c0-.09-.11,0-.14.05-.36,1.32-.2,2.81,1.16,3.37s2.49-.41,3.16-1.66C177.41,200.54,177.29,200.12,177,200.22Z" style="fill:#263238"></path><path d="M195.4,203.74c-3.62-.62-4.81,7.95-1.45,8.52S198.44,204.26,195.4,203.74Z" style="fill:#e07f69;opacity:0.8"></path><path d="M192.64,205.33c0-.08.14.14.11.23-.64,2.12-1,4.65.73,5.88.05,0,0,.14,0,.11C191.16,210.59,191.69,207.23,192.64,205.33Z" style="fill:#263238"></path><path d="M195.14,203.6c3.51.66,1.94,7.63-1.31,7S192.2,203.05,195.14,203.6Z" style="fill:#263238"></path><path d="M196.49,204.39c.47.49.86,1.29,1.51,1.48s1.48-.4,2.13-1c.07-.06.11,0,.1.1-.27,1.34-1,2.63-2.36,2.6s-1.82-1.37-1.83-2.77C196,204.52,196.3,204.19,196.49,204.39Z" style="fill:#263238"></path><path d="M175.77,219.52c.35.65.65,1.49,1.39,1.79a5.73,5.73,0,0,0,2.44.17.08.08,0,0,1,.06.14,3,3,0,0,1-3,.32,2.38,2.38,0,0,1-1.09-2.38C175.54,219.42,175.72,219.43,175.77,219.52Z" style="fill:#263238"></path><path d="M186.66,214s-.35,3.31-.72,4.83c0,.14-.42.11-.94,0,0,0,0,0-.06,0a7.39,7.39,0,0,1-6.32-4.4.16.16,0,0,1,.28-.16,11.09,11.09,0,0,0,6.1,3.5c.21-.39.41-5.7.65-5.66a13.67,13.67,0,0,1,3.24,1.63c.93-6.89.74-13.87,1.77-20.71a.21.21,0,0,1,.42,0c.71,7.3-.18,15.25-1,22.39C190,216.29,187.2,214.38,186.66,214Z" style="fill:#263238"></path><path d="M184.2,217.77a8.14,8.14,0,0,1-3.68,1.89,3.74,3.74,0,0,1-2.22-.28c-1.51-.71-1.28-2.18-.75-3.37a8.28,8.28,0,0,1,1.07-1.77A10.6,10.6,0,0,0,184.2,217.77Z" style="fill:#263238"></path><path d="M180.52,219.66a3.74,3.74,0,0,1-2.22-.28c-1.51-.71-1.28-2.18-.75-3.37C179.21,216.51,180.68,218,180.52,219.66Z" style="fill:#dd6a57"></path><path d="M147.44,194.92c3.44.83,15.07-5.78,20.31-22,0,0-5.72,14.25-7.47,16.06s6.51-3.73,10.92-16.76c0,0,5.68,7.48,11.36,11.12s9.5,4.74,10.08,4.42-7.68-6-9.28-9.58c0,0,14.18,12.72,21.62,15.62.86.34,2.24-13.85-7.19-25.13s-25.41-12.28-31.91-9c0,0-6.14-1-15.2,5.79S143.74,194,147.44,194.92Z" style="fill:#263238"></path><path d="M151,201s-4.31-11.6-9.4-10.31-3.63,16.85,1.09,20.16a5.49,5.49,0,0,0,7.87-1Z" style="fill:#f7a9a0"></path><path d="M142.08,195.09a.07.07,0,0,0-.07.13c3.28,2.44,4.33,6.34,4.76,10.22-.74-1.64-2-2.77-4.18-1.95-.11,0-.06.22,0,.22a3.39,3.39,0,0,1,3.3,2.08,16.18,16.18,0,0,1,1,3.36c.08.37.72.35.69-.06a.28.28,0,0,0,0-.09C148.9,204.35,147,196.87,142.08,195.09Z" style="fill:#263238"></path><path d="M146,210.18a1.13,1.13,0,1,1-.78-1.41A1.14,1.14,0,0,1,146,210.18Z" style="fill:#fff"></path><path d="M143.43,207.4a.71.71,0,0,1-.88.5.72.72,0,1,1,.39-1.38A.71.71,0,0,1,143.43,207.4Z" style="fill:#fff"></path><path d="M140.29,197l-2.27-.09a.46.46,0,0,1-.44-.47h0a.46.46,0,0,1,.47-.44l2.27.09a.47.47,0,0,1,.44.48h0A.45.45,0,0,1,140.29,197Z" style="fill:#024ADF"></path><path d="M140.4,195.5l-2.24-.41a.45.45,0,0,1-.36-.53h0a.44.44,0,0,1,.53-.36l2.23.41a.47.47,0,0,1,.37.53h0A.45.45,0,0,1,140.4,195.5Z" style="fill:#024ADF"></path><path d="M146.32,191.76s1.32-16.52,7.43-24.83c6.81-9.26,29.16-12.81,42.68.21,0,0-22.81-10.78-36.32,1.46-5.69,5.15-8.39,24.4-8.39,24.4Z" style="fill:#c7c7c7"></path><path d="M160.42,202.27c-1.14,8.35-8,14.3-15.32,13.3s-12.33-8.58-11.19-16.92,8-14.3,15.33-13.3S161.57,193.93,160.42,202.27Z" style="fill:#c7c7c7"></path><path d="M156.63,201.27c-1,7.5-7.2,12.85-13.78,11.95s-11.08-7.71-10-15.21,7.19-12.85,13.77-11.95S157.65,193.77,156.63,201.27Z" style="fill:#024ADF"></path><polygon points="168.31 227 158.27 222.5 150.31 212.27 151.88 211.04 159.54 220.88 169.12 225.18 168.31 227" style="fill:#c7c7c7"></polygon><path d="M167.25,225.37c1-2.92,9.26-1.71,7.7,2.72S166.22,228.31,167.25,225.37Z" style="fill:#37474f"></path><path d="M118.68,247.18c-19.38,20.76-72.36,96-56.5,109.34,26.07,22,54.92,25.87,72.56,28.23,7.61,1,23.51-48.6,18.51-55.11s-38.66-5.41-39.17-10.41c-.28-2.84,12-26.33,20.33-56.45C144,228,127.24,238,118.68,247.18Z" style="fill:#f7a9a0"></path><path d="M132.24,324.6s23.29-1.7,38.57-2.1c8.53-.22,23.18.7,29.52,3.41,9.48,4,46.56,27,41.18,36.11-4.86,8.25-34.21-15.53-34.21-15.53s31.74,21.37,24,30.22-37.26-22.41-37.26-22.41S226.2,377,216.83,384.86c-7.07,5.95-35.47-20.86-35.47-20.86s27.47,19.69,20.45,26.12c-7.75,7.11-35.51-16-35.51-16-20.58,13.35-35.85,11.29-46.53,8.53C117.19,382,132.24,324.6,132.24,324.6Z" style="fill:#f7a9a0"></path><path d="M196.8,338.4c3.82,2.38,7.7,4.75,11.3,7.46s7.09,5.54,10.42,8.57c8.16,7.43,12.1,13.36,11.82,13-6.71-8-19.42-17.92-23-20.63s-7-5.58-10.62-8.29C196.6,338.46,196.71,338.34,196.8,338.4Z" style="fill:#263238"></path><path d="M186.79,351.2c4.75,3.24,9.58,6.29,14.18,9.75s8.62,7.1,13,10.84c.33.29.07.37-.28.1-4.48-3.57-8.89-6.53-13.41-10s-8.91-7.21-13.53-10.54C186.64,351.26,186.72,351.15,186.79,351.2Z" style="fill:#263238"></path><path d="M176.23,360.64c7.5,4.59,14.15,10.55,20.54,16.56.31.3,0,.37-.38.08-6.73-5.63-12-10.1-20.32-16.38C175.94,360.8,176.07,360.55,176.23,360.64Z" style="fill:#263238"></path><path d="M211.12,330.18c-4.92-3-10.16-5.63-15.9-6.63a80.66,80.66,0,0,0-10.3-.84c-3.61-.15-7.23-.19-10.84-.33-.1,0-.09.15,0,.16,3,.25,6.08.61,9.13.84s5.87.4,8.78.78a37.79,37.79,0,0,1,8.32,2,47.41,47.41,0,0,1,7.35,3.56c4.92,2.85,28.22,19,33.14,27a5.8,5.8,0,0,1,.85,4.21,3.42,3.42,0,0,1-2.54,2.7c-.2,0,0,.17.21.14,2.11-.28,3-2.16,3.29-4.15C243.61,351.72,216.35,333.4,211.12,330.18Z" style="fill:#263238"></path><path d="M79,296.14l47-1.56s8.76-23.22,12.09-43.88-13.59-14.35-31.25,7.77S79,296.14,79,296.14Z" style="fill:#37474f"></path></g><g id="freepik--Device--inject-216"><rect x="232.9" y="376.49" width="8.75" height="5.72" style="fill:#455a64"></rect><rect x="244.25" y="376.11" width="8.75" height="5.72" style="fill:#455a64"></rect><rect x="255.6" y="375.73" width="8.75" height="5.72" style="fill:#455a64"></rect><rect x="266.95" y="375.35" width="8.75" height="5.72" style="fill:#455a64"></rect><rect x="278.31" y="374.98" width="8.75" height="5.72" style="fill:#455a64"></rect><rect x="289.66" y="374.6" width="8.75" height="5.72" style="fill:#455a64"></rect><rect x="301.01" y="374.22" width="8.75" height="5.72" style="fill:#455a64"></rect><rect x="312.37" y="373.84" width="8.75" height="5.72" style="fill:#455a64"></rect><rect x="323.72" y="373.47" width="8.75" height="5.72" style="fill:#455a64"></rect><polygon points="334.62 385.49 230.75 385.49 230.75 378.54 334.62 375.64 334.62 385.49" style="fill:#37474f"></polygon><polygon points="433.32 362.92 262.12 362.92 289.34 235.46 460.54 235.46 433.32 362.92" style="fill:#455a64"></polygon><polygon points="439.65 362.92 268.45 362.92 295.68 235.46 466.88 235.46 439.65 362.92" style="fill:#37474f"></polygon><ellipse cx="371.87" cy="291.81" rx="11.46" ry="9.78" transform="translate(-99.29 329.84) rotate(-42.74)" style="fill:#263238"></ellipse><polygon points="391.23 396.21 307.03 396.21 307.03 389.67 391.23 386.94 391.23 396.21" style="fill:#455a64"></polygon><polygon points="414.12 396.2 368.92 396.2 341.69 324.78 386.9 324.78 414.12 396.2" style="fill:#455a64"></polygon><polygon points="421.56 396.2 376.36 396.2 349.13 324.78 394.34 324.78 421.56 396.2" style="fill:#263238"></polygon><path d="M279.6,244.39c-4.8-1.89-9.55-3.88-14.29-5.89s-9.45-4.08-14.18-6.12S241.72,228.19,237,226l-7-3.24c-2.33-1.12-4.66-2.2-7-3.35,2.4.94,4.77,1.93,7.16,2.9l7.13,3c4.74,2,9.45,4.08,14.17,6.12s9.41,4.19,14.09,6.34S275,242.12,279.6,244.39Z" style="fill:#263238"></path><path d="M271.33,283c-4.38.21-8.77.3-13.15.38s-8.77.08-13.15.12-8.77,0-13.15-.11l-6.58-.14c-2.19-.09-4.38-.14-6.57-.25,2.19-.11,4.38-.16,6.57-.24l6.58-.14c4.38-.08,8.77-.08,13.15-.12s8.77,0,13.15.12S267,282.76,271.33,283Z" style="fill:#263238"></path><path d="M237.27,237.94c3.42.7,6.8,1.52,10.18,2.35s6.75,1.71,10.11,2.61,6.71,1.83,10.05,2.83l5,1.49c1.66.54,3.33,1,5,1.6-1.71-.34-3.41-.75-5.11-1.12l-5.07-1.23c-3.39-.82-6.75-1.71-10.11-2.61S250.59,242,247.25,241,240.58,239,237.27,237.94Z" style="fill:#263238"></path><path d="M235.55,191c4.43,3.55,8.79,7.18,13.13,10.82s8.63,7.35,12.95,11,8.57,7.43,12.81,11.2l6.34,5.66c2.1,1.91,4.21,3.8,6.28,5.74-2.22-1.77-4.4-3.58-6.6-5.37l-6.53-5.45c-4.34-3.64-8.63-7.35-12.95-11s-8.56-7.43-12.8-11.2S239.71,194.9,235.55,191Z" style="fill:#263238"></path><path d="M232.9,293.38c3.46-.63,6.94-1.15,10.42-1.65s7-1,10.45-1.39,7-.83,10.48-1.16l5.25-.5c1.75-.13,3.5-.3,5.26-.4-1.73.33-3.47.59-5.2.88l-5.22.78c-3.48.51-7,.95-10.45,1.39s-7,.82-10.48,1.16S236.41,293.16,232.9,293.38Z" style="fill:#263238"></path><path d="M227.09,256.8c4.31.57,8.59,1.26,12.88,1.95s8.54,1.48,12.82,2.22,8.53,1.58,12.78,2.44l6.38,1.3c2.12.47,4.24.9,6.36,1.4-2.16-.27-4.3-.61-6.45-.92l-6.42-1c-4.29-.69-8.55-1.47-12.83-2.21s-8.53-1.59-12.78-2.44S231.33,257.78,227.09,256.8Z" style="fill:#263238"></path><path d="M266,207.11c1.81,1.71,3.55,3.48,5.27,5.27s3.4,3.62,5.07,5.45,3.31,3.7,4.91,5.6l2.39,2.86c.77,1,1.56,1.93,2.31,2.92-.92-.84-1.79-1.73-2.68-2.59l-2.6-2.67c-1.73-1.78-3.4-3.62-5.07-5.45s-3.31-3.7-4.9-5.6S267.46,209.09,266,207.11Z" style="fill:#263238"></path></g><g id="freepik--Icons--inject-216"><rect x="193.73" y="136.47" width="137.53" height="12.4" style="fill:#ebebeb"></rect><rect x="196.22" y="138.54" width="116.85" height="8.45" style="fill:#024ADF"></rect><path d="M183.94,143.37c-1.87,3.43-6.35,6.45-6.35,6.45s-4.49-3-6.34-6.45c-2.12-3.88-.95-7.84,2.08-7.84,3.38,0,4.26,4.22,4.26,4.22s.89-4.22,4.25-4.22C184.88,135.53,186.05,139.49,183.94,143.37Z" style="fill:#ebebeb"></path><path d="M163.35,143.37c-1.87,3.43-6.35,6.45-6.35,6.45s-4.48-3-6.34-6.45c-2.11-3.88-.95-7.84,2.08-7.84,3.38,0,4.26,4.22,4.26,4.22s.89-4.22,4.26-4.22C164.29,135.53,165.46,139.49,163.35,143.37Z" style="fill:#024ADF"></path><path d="M142.77,143.37c-1.87,3.43-6.36,6.45-6.36,6.45s-4.48-3-6.34-6.45c-2.11-3.88-.95-7.84,2.08-7.84,3.39,0,4.26,4.22,4.26,4.22s.89-4.22,4.26-4.22C143.7,135.53,144.88,139.49,142.77,143.37Z" style="fill:#024ADF"></path></g></svg>