<svg xmlns="http://www.w3.org/2000/svg" viewBox="0 0 500 500"><g id="freepik--Plant--inject-59"><path d="M409.13,360.17c14.57,14.26,17,36.33,13.94,55.66-.08.44-.76.32-.76-.09,0-4.4.14-8.76.12-13.11-.08-.2-.14-.39-.22-.59-3.8-2.76-7.3-5.88-9.47-10.17-2.43-4.78-3.39-10.18-5.25-15.18-.17-.48.34-.34.67-.09,8.87,6.54,11.69,13.57,14.23,23a78.27,78.27,0,0,0-1.54-14.64c-1.91-8.92-5.7-17.76-12.11-24.38A.27.27,0,0,1,409.13,360.17Z" style="fill:#263238"></path><path d="M406.39,361.83c-2.51.09-4.08,4.09-6,5.26a1.89,1.89,0,0,1-2.77-.43c-1.94-2.71.72-6,3.22-7.9-1.79.73-3.27,2-5.2,2.39a1.81,1.81,0,0,1-2.34-1.41c-.85-3.68,3.77-5.32,6.94-5.4-1.54-1.06-5.94-4-3.6-5.4s7.54,2.72,9.23,4.09c2.47,2,5.43,5,5.54,8.16C411.53,364.86,408.32,362.6,406.39,361.83Z" style="fill:#024ADF"></path><path d="M406.39,361.83c-2.51.09-4.08,4.09-6,5.26a1.89,1.89,0,0,1-2.77-.43c-1.94-2.71.72-6,3.22-7.9-1.79.73-3.27,2-5.2,2.39a1.81,1.81,0,0,1-2.34-1.41c-.85-3.68,3.77-5.32,6.94-5.4-1.54-1.06-5.94-4-3.6-5.4s7.54,2.72,9.23,4.09c2.47,2,5.43,5,5.54,8.16C411.53,364.86,408.32,362.6,406.39,361.83Z" style="opacity:0.1"></path><path d="M407.11,362.45c-3.2-1.46-9.36.64-9.88-.57-1.06-2.47,3.86-4.17,6.51-4.49-2.44-.67-7.13-1.72-7-4.08.18-2.88,7.19-.4,10.74,2.32,4.47,3.43,4.44,6.73,3.7,7.4C410.18,363.93,407.64,362.69,407.11,362.45Z" style="fill:#024ADF"></path><path d="M442.31,358.76c-15.1,13.7-18.39,35.66-16.05,55.09.06.44.74.35.76-.07.16-4.39.2-8.76.38-13.1l.24-.58c3.91-2.61,7.52-5.6,9.85-9.8,2.61-4.69,3.77-10.05,5.82-15,.2-.47-.32-.35-.66-.12-9.11,6.2-12.2,13.12-15.1,22.42a79,79,0,0,1,2.1-14.57c2.25-8.84,6.37-17.53,13-23.9C442.93,358.91,442.57,358.51,442.31,358.76Z" style="fill:#263238"></path><path d="M445,360.52c2.5.18,3.92,4.24,5.83,5.49a1.88,1.88,0,0,0,2.78-.33c2-2.63-.49-6.06-2.91-8,1.75.8,3.18,2.15,5.09,2.59a1.81,1.81,0,0,0,2.4-1.32c1-3.64-3.57-5.46-6.73-5.66,1.58-1,6.09-3.74,3.8-5.26s-7.63,2.43-9.37,3.74c-2.55,1.91-5.62,4.8-5.85,7.94C439.73,363.35,443,361.22,445,360.52Z" style="fill:#024ADF"></path><path d="M445,360.52c2.5.18,3.92,4.24,5.83,5.49a1.88,1.88,0,0,0,2.78-.33c2-2.63-.49-6.06-2.91-8,1.75.8,3.18,2.15,5.09,2.59a1.81,1.81,0,0,0,2.4-1.32c1-3.64-3.57-5.46-6.73-5.66,1.58-1,6.09-3.74,3.8-5.26s-7.63,2.43-9.37,3.74c-2.55,1.91-5.62,4.8-5.85,7.94C439.73,363.35,443,361.22,445,360.52Z" style="opacity:0.1"></path><path d="M444.23,361.11c3.26-1.33,9.33,1,9.9-.19,1.16-2.43-3.69-4.31-6.34-4.74,2.47-.57,7.2-1.45,7.14-3.81-.06-2.88-7.16-.67-10.81,1.91-4.6,3.26-4.7,6.56-4,7.25C441.11,362.48,443.7,361.33,444.23,361.11Z" style="fill:#024ADF"></path><path d="M426.87,394.94a149.51,149.51,0,0,1-4.69,21.66.54.54,0,0,1-1.06-.21c1-6.68,2.8-13.23,3.79-19.91a99.8,99.8,0,0,0,1.16-20.43c-.63-11.25-3.69-23.21-11-32-.16-.2.18-.5.35-.31,14.69,17.14,12.36,38.15,12.34,40,2.08-7.09,4.23-15.22,12.1-22.45.34-.31.6-.16.55.37-1.41,13.16-5.07,20-12.7,27.06C427.47,390.81,427.2,392.89,426.87,394.94Z" style="fill:#263238"></path><path d="M414.91,346c-2.64-1.18-6.29,2.19-8.91,2.42a2.17,2.17,0,0,1-2.65-1.85c-.65-3.77,3.79-5.9,7.32-6.57-2.23-.14-4.41.45-6.59-.14a2.08,2.08,0,0,1-1.73-2.63c1-4.25,6.59-3.63,9.92-2.11-1.06-1.88-4.17-7.12-1-7.42s6.46,6.62,7.52,8.89c1.56,3.33,3.11,7.93,1.64,11.25C418.72,351.73,416.52,347.77,414.91,346Z" style="fill:#024ADF"></path><path d="M414.91,346c-2.64-1.18-6.29,2.19-8.91,2.42a2.17,2.17,0,0,1-2.65-1.85c-.65-3.77,3.79-5.9,7.32-6.57-2.23-.14-4.41.45-6.59-.14a2.08,2.08,0,0,1-1.73-2.63c1-4.25,6.59-3.63,9.92-2.11-1.06-1.88-4.17-7.12-1-7.42s6.46,6.62,7.52,8.89c1.56,3.33,3.11,7.93,1.64,11.25C418.72,351.73,416.52,347.77,414.91,346Z" style="opacity:0.1"></path><path d="M415.35,347c-2.59-3.12-10-4.05-10-5.57.14-3.09,6.1-2.38,9-1.38-2.2-1.92-6.53-5.37-5.2-7.75,1.64-2.9,7.66,3.2,10,7.81,2.91,5.81,1.21,9.23.11,9.54C417.78,350.1,415.78,347.53,415.35,347Z" style="fill:#024ADF"></path><path d="M436.53,398.9,443,448.42H403.58c.81-4.39,8.15-49.58,8.15-49.58Z" style="fill:#024ADF"></path></g></svg>