<svg xmlns="http://www.w3.org/2000/svg" xmlns:xlink="http://www.w3.org/1999/xlink" width="170" zoomAndPan="magnify" viewBox="0 0 127.5 127.499994" height="170" preserveAspectRatio="xMidYMid meet" version="1.0"><defs><clipPath id="6e5a8d53bd"><path d="M 1.480469 1.480469 L 124.839844 1.480469 L 124.839844 124.839844 L 1.480469 124.839844 Z M 1.480469 1.480469 " clip-rule="nonzero"/></clipPath><clipPath id="380381e188"><path d="M 65.273438 3.082031 L 70.375 10.527344 C 71.539062 12.230469 73.863281 12.664062 75.566406 11.496094 L 82.992188 6.414062 C 83.691406 5.933594 84.578125 5.832031 85.367188 6.136719 C 86.152344 6.441406 86.738281 7.113281 86.933594 7.9375 L 89.015625 16.738281 C 89.492188 18.746094 91.5 19.992188 93.511719 19.523438 L 102.257812 17.476562 C 103.082031 17.285156 103.945312 17.507812 104.570312 18.078125 C 105.199219 18.648438 105.503906 19.488281 105.386719 20.328125 L 104.164062 29.289062 C 103.882812 31.335938 105.308594 33.226562 107.355469 33.515625 L 116.246094 34.78125 C 117.082031 34.902344 117.808594 35.425781 118.1875 36.183594 C 118.566406 36.941406 118.546875 37.835938 118.136719 38.578125 L 113.773438 46.484375 C 112.773438 48.296875 113.421875 50.574219 115.226562 51.585938 L 123.066406 55.996094 C 123.804688 56.410156 124.292969 57.164062 124.371094 58.007812 C 124.449219 58.851562 124.109375 59.679688 123.457031 60.222656 L 116.554688 66.007812 C 114.96875 67.335938 114.75 69.691406 116.0625 71.289062 L 121.796875 78.253906 C 122.335938 78.90625 122.519531 79.785156 122.285156 80.597656 C 122.054688 81.414062 121.4375 82.0625 120.632812 82.335938 L 112.125 85.21875 C 110.164062 85.882812 109.109375 88.003906 109.761719 89.964844 L 112.605469 98.546875 C 112.871094 99.351562 112.726562 100.234375 112.214844 100.910156 C 111.703125 101.585938 110.894531 101.964844 110.046875 101.925781 L 101.078125 101.53125 C 99.015625 101.4375 97.265625 103.03125 97.167969 105.097656 L 96.734375 114.132812 C 96.691406 114.976562 96.238281 115.746094 95.519531 116.191406 C 94.800781 116.636719 93.910156 116.699219 93.136719 116.359375 L 84.910156 112.730469 C 83.023438 111.898438 80.816406 112.753906 79.980469 114.640625 L 76.328125 122.90625 C 75.984375 123.675781 75.285156 124.230469 74.457031 124.386719 C 73.625 124.542969 72.773438 124.277344 72.175781 123.679688 L 65.800781 117.308594 C 65.101562 116.605469 64.152344 116.214844 63.160156 116.214844 C 62.171875 116.214844 61.21875 116.605469 60.519531 117.308594 L 54.148438 123.679688 C 53.550781 124.277344 52.695312 124.542969 51.867188 124.386719 C 51.035156 124.230469 50.335938 123.675781 49.996094 122.90625 L 46.339844 114.640625 C 45.503906 112.753906 43.300781 111.898438 41.410156 112.730469 L 33.1875 116.359375 C 32.414062 116.699219 31.519531 116.636719 30.800781 116.191406 C 30.082031 115.746094 29.628906 114.976562 29.589844 114.132812 L 29.152344 105.097656 C 29.054688 103.03125 27.304688 101.4375 25.242188 101.53125 L 16.273438 101.925781 C 15.425781 101.964844 14.617188 101.585938 14.105469 100.910156 C 13.597656 100.234375 13.449219 99.351562 13.714844 98.546875 L 16.5625 89.964844 C 17.210938 88.003906 16.15625 85.882812 14.199219 85.21875 L 5.6875 82.335938 C 4.886719 82.0625 4.269531 81.414062 4.035156 80.597656 C 3.804688 79.785156 3.984375 78.90625 4.523438 78.253906 L 10.257812 71.289062 C 11.574219 69.691406 11.355469 67.335938 9.769531 66.007812 L 2.863281 60.222656 C 2.214844 59.679688 1.871094 58.851562 1.949219 58.007812 C 2.027344 57.164062 2.515625 56.410156 3.257812 55.996094 L 11.097656 51.585938 C 12.898438 50.574219 13.546875 48.296875 12.546875 46.484375 L 8.183594 38.578125 C 7.773438 37.835938 7.757812 36.941406 8.132812 36.183594 C 8.511719 35.425781 9.238281 34.902344 10.078125 34.78125 L 18.96875 33.515625 C 21.011719 33.226562 22.4375 31.335938 22.160156 29.289062 L 20.933594 20.328125 C 20.820312 19.488281 21.125 18.648438 21.75 18.078125 C 22.375 17.507812 23.242188 17.285156 24.066406 17.476562 L 32.808594 19.523438 C 34.820312 19.992188 36.832031 18.746094 37.304688 16.738281 L 39.386719 7.9375 C 39.582031 7.113281 40.167969 6.441406 40.957031 6.136719 C 41.746094 5.832031 42.632812 5.933594 43.328125 6.414062 L 50.753906 11.496094 C 52.457031 12.664062 54.78125 12.230469 55.949219 10.527344 L 61.050781 3.082031 C 61.527344 2.386719 62.316406 1.96875 63.160156 1.96875 C 64.003906 1.96875 64.796875 2.386719 65.273438 3.082031 Z M 65.273438 3.082031 " clip-rule="nonzero"/></clipPath><clipPath id="314ea45a4f"><path d="M 0.671875 0.914062 L 123.550781 0.914062 L 123.550781 123.550781 L 0.671875 123.550781 Z M 0.671875 0.914062 " clip-rule="nonzero"/></clipPath><clipPath id="8581b89344"><path d="M 64.273438 2.082031 L 69.375 9.527344 C 70.539062 11.230469 72.863281 11.664062 74.566406 10.496094 L 81.992188 5.414062 C 82.691406 4.933594 83.578125 4.832031 84.367188 5.136719 C 85.152344 5.441406 85.738281 6.113281 85.933594 6.9375 L 88.015625 15.738281 C 88.492188 17.746094 90.5 18.992188 92.511719 18.523438 L 101.257812 16.476562 C 102.082031 16.285156 102.945312 16.507812 103.570312 17.078125 C 104.199219 17.648438 104.503906 18.488281 104.386719 19.328125 L 103.164062 28.289062 C 102.882812 30.335938 104.308594 32.226562 106.355469 32.515625 L 115.246094 33.78125 C 116.082031 33.902344 116.808594 34.425781 117.1875 35.183594 C 117.566406 35.941406 117.546875 36.835938 117.136719 37.578125 L 112.773438 45.484375 C 111.773438 47.296875 112.421875 49.574219 114.226562 50.585938 L 122.066406 54.996094 C 122.804688 55.410156 123.292969 56.164062 123.371094 57.007812 C 123.449219 57.851562 123.109375 58.679688 122.457031 59.222656 L 115.554688 65.007812 C 113.96875 66.335938 113.75 68.691406 115.0625 70.289062 L 120.796875 77.253906 C 121.335938 77.90625 121.519531 78.785156 121.285156 79.597656 C 121.054688 80.414062 120.4375 81.0625 119.632812 81.335938 L 111.125 84.21875 C 109.164062 84.882812 108.109375 87.003906 108.761719 88.964844 L 111.605469 97.546875 C 111.871094 98.351562 111.726562 99.234375 111.214844 99.910156 C 110.703125 100.585938 109.894531 100.964844 109.046875 100.925781 L 100.078125 100.53125 C 98.015625 100.4375 96.265625 102.03125 96.167969 104.097656 L 95.734375 113.132812 C 95.691406 113.976562 95.238281 114.746094 94.519531 115.191406 C 93.800781 115.636719 92.910156 115.699219 92.136719 115.359375 L 83.910156 111.730469 C 82.023438 110.898438 79.816406 111.753906 78.980469 113.640625 L 75.328125 121.90625 C 74.984375 122.675781 74.285156 123.230469 73.457031 123.386719 C 72.625 123.542969 71.773438 123.277344 71.175781 122.679688 L 64.800781 116.308594 C 64.101562 115.605469 63.152344 115.214844 62.160156 115.214844 C 61.171875 115.214844 60.21875 115.605469 59.519531 116.308594 L 53.148438 122.679688 C 52.550781 123.277344 51.695312 123.542969 50.867188 123.386719 C 50.035156 123.230469 49.335938 122.675781 48.996094 121.90625 L 45.339844 113.640625 C 44.503906 111.753906 42.300781 110.898438 40.410156 111.730469 L 32.1875 115.359375 C 31.414062 115.699219 30.519531 115.636719 29.800781 115.191406 C 29.082031 114.746094 28.628906 113.976562 28.589844 113.132812 L 28.152344 104.097656 C 28.054688 102.03125 26.304688 100.4375 24.242188 100.53125 L 15.273438 100.925781 C 14.425781 100.964844 13.617188 100.585938 13.105469 99.910156 C 12.597656 99.234375 12.449219 98.351562 12.714844 97.546875 L 15.5625 88.964844 C 16.210938 87.003906 15.15625 84.882812 13.199219 84.21875 L 4.6875 81.335938 C 3.886719 81.0625 3.269531 80.414062 3.035156 79.597656 C 2.804688 78.785156 2.984375 77.90625 3.523438 77.253906 L 9.257812 70.289062 C 10.574219 68.691406 10.355469 66.335938 8.769531 65.007812 L 1.863281 59.222656 C 1.214844 58.679688 0.871094 57.851562 0.949219 57.007812 C 1.027344 56.164062 1.515625 55.410156 2.257812 54.996094 L 10.097656 50.585938 C 11.898438 49.574219 12.546875 47.296875 11.546875 45.484375 L 7.183594 37.578125 C 6.773438 36.835938 6.757812 35.941406 7.132812 35.183594 C 7.511719 34.425781 8.238281 33.902344 9.078125 33.78125 L 17.96875 32.515625 C 20.011719 32.226562 21.4375 30.335938 21.160156 28.289062 L 19.933594 19.328125 C 19.820312 18.488281 20.125 17.648438 20.75 17.078125 C 21.375 16.507812 22.242188 16.285156 23.066406 16.476562 L 31.808594 18.523438 C 33.820312 18.992188 35.832031 17.746094 36.304688 15.738281 L 38.386719 6.9375 C 38.582031 6.113281 39.167969 5.441406 39.957031 5.136719 C 40.746094 4.832031 41.632812 4.933594 42.328125 5.414062 L 49.753906 10.496094 C 51.457031 11.664062 53.78125 11.230469 54.949219 9.527344 L 60.050781 2.082031 C 60.527344 1.386719 61.316406 0.96875 62.160156 0.96875 C 63.003906 0.96875 63.796875 1.386719 64.273438 2.082031 Z M 64.273438 2.082031 " clip-rule="nonzero"/></clipPath><clipPath id="f8ef2acd3f"><rect x="0" width="124" y="0" height="124"/></clipPath></defs><g clip-path="url(#6e5a8d53bd)"><g clip-path="url(#380381e188)"><g transform="matrix(1, 0, 0, 1, 1, 1)"><g clip-path="url(#f8ef2acd3f)"><g clip-path="url(#314ea45a4f)"><g clip-path="url(#8581b89344)"><rect x="-29.05" width="183.6" fill="#ff6600" height="183.599991" y="-29.049999" fill-opacity="1"/></g></g></g></g></g></g></svg>