<svg xmlns="http://www.w3.org/2000/svg" viewBox="0 0 500 500"><g id="freepik--Clipboard--inject-389"><rect x="138.21" y="73.85" width="229.83" height="305.27" style="fill:#024ADF"></rect><g style="opacity:0.1"><rect x="138.21" y="73.85" width="229.83" height="305.27" style="fill:#020100"></rect></g><rect x="131.96" y="73.85" width="229.83" height="305.27" style="fill:#024ADF"></rect><rect x="147.59" y="87.32" width="202.89" height="275.03" transform="translate(-2.84 3.19) rotate(-0.73)" style="fill:#ebebeb"></rect><rect x="108.4" y="123.39" width="275.03" height="202.89" transform="translate(15.83 465.84) rotate(-88.76)" style="fill:#dbdbdb"></rect><rect x="144.47" y="87.32" width="202.89" height="275.03" style="fill:#fff"></rect><path d="M202.07,168.83H172.43V139.19h29.64Zm-28.64-1h27.64V140.19H173.43Z" style="fill:#263238"></path><rect x="222.08" y="141.4" width="96.82" height="1" style="fill:#263238"></rect><rect x="222.08" y="149.75" width="96.82" height="1" style="fill:#263238"></rect><rect x="222.08" y="158.1" width="96.82" height="1" style="fill:#263238"></rect><path d="M173.17,152.3c1.22,1,2.38,2.08,3.53,3.15s2.25,2.17,3.38,3.26c2.22,2.2,4.37,4.46,6.48,6.75l-3.79.24a148.6,148.6,0,0,1,10.29-18q2.87-4.32,6.1-8.44a78.79,78.79,0,0,1,7.05-7.86,79.55,79.55,0,0,1-3.68,9.9c-1.41,3.19-3,6.29-4.62,9.33a149.88,149.88,0,0,1-11.18,17.5l-2.07,2.77-1.72-2.53c-1.75-2.58-3.46-5.18-5.1-7.84-.8-1.35-1.64-2.67-2.41-4S173.88,153.72,173.17,152.3Z" style="fill:#024ADF"></path><path d="M202.07,218.73H172.43V189.08h29.64Zm-28.64-1h27.64V190.08H173.43Z" style="fill:#263238"></path><rect x="222.08" y="191.29" width="96.82" height="1" style="fill:#263238"></rect><rect x="222.08" y="199.64" width="96.82" height="1" style="fill:#263238"></rect><rect x="222.08" y="207.99" width="96.82" height="1" style="fill:#263238"></rect><path d="M173.17,202.19c1.22,1,2.38,2.08,3.53,3.15s2.25,2.17,3.38,3.26c2.22,2.2,4.37,4.46,6.48,6.75l-3.79.24a149.37,149.37,0,0,1,10.29-18c1.91-2.88,3.94-5.7,6.1-8.43a78.89,78.89,0,0,1,7.05-7.87,79.55,79.55,0,0,1-3.68,9.9c-1.41,3.19-3,6.29-4.62,9.33A149.88,149.88,0,0,1,186.73,218l-2.07,2.77-1.72-2.53c-1.75-2.57-3.46-5.18-5.1-7.84-.8-1.35-1.64-2.67-2.41-4S173.88,203.61,173.17,202.19Z" style="fill:#024ADF"></path><path d="M202.07,268.62H172.43V239h29.64Zm-28.64-1h27.64V240H173.43Z" style="fill:#263238"></path><rect x="222.08" y="241.18" width="96.82" height="1" style="fill:#263238"></rect><rect x="222.08" y="249.53" width="96.82" height="1" style="fill:#263238"></rect><rect x="222.08" y="257.88" width="96.82" height="1" style="fill:#263238"></rect><path d="M202.07,318.51H172.43V288.87h29.64Zm-28.64-1h27.64V289.87H173.43Z" style="fill:#263238"></path><rect x="222.08" y="291.07" width="96.82" height="1" style="fill:#263238"></rect><rect x="222.08" y="299.42" width="96.82" height="1" style="fill:#263238"></rect><rect x="222.08" y="307.77" width="96.82" height="1" style="fill:#263238"></rect><rect x="194.84" y="68.28" width="99.66" height="30.38" style="fill:#c7c7c7"></rect><path d="M275.14,51.67H213.29l-2.74,16.61h68.24ZM244.67,63.62A3.65,3.65,0,1,1,248.31,60,3.65,3.65,0,0,1,244.67,63.62Z" style="fill:#c7c7c7"></path><polygon points="278.79 68.28 210.55 68.28 211.16 64.56 277.97 64.56 278.79 68.28" style="fill:#a6a6a6"></polygon></g><g id="freepik--character-3--inject-389"><path d="M388.41,368.16l31.16,26.77c5.72,5.63,10.64,10.66,12.94,13.5l0,0a5.49,5.49,0,0,1,1.35,2.16.2.2,0,0,1,0,.07c-.52,2.84-44.11,49.86-46.18,51s-5.45-4.69-5.22-7.87,8.88-28.65,8.88-28.65l-30.85-27Z" style="fill:#f7a9a0"></path><path d="M387.71,461.69c2.08-1.13,45.67-48.15,46.18-51,0,0,0,0,0-.07a5.61,5.61,0,0,0-1.34-2.16.08.08,0,0,0,0,0c-2.31-2.84-7.22-7.87-12.94-13.49,0,0-5.4-4.65-11.7-10.06l-27.62,30.55,11.13,9.75s-8.63,25.46-8.88,28.64S385.65,462.82,387.71,461.69Z" style="fill:#ebebeb"></path><path d="M387.59,462c2.1-1.16,46.67-48.62,47.2-51.51.2-1.09-15.14-16.62-23.9-23.48l-28.38,30.91s8,7.88,7.85,8.42c-1.41,4.41-7.88,24.81-8.09,27.68C382,457.21,385.49,463.12,387.59,462Z" style="fill:#024ADF"></path><path d="M386.31,459.52c7.19-8.21,37-40.64,44.7-48.21.06-.06.1,0,.05,0-6.95,8.3-37,40.48-44.62,48.29C386.28,459.8,386.15,459.69,386.31,459.52Z" style="fill:#263238"></path><path d="M383.38,449.33a8.74,8.74,0,0,1,6.38-3,8.5,8.5,0,0,1,5.94,2.15c.05,0,0,.14-.09.1a10.12,10.12,0,0,0-12.13.84A.07.07,0,0,1,383.38,449.33Z" style="fill:#263238"></path><path d="M389.11,428.73c2.92-3.25,7.48-5.94,11.94-5.51.18,0,.15.26,0,.31a60.57,60.57,0,0,0-11.6,5.62A.28.28,0,0,1,389.11,428.73Z" style="fill:#263238"></path><path d="M387.8,432.1c2.91-3.25,7.47-5.93,11.94-5.51.17,0,.15.26,0,.31a60.65,60.65,0,0,0-11.61,5.62A.27.27,0,0,1,387.8,432.1Z" style="fill:#263238"></path><path d="M386.48,435.47c2.91-3.25,7.48-5.93,11.94-5.51.18,0,.15.26,0,.31a60.57,60.57,0,0,0-11.6,5.62A.28.28,0,0,1,386.48,435.47Z" style="fill:#263238"></path><path d="M385.17,438.84c2.91-3.25,7.47-5.93,11.94-5.51.17,0,.14.26,0,.31a60.65,60.65,0,0,0-11.61,5.62A.27.27,0,0,1,385.17,438.84Z" style="fill:#263238"></path><path d="M409.16,394.82c3.33-3.6,8.92,1.57,5.59,5.17S405.83,398.42,409.16,394.82Z" style="fill:#263238"></path><path d="M382.29,428.38a24.1,24.1,0,0,0,7.71-.94l.55-.15c1.05-.26,2.09-.52,3.1-.75a.42.42,0,0,0,.28-.21.61.61,0,0,0,0-.61.11.11,0,0,0,0-.18c-.12-.09-.23-.18-.37-.27a.17.17,0,0,0-.12-.09,3,3,0,0,0-.45-.34,23.37,23.37,0,0,0-6.78-3.26,20.24,20.24,0,0,0-3.19-.68c-2.33-.3-5.53.55-5.67,3.41C377.2,427,380.05,428.2,382.29,428.38Zm-2.8-2.3c-3.21-3.53,2.39-4.21,4.09-3.93a25.61,25.61,0,0,1,3.24.82c.36.12.71.23,1.05.36,1.74.59,3.41,1.37,5.1,2.09h0l.24.11-.29,0-.27.05c-.8.13-1.6.3-2.39.48l-2.5.54C385.63,427.09,381.26,428,379.49,426.08Z" style="fill:#263238"></path><path d="M393.91,426.35l0,0c1.21-1,2.51-1.9,3.77-2.88a21.67,21.67,0,0,0,4.76-4.8c1.25-1.86,2.12-4.82-.09-6.41s-5,.3-6.21,2.29A23.06,23.06,0,0,0,393,424.84a5.43,5.43,0,0,0,0,.58.07.07,0,0,0,0,.05v.12c0,.11,0,.23,0,.35a.14.14,0,0,0,.15.12A.53.53,0,0,0,393.91,426.35Zm.14-1.52c-.17.14-.33.29-.49.44l-.18.15c0-.08,0-.15.06-.24h0a61.52,61.52,0,0,1,1.94-6.37,25.45,25.45,0,0,1,1.39-3.05c.85-1.51,4.87-5.43,5.64-.72.41,2.59-3.06,5.42-4.76,6.83C396.46,422.87,395.23,423.82,394.05,424.83Z" style="fill:#263238"></path><path d="M367.7,333.32C370,344.73,405.83,382,405.83,382l-30.92,35.69s-56.65-57.33-53.14-82.56c3.05-21.95,35.91-110.2,35.91-110.2h37.91S365.43,322.09,367.7,333.32Z" style="fill:#37474f"></path><path d="M371.16,408.62c4.38-5.46,3-4,7.5-9.37,2.18-2.65,16.5-20.05,19-22.16.05,0,.14,0,.11.09-1.66,2.8-16.28,19.94-18.51,22.55-4.55,5.32-3.31,3.75-7.92,9A.1.1,0,0,1,371.16,408.62Z" style="fill:#263238"></path><path d="M362.35,328.64c.54-2.86,1.16-5.7,1.76-8.53q1.86-8.7,3.92-17.35,4.08-17.14,8.9-34.11c3.23-11.35,6.65-22.67,10.58-33.79.49-1.38,1-2.75,1.49-4.12,0-.1.2-.05.17,0-3.41,11.15-6.92,22.26-10.12,33.46s-6.12,22.38-8.9,33.65c-1.39,5.66-2.69,11.34-3.95,17q-.94,4.19-1.83,8.39a60.64,60.64,0,0,0-1.59,8.65,13.17,13.17,0,0,0,2.23,7.79c1.42,2.33,3.09,4.51,4.71,6.71,3.24,4.39,23.48,28.95,24.47,29.88.08.07,0,.18-.12.11-4.14-3.71-19.7-22.23-23-26.61q-2.46-3.25-4.82-6.59a26,26,0,0,1-3.76-6.64A15.53,15.53,0,0,1,362.35,328.64Z" style="fill:#263238"></path><path d="M372.76,410.78s-5.51,41-5.51,41.05c-.2,8-.51,15-1,18.66a.13.13,0,0,1,0,.06,5.57,5.57,0,0,1-.65,2.46s0,0-.05.05c-2.43,1.56-66.55,1.87-68.79,1.13s-.3-7.18,2.18-9.18,27-13.1,27-13.1l5.9-41Z" style="fill:#f7a9a0"></path><path d="M296.74,474.19c2.24.74,66.36.43,68.79-1.13,0,0,0,0,.05-.05a5.72,5.72,0,0,0,.65-2.46.07.07,0,0,0,0-.05,175.23,175.23,0,0,0,1.47-18.73,120.92,120.92,0,0,1,1.49-14.53L328,437.13l-2.14,14.79s-24.48,11.1-27,13.09S294.5,473.45,296.74,474.19Z" style="fill:#ebebeb"></path><path d="M296.45,474.29c2.28.74,67.39.85,69.86-.74.94-.6,1.08-21.52,2.41-33.05l-41.14,0s-2.69,11.24-3.2,11.48c-4.18,2-23.5,11.2-25.74,13C296.13,467,294.18,473.55,296.45,474.29Z" style="fill:#024ADF"></path><path d="M297.37,471.68c10.9-.36,54.93-.79,65.74-.31.09,0,.09.06,0,.07-10.8.59-54.83.65-65.74.41C297.14,471.85,297.14,471.68,297.37,471.68Z" style="fill:#263238"></path><path d="M302.8,462.58a8.74,8.74,0,0,1,6.55,2.61,8.47,8.47,0,0,1,2.49,5.8c0,.07-.12.07-.13,0a10.11,10.11,0,0,0-8.9-8.27C302.72,462.71,302.72,462.58,302.8,462.58Z" style="fill:#263238"></path><path d="M321.76,452.69c4.37-.1,9.44,1.4,12.18,4.95.11.13-.09.28-.22.22a60.07,60.07,0,0,0-12-4.63A.28.28,0,0,1,321.76,452.69Z" style="fill:#263238"></path><path d="M318.4,454c4.37-.1,9.44,1.4,12.19,5,.1.14-.1.29-.23.22a60.07,60.07,0,0,0-12-4.63A.28.28,0,0,1,318.4,454Z" style="fill:#263238"></path><path d="M315,455.37c4.37-.09,9.44,1.4,12.19,4.95.1.14-.1.29-.23.22a60.44,60.44,0,0,0-12-4.63A.28.28,0,0,1,315,455.37Z" style="fill:#263238"></path><path d="M311.68,456.72c4.37-.1,9.44,1.4,12.19,4.94.1.14-.09.29-.23.23a59.87,59.87,0,0,0-12-4.64A.27.27,0,0,1,311.68,456.72Z" style="fill:#263238"></path><path d="M360.22,444.15c4.9,0,4.95,7.58,0,7.61S355.31,444.18,360.22,444.15Z" style="fill:#263238"></path><path d="M317.35,447.47a24.09,24.09,0,0,0,6,5l.48.31c.91.58,1.81,1.16,2.67,1.74a.4.4,0,0,0,.34.06.57.57,0,0,0,.44-.42.12.12,0,0,0,.14-.12,4,4,0,0,0-.06-.45.16.16,0,0,0,0-.15,3.68,3.68,0,0,0-.06-.57,23.28,23.28,0,0,0-2.26-7.17,18.37,18.37,0,0,0-1.68-2.8c-1.37-1.89-4.17-3.65-6.36-1.8S316,445.71,317.35,447.47Zm-.24-3.62c.39-4.75,4.71-1.13,5.68.3a26.85,26.85,0,0,1,1.61,2.93c.16.34.32.67.45,1,.76,1.67,1.33,3.42,2,5.14,0,0,0,0,0,0a2.41,2.41,0,0,1,.08.25l-.23-.18a1.12,1.12,0,0,0-.22-.16c-.64-.49-1.31-1-2-1.43l-2.11-1.45C320.58,449,316.9,446.48,317.11,443.85Z" style="fill:#263238"></path><path d="M326.77,454.56h0c1.53.23,3.11.54,4.68.78a21.34,21.34,0,0,0,6.76.2c2.21-.35,5-1.74,4.62-4.44-.37-2.85-3.63-3.44-5.92-3a23.15,23.15,0,0,0-9.69,4.72l-.44.38,0,0-.09.09a2.84,2.84,0,0,0-.26.24.12.12,0,0,0,0,.18A.54.54,0,0,0,326.77,454.56Zm1.21-.93-.66-.06a.91.91,0,0,0-.23,0,2.39,2.39,0,0,0,.22-.12h0a63.68,63.68,0,0,1,6-2.94,25.83,25.83,0,0,1,3.18-1.07c1.68-.41,7.29-.15,4.38,3.63-1.62,2.07-6.05,1.47-8.24,1.19C331.06,454.05,329.53,453.8,328,453.63Z" style="fill:#263238"></path><path d="M358.29,224.93a106.4,106.4,0,0,0,.2,18.91c.79,7.93,1.78,15,2.84,15.83s7.19,4.83,9.2,6.06c0,0-18.68,56.62-23.5,75.5-7,27.36-20.1,91-20.1,91h44.6s9.93-59.75,15.86-85.8c5.08-22.33,24.55-89.33,24.55-89.33a38.89,38.89,0,0,0-1.58-32.21S358.29,224.89,358.29,224.93Z" style="fill:#37474f"></path><path d="M329.83,423.38c7,0,5-.12,12-.08,3.43,0,26,.17,29.16.75a.08.08,0,0,1,0,.15c-3.22.48-25.75-.07-29.17-.16-7-.17-5-.2-12-.45C329.7,423.58,329.7,423.38,329.83,423.38Z" style="fill:#263238"></path><path d="M358.17,257.43a84.53,84.53,0,0,1,12.3,8.23c.15.12,0,.36-.16.26-4.17-2.61-8.44-5.16-12.46-8A.29.29,0,0,1,358.17,257.43Z" style="fill:#263238"></path><path d="M361.57,226.62c0-.15.32-.14.29,0a149.49,149.49,0,0,0-1.57,15c-.15,2.33-.27,15.33,3.86,15,.69-.06,1.14-.66,1.4-1.65a16,16,0,0,0,.07-4c0-2.73,0-5.46.22-8.18a74.11,74.11,0,0,1,2.5-15,.13.13,0,0,1,.26.05,139,139,0,0,0-2,21c0,3.38.88,8.62-2.66,8.59s-4.59-8.72-4.67-11.07A77.36,77.36,0,0,1,361.57,226.62Z" style="fill:#263238"></path><path d="M364,257a21.86,21.86,0,0,1,.49,2.78,5.93,5.93,0,0,1,0,2.22c0,.14-.23.12-.29,0a8.22,8.22,0,0,1-.6-2.25c-.17-.87-.37-1.73-.52-2.59A.45.45,0,0,1,364,257Z" style="fill:#263238"></path><path d="M376.87,394.85c.61-4,1.38-9.19,3.08-17,1-4.42,3.48-14.57,4.66-18.93.09-.31.51-.16.46.14-.72,4-2.8,13.77-3.62,17.75s-1.63,7.93-2.42,11.89c-1.55,7.85-4.67,26.91-4.85,28,0,.1-.17,0-.15-.05C374.2,415.61,376.56,396.82,376.87,394.85Z" style="fill:#263238"></path><path d="M342.34,358.18c1.49-7.4,3.49-14.7,5.5-22,4.05-14.63,8.82-29,13.58-43.47,1.38-4.15,2.74-8.3,4.12-12.46.68-2.07,4-13.27,4.46-14.33a.09.09,0,0,1,.18.05c-1,3.81-2.29,9.38-3.4,13.15s-2.3,7.44-3.46,11.15c-2.28,7.3-4.6,14.59-6.81,21.91-4.37,14.47-8.71,28.94-12.26,43.63-1,4.12-2,8.23-2.89,12.37s-1.68,8.29-2.55,12.42c0,.12-.21.09-.2,0C339.36,373.06,340.85,365.61,342.34,358.18Z" style="fill:#263238"></path><path d="M373.68,378.49c2.46-14.12,1.78-9.76,5-23.71s6.92-27.95,10.94-41.77,8.47-27.53,13.24-41.11A171.26,171.26,0,0,0,409,252.35c1.47-6.59,2.22-13.73.68-20.38a34.1,34.1,0,0,0-1.52-4.95c-.05-.11.11-.21.16-.09,5.37,12.49,1.89,26.16-2.2,38.48-2.23,6.75-4.62,13.45-6.83,20.21q-3.39,10.41-6.51,20.91c-4.11,13.86-7.93,27.81-11.36,41.87s-6.47,28.19-9.15,42.41-1.33,10.18-3.63,24.51c-.29,1.86-.53,3.73-.77,5.61,0,.1-.18.1-.17,0C369.37,406.72,371.23,392.58,373.68,378.49Z" style="fill:#263238"></path><path d="M400,243.75a36.8,36.8,0,0,0-3.76-.61c-1-.16-2-.34-3-.56a13.05,13.05,0,0,1-5.29-2.22c-1.72-1.34-2.59-3.38-3.43-5.33-.49-1.16-1-2.31-1.52-3.46-.25-.56-.5-1.12-.76-1.67a20.13,20.13,0,0,1-.94-2c0-.1-.19-.05-.15,0a11.88,11.88,0,0,1,.42,1.44c.17.56.33,1.12.51,1.68.3,1,.61,2,.93,3a23.88,23.88,0,0,0,2.12,5.24c1.84,2.92,5.13,4.1,8.41,4.52.94.12,1.89.18,2.84.24a20.5,20.5,0,0,0,3.59,0A.16.16,0,0,0,400,243.75Z" style="fill:#263238"></path><path d="M376.47,184.56c-9.69,20-22,41.65-33.51,45.05-11,3.23-38.13-23.44-42.88-32.44-1.64-3.1,20.88-17.51,23.9-15.29,5.69,4.2,16.14,17.59,17.85,17.19s16.05-14,29-25.49C378.67,166.63,383.18,170.7,376.47,184.56Z" style="fill:#f7a9a0"></path><path d="M309.74,204.17s-10.21-3-16.8-5.36c-3.68-1.29-9.78-4.06-12.05-6.24-3.39-3.26-15.49-19.07-11.72-22.08,3.42-2.73,12.09,12.17,12.09,12.17s-10.08-14.26-5.37-16.8,12.27,15.61,12.27,15.61-10-14.89-4.75-16.73c4-1.39,11.75,14.65,11.75,14.65s-8.53-12.85-4.49-14.46c4.46-1.78,12.56,12.58,12.56,12.58a25.63,25.63,0,0,1,22.68,6C326.83,184.28,309.74,204.17,309.74,204.17Z" style="fill:#f7a9a0"></path><path d="M284,187.12c-8.23-9.93-9.21-17.33-9.15-17.14,1.56,4.52,5.39,10.8,6.48,12.54s1.65,2.83,2.74,4.57C284.06,187.13,284,187.16,284,187.12Z" style="fill:#263238"></path><path d="M290.77,184a43.83,43.83,0,0,1-8.24-13.18c-.06-.19,0-.17.13,0,1.34,2.25,6.73,11,8.16,13.15C290.85,184,290.8,184,290.77,184Z" style="fill:#263238"></path><path d="M296.81,181.66a32.6,32.6,0,0,1-6.08-10.4c-.07-.18.08-.15.18,0,1.95,3.49,3.46,6.25,6,10.28C297,181.64,296.86,181.72,296.81,181.66Z" style="fill:#263238"></path><path d="M329.1,185.17l-20.93,23.68s23.72,24.93,34.39,21.9,30-32.79,36-51.47c4.09-12.93-2.95-10.65-10.22-4.14s-26.29,22.7-27.15,22.49S329.1,185.17,329.1,185.17Z" style="fill:#dbdbdb"></path><path d="M378.52,179.28c-5.92,18.68-25.3,48.44-36,51.47-3.9,1.11-9.54-1.52-15.13-5.29,12.29-14.85,33.2-38.88,47.12-54.77C378.82,168.65,381.37,170.27,378.52,179.28Z" style="opacity:0.1"></path><path d="M315.33,212.45c3-3.27,15-17.11,17.35-20.28.16-.22.07-.37-.14-.17-9.33,9.59-14.52,17-17.34,20.32C315.13,212.41,315.25,212.53,315.33,212.45Z" style="fill:#263238"></path><path d="M413.48,225.3h-58L360,208.16s-4.48-6.62-3.06-12.53c1.23-5.08,8.37-15,12.35-19.78,9.72-11.68,18.16-6.4,20.86-3.4C400.42,183.93,413.48,225.3,413.48,225.3Z" style="fill:#dbdbdb"></path><path d="M376.61,206.27a48.73,48.73,0,0,0-7.35.22c-1.21.14-2.41.34-3.61.56-.6.11-1.2.2-1.8.29a7.53,7.53,0,0,1-1.9.1,0,0,0,0,0,0,.09,13.45,13.45,0,0,0,1.79.21,12.84,12.84,0,0,0,1.75-.1c1.23-.13,2.45-.32,3.68-.47,2.48-.29,5-.58,7.45-.7A.1.1,0,0,0,376.61,206.27Z" style="fill:#263238"></path><path d="M382.31,209.22a55,55,0,0,0-6-1.1c-1-.12-2-.18-3-.22-.49,0-1,0-1.46,0s-1.06.06-1.59,0c-.06,0-.07.09,0,.09.5,0,1,.13,1.5.19l1.5.16,3,.33c2,.2,4,.42,6,.69C382.4,209.4,382.41,209.24,382.31,209.22Z" style="fill:#263238"></path><path d="M394.56,179c11.37,19.63,28.38,64.66,31.45,71.1,2.08,4.37-20.77,15.9-21.74,12.72-1.25-4.07-17.11-56.53-18.14-79.93C385.65,172,390.92,172.67,394.56,179Z" style="fill:#f7a9a0"></path><path d="M403.65,260.57c.53,4,3.22,11.95,5.23,13.17s12.52.95,17.82.95,6.35-1.47,6.26-3.3-11.21-2.17-11.21-2.17,14.86,4.26,18.6,4.95,12.35,2.87,13.59-.23c.56-1.4-1.79-2.81-1.79-2.81s3.61,1.06,4.18-.74c.66-2.05-2.21-3.17-2.21-3.17s2.25.45,2.31-1.21c.11-3.73-14-5.56-14-5.56s10.82,5.27,11.17,2.23c.48-4.2-21.7-8.82-24-10.65a43,43,0,0,1-4.7-4.56Z" style="fill:#f7a9a0"></path><path d="M432.88,272.32a1.61,1.61,0,0,0-.5-1.42,4.49,4.49,0,0,0-1.29-.84,17.43,17.43,0,0,0-3-1c-2.09-.53-4.23-.9-6.36-1.45a25.79,25.79,0,0,1,6.54.73,12.05,12.05,0,0,1,3.13,1.2,4.21,4.21,0,0,1,1.3,1.12A1.68,1.68,0,0,1,432.88,272.32Z" style="fill:#263238"></path><path d="M452.15,271.13c-1.53-.37-3-.8-4.54-1.24s-3-.9-4.5-1.35l-4.48-1.4c-1.49-.47-3-.93-4.49-1.38a34.69,34.69,0,0,1,4.64.83c1.54.35,3.05.79,4.55,1.24s3,1,4.45,1.52S450.72,270.47,452.15,271.13Z" style="fill:#263238"></path><path d="M437.73,262.05a29.7,29.7,0,0,1,4.29.59,40.89,40.89,0,0,1,4.19,1.08,36.69,36.69,0,0,1,4.06,1.52,31.08,31.08,0,0,1,3.85,2c-1.37-.47-2.7-1-4.06-1.45s-2.71-.92-4.07-1.34-2.74-.83-4.11-1.24S439.12,262.43,437.73,262.05Z" style="fill:#263238"></path><path d="M439.92,258.5A28.8,28.8,0,0,1,453,263c-2.2-.78-4.34-1.61-6.52-2.33S442.13,259.21,439.92,258.5Z" style="fill:#263238"></path><path d="M427.35,249l-25.06,12.24s-14.57-56.4-16.19-74.61,5.38-14,10.21-5.46C402.91,192.89,427.35,249,427.35,249Z" style="fill:#dbdbdb"></path><path d="M402.89,254.91c3.41-1.39,17.17-7.56,20.05-9.1.2-.1.18-.25,0-.17a198.83,198.83,0,0,0-20.06,9.13C402.76,254.81,402.8,254.94,402.89,254.91Z" style="fill:#263238"></path><path d="M393.54,225.38c-.37-2.68-.84-5.35-1.32-8s-1-5.31-1.54-8-1.12-5.29-1.74-7.92l-.94-4c-.35-1.31-.66-2.62-1-3.93.18,1.35.41,2.68.61,4l.71,4c.47,2.67,1,5.32,1.54,8s1.12,5.29,1.74,7.92S392.82,222.77,393.54,225.38Z" style="fill:#263238"></path><path d="M388.4,200.51a9.66,9.66,0,0,0-.81-2,9.08,9.08,0,0,0-1.18-1.79,10.52,10.52,0,0,0,2,3.78Z" style="fill:#263238"></path><path d="M373.72,181.91s11.21-8,16.82-7.48l4.52,4.5s1.54.6,2.08-.36a10.47,10.47,0,0,0-3-12.45c-4.47-3.79-14.11-3.61-20.59-2.29-6.22,1.26-9.8,4.68-8.15,8.79S373.72,181.91,373.72,181.91Z" style="fill:#dbdbdb"></path><path d="M373.21,180s-4.69-5.42-5.25-8.44,5.57-5.53,9.48-6.42c6.06-1.39,10.09-.78,13.25,2.59S373.21,180,373.21,180Z" style="opacity:0.1"></path><path d="M373.21,180s9.68-11.37,18.43-12l-1.1,6.48s-7.24-.28-16.82,7.48Z" style="fill:#dbdbdb"></path><path d="M392.87,174.68a11.14,11.14,0,0,0-4.7.36c-6,1.07-12.37,5.63-12.37,5.63L374,182.18l-.21.17-.21-.13c-2.83-1.74-5.55-5.59-6.06-6.34a38.91,38.91,0,0,0,6.42,5.71l-.42,0,1.84-1.56c.63-.49,7.54-4.5,12.76-5.46.39-.09.8-.14,1.19-.19s.81-.07,1.22-.06A7.09,7.09,0,0,1,392.87,174.68Z" style="fill:#263238"></path><path d="M395.06,178.93a24.15,24.15,0,0,1-2.4-2.11,22.92,22.92,0,0,1-2.12-2.39,24.15,24.15,0,0,1,2.4,2.11A22.92,22.92,0,0,1,395.06,178.93Z" style="fill:#263238"></path><path d="M375.52,178.37a47.72,47.72,0,0,1,1,8.21c.09,1.92-.49,8.85-2.63,8.65s1.23-4.74,1.75-8.4-.51-6.3-.69-8.48Z" style="fill:#a6a6a6"></path><path d="M370.22,178.35a44.3,44.3,0,0,0-2.42,7.16c-.43,1.71-1.18,8,.78,8.22s-.24-4.46,0-7.83,1.61-5.55,2.17-7.46Z" style="fill:#a6a6a6"></path><path d="M382.27,171c-.15,1-4.88,6.09-9.54,6.28-1.52.06-1.75-6.26-1.75-6.26l-.19-.6-2.66-8.39,9.49-7.33,1.38-1s.57,2.35,1.26,5.27c0,.14.07.27.1.42s.09.32.12.47c.11.44.22.89.32,1.33s.15.67.22,1,.14.71.22,1.07A56.55,56.55,0,0,1,382.27,171Z" style="fill:#f7a9a0"></path><path d="M380.26,159a17.66,17.66,0,0,1-9.47,11.43l-2.66-8.39,9.49-7.33,1.38-1S379.57,156.1,380.26,159Z" style="fill:#263238"></path><path d="M354.88,148.44c-2.84,15.19,5.93,18.61,9.21,19.21,3,.56,13.17,2.06,17.56-12.75s-1.76-20.93-8.5-22.55S357.72,133.26,354.88,148.44Z" style="fill:#f7a9a0"></path><path d="M357.49,147.57a9.5,9.5,0,0,0,1.06-.1,1.72,1.72,0,0,0,1.06-.31.54.54,0,0,0,.08-.67,1.37,1.37,0,0,0-1.3-.47,2.05,2.05,0,0,0-1.33.56A.59.59,0,0,0,357.49,147.57Z" style="fill:#263238"></path><path d="M367.79,148.38c-.36-.09-.67-.22-1-.34a1.78,1.78,0,0,1-1-.54.54.54,0,0,1,.08-.67,1.35,1.35,0,0,1,1.37-.16,1.92,1.92,0,0,1,1.16.85A.58.58,0,0,1,367.79,148.38Z" style="fill:#263238"></path><path d="M365.18,151.07s.08.06.07.1c-.18,1-.21,2.26.69,2.73,0,0,0,.07,0,.06C364.79,153.64,364.85,152,365.18,151.07Z" style="fill:#263238"></path><path d="M366.27,150.11c1.69.11,1.35,3.48-.22,3.39S364.85,150,366.27,150.11Z" style="fill:#263238"></path><path d="M366.91,150.35c.28.22.53.59.88.66s.76-.24,1.06-.55c0,0,.06,0,.06,0-.06.65-.37,1.29-1.08,1.32s-1-.6-1.13-1.26C366.68,150.43,366.8,150.26,366.91,150.35Z" style="fill:#263238"></path><path d="M359.42,150s-.09,0-.09.08c-.06,1.06-.31,2.25-1.29,2.51,0,0,0,.06,0,.06C359.21,152.58,359.53,151,359.42,150Z" style="fill:#263238"></path><path d="M358.58,148.81c-1.67-.28-2.11,3.08-.56,3.35S360,149.05,358.58,148.81Z" style="fill:#263238"></path><path d="M357.85,148.94c-.29.14-.59.43-.91.41s-.6-.42-.79-.8c0,0,0,0-.06,0-.1.64,0,1.34.63,1.54s1-.31,1.27-.93C358,149.07,358,148.88,357.85,148.94Z" style="fill:#263238"></path><path d="M364.34,159.91c-.27.23-.54.56-.92.57a2.94,2.94,0,0,1-1.12-.32s-.06,0,0,.05a1.4,1.4,0,0,0,1.3.64,1.11,1.11,0,0,0,.87-.88C364.45,159.91,364.37,159.88,364.34,159.91Z" style="fill:#263238"></path><path d="M360.39,155.65s-.39,1.53-.48,2.27c0,.07.17.12.42.16h0a3.53,3.53,0,0,0,3.55-.93.08.08,0,0,0-.1-.11,5.34,5.34,0,0,1-3.3.55c0-.21.75-2.61.64-2.63a6.71,6.71,0,0,0-1.72.19c.72-3.22,1.95-6.31,2.62-9.53a.1.1,0,0,0-.19-.07,54.26,54.26,0,0,0-3.25,10.15C358.5,156.12,360.08,155.74,360.39,155.65Z" style="fill:#263238"></path><path d="M360.43,157.82a4.29,4.29,0,0,0,1.46,1.59,1.92,1.92,0,0,0,1.14.27c.87-.07,1-.83,1-1.51a4.46,4.46,0,0,0-.2-1.06A5.5,5.5,0,0,1,360.43,157.82Z" style="fill:#263238"></path><path d="M361.89,159.41a1.92,1.92,0,0,0,1.14.27c.87-.07,1-.83,1-1.51A2,2,0,0,0,361.89,159.41Z" style="fill:#ff9abb"></path><path d="M381.56,155.74a6.39,6.39,0,0,1-3.38-5.33,16.61,16.61,0,0,1-6.58-5.71c.09.32.75,2.65,1.13,3.83-9.75-2.2-12.52-9.82-12.52-9.82a16.91,16.91,0,0,0-4.51,6.07s.15-6,3.4-9.95a9.71,9.71,0,0,1,9.11-3.68,13.91,13.91,0,0,1,13.41,4.67C387.74,143,381.56,155.74,381.56,155.74Z" style="fill:#263238"></path><path d="M365.32,146.63a18.22,18.22,0,0,0,5,2s0,0,0,0a15.33,15.33,0,0,1-7.05-4.62,14.31,14.31,0,0,1-2-3,10.08,10.08,0,0,1-1.17-3.79c0-.1-.16-.1-.15,0a11.73,11.73,0,0,0,.64,3.9,10.62,10.62,0,0,0,2.06,3.33,12.44,12.44,0,0,0,2.7,2.21" style="fill:#263238"></path><path d="M378.83,154.24s3.83-4.47,5.88-3.05-1.15,8.11-3.8,8.81a2.6,2.6,0,0,1-3.34-1.74Z" style="fill:#f7a9a0"></path><path d="M383.75,153.09s0,0,0,.06c-1.86.55-3,2.12-3.8,3.78a1.45,1.45,0,0,1,2.19-.18.06.06,0,0,1-.06.09,1.62,1.62,0,0,0-1.82.39,7.69,7.69,0,0,0-1,1.34c-.1.15-.38,0-.3-.14l0,0C379.18,156.1,381.27,153.07,383.75,153.09Z" style="fill:#263238"></path><path d="M376.45,132.53c-2.53-.86-10.72-10.35-3-18.65s22.76.26,18.75,11.29C389.53,132.58,381.83,134.34,376.45,132.53Z" style="fill:#263238"></path></g><g id="freepik--character-1--inject-389"><path d="M89.86,171.73c-18.33,16.58-34.29,36.23-33,43.69,1.67,10,15.93,29.39,24.26,38.75,2.45,2.75,23.47-16.73,20.86-19.68-3.16-3.56-19.8-21.7-20-22.13-.42-.94,11-27,13.92-33.11C100.68,169,98,164.38,89.86,171.73Z" style="fill:#d3766a"></path><path d="M94.29,267.58c-5.36-3-14-13.31-15.06-16.6s16-18.49,19.49-17.83,20.78,12,23.16,17.81S99.84,270.65,94.29,267.58Z" style="fill:#d3766a"></path><path d="M116.43,242.81c-3.24.12-1.23,3.87-1.23,3.87s-4.19-4.7-7.48-3.27-.59,5.82-.41,6.14c-.22-.25-4.18-4.47-7.34-2.69s.07,5.85.29,6.11c-.28-.16-4.08-2.3-6.18-.41-3.6,3.25,6,9,6.75,12.83,0,0-6.37,2.09-6.54,2.19,0,0,9,5.64,14.11,4.29a3.4,3.4,0,0,0,2.57-3.38s2.7,2.14,5.23.83c1.3-.68,1.37-3.36,1.37-3.36a4.25,4.25,0,0,0,4.41.31c1.74-1,1.54-3.57,1.54-3.57s2.86.57,4.3-1.07C130.72,258.32,123.38,242.54,116.43,242.81Z" style="fill:#d3766a"></path><path d="M123.55,262.3c0,.05.1,0,.09,0a30.18,30.18,0,0,0-8.53-15.81c-.14-.13-.42,0-.29.22A62.17,62.17,0,0,1,123.55,262.3Z" style="fill:#263238"></path><path d="M117.64,266c0,.07.12,0,.11,0a28.29,28.29,0,0,0-10.37-16.67c-.19-.14-.5-.07-.3.1C110.57,252.39,115.71,260.74,117.64,266Z" style="fill:#263238"></path><path d="M99.77,252.82c5.18,4.1,8.52,9.44,11.17,15.42,0,.08.14,0,.13-.05-.5-3.28-2.58-6.91-4.44-9.61a17.38,17.38,0,0,0-6.71-5.94C99.81,252.59,99.66,252.74,99.77,252.82Z" style="fill:#263238"></path><path d="M115.2,246.68a20.38,20.38,0,0,0-2.87-2.22,6.65,6.65,0,0,0-3.26-1.17,2.21,2.21,0,0,0-1.48.52,3.18,3.18,0,0,0-.9,1.34,3.85,3.85,0,0,0,.51,3.12l1.36,2.28-2.07-1.67a10.88,10.88,0,0,0-3.06-1.76,3.91,3.91,0,0,0-3.18,0A2.25,2.25,0,0,0,99,249.65a6.77,6.77,0,0,0,1.62,3l2.08,2.37L100,253.43a10,10,0,0,0-2.41-1,4.19,4.19,0,0,0-2.43,0A2,2,0,0,0,93.8,254a4.51,4.51,0,0,0,.73,2.37,36.37,36.37,0,0,0,3.28,4.37c.59.71,1.18,1.42,1.73,2.17a6.6,6.6,0,0,1,1.29,2.44,7,7,0,0,0-1.49-2.28c-.6-.69-1.24-1.36-1.88-2a29.75,29.75,0,0,1-3.58-4.28,5.13,5.13,0,0,1-1-2.82,2.82,2.82,0,0,1,1.89-2.48,5.16,5.16,0,0,1,3-.05,11.09,11.09,0,0,1,2.71,1.07l-.65.81a7.66,7.66,0,0,1-1.95-3.47,3.24,3.24,0,0,1,.27-2.17,3.73,3.73,0,0,1,1.55-1.5,4.92,4.92,0,0,1,4,0,11.73,11.73,0,0,1,3.33,2l-.71.61a4.57,4.57,0,0,1-.43-3.88,3.9,3.9,0,0,1,1.2-1.6,2.82,2.82,0,0,1,1.91-.58,6.79,6.79,0,0,1,3.43,1.48A16.73,16.73,0,0,1,115.2,246.68Z" style="fill:#263238"></path><path d="M102,234.57s25.85,2.6,19.89,12.21c-1.78,2.85-12.47,12.46-14.44,10.35-2.54-2.73,1.17-7.57,4-10.24,0,0-8.92.36-11-5.78A6.45,6.45,0,0,1,102,234.57Z" style="fill:#d3766a"></path><path d="M122.33,246a13.59,13.59,0,0,1-2.18,3.3,29.84,29.84,0,0,1-2.77,2.85,46.21,46.21,0,0,1-6.29,4.89,7.58,7.58,0,0,1-1.93.88,2.81,2.81,0,0,1-1.2.08,2.22,2.22,0,0,1-.63-.21,2.19,2.19,0,0,1-.52-.41,3.36,3.36,0,0,1-.86-2.16,6,6,0,0,1,.36-2.13,11.93,11.93,0,0,1,2.06-3.55,26.33,26.33,0,0,1,2.75-2.93l.34.79a16,16,0,0,1-3-.28,14.66,14.66,0,0,1-2.91-.83,10.47,10.47,0,0,1-2.59-1.55,7.88,7.88,0,0,1-1.91-2.28,8.75,8.75,0,0,0,2.1,2,10.49,10.49,0,0,0,2.61,1.26,14.3,14.3,0,0,0,2.81.64,15.37,15.37,0,0,0,2.87.1l1.18-.07-.84.86a29.18,29.18,0,0,0-2.55,2.91,11.79,11.79,0,0,0-1.85,3.26,3.26,3.26,0,0,0,.25,3.18c.56.7,1.89.13,3-.48a37.09,37.09,0,0,0,3.24-2.15c1.06-.76,2.12-1.53,3.13-2.36A25.31,25.31,0,0,0,122.33,246Z" style="fill:#263238"></path><path d="M84.54,205.72l-20-10.49s17.34-21.59,27.8-27.42,7.89,3.56,5.21,10.39S84.54,205.72,84.54,205.72Z" style="fill:#455a64"></path><path d="M97.57,178.21c-2.68,6.83-13,27.51-13,27.51L69.75,198l24.76-31.21C102.42,163.38,100,171.88,97.57,178.21Z" style="fill:#37474f"></path><path d="M86,200.89c-2.65-1.71-5.54-3.11-8.33-4.57s-5.83-2.8-8.73-4.24c-.08,0-.16.1-.07.14,2.78,1.54,5.48,3.18,8.32,4.61A89.94,89.94,0,0,0,86,201S86.05,200.92,86,200.89Z" style="fill:#263238"></path><path d="M64.08,385.76S44,421.27,44,421.3c-3.23,7.16-5.93,13.49-7,16.9a.14.14,0,0,0,0,.06,5.6,5.6,0,0,0-.47,2.45s0,.05,0,.06c1.48,2.41,58,29.85,60.25,30.15s3.31-6.22,2-9-18.28-23-18.28-23l19.72-35.65Z" style="fill:#d3766a"></path><path d="M95.85,470.71c-2.28-.3-57.86-27.54-59.34-29.93a.36.36,0,0,1,0-.07,5.6,5.6,0,0,1,.47-2.45.06.06,0,0,1,0-.05c1.09-3.41,3.79-9.75,7-16.92,0,0,3.39-6.2,4.73-8.36L84.64,431.5l-4.18,7.39s16,20,17.36,22.79S98.15,471,95.85,470.71Z" style="fill:#ebebeb"></path><path d="M96.89,469.94c-2.31-.35-58.58-29.33-60-31.8-.57-.93,3.18-9.37,8-19.45l.15-.31,36.52,18.3-.33.6S97.78,458,99.08,460.89,99.19,470.3,96.89,469.94Z" style="fill:#024ADF"></path><path d="M97.37,467.43C88,462.32,49.75,442.55,40.1,438.2c-.08,0-.1,0,0,.06,9.17,5.28,47.59,24.73,57.22,29.33C97.5,467.69,97.57,467.54,97.37,467.43Z" style="fill:#fff"></path><path d="M84.2,439c-3.37-2.62-8.23-4.4-12.46-3.21-.16,0-.09.27.05.3a59.06,59.06,0,0,1,12.15,3.37A.27.27,0,0,0,84.2,439Z" style="fill:#263238"></path><path d="M86.06,442c-3.38-2.62-8.24-4.4-12.46-3.21-.16,0-.09.28.05.3a59.06,59.06,0,0,1,12.15,3.37A.27.27,0,0,0,86.06,442Z" style="fill:#263238"></path><path d="M87.92,445c-3.38-2.62-8.24-4.4-12.46-3.21-.16.05-.1.28,0,.3a59.79,59.79,0,0,1,12.16,3.37A.27.27,0,0,0,87.92,445Z" style="fill:#263238"></path><path d="M51.07,429.47c-3-4.14-9.47.56-6.44,4.7S54.1,433.62,51.07,429.47Z" style="fill:#fff"></path><path d="M83.68,440.39l4,25.27a99.67,99.67,0,0,0,9.15,4.28c2.31.36,3.48-6.19,2.2-9.05C98.1,458.72,88.35,446.29,83.68,440.39Z" style="opacity:0.1"></path><path d="M98.78,468.37c.81.91-1.15,4.18-2,4.07s-62.09-32-63-32.75,1.39-4.31,2.7-3.88S98.78,468.37,98.78,468.37Z" style="fill:#024ADF"></path><path d="M98.78,468.37c.81.91-1.15,4.18-2,4.07s-62.09-32-63-32.75,1.39-4.31,2.7-3.88S98.78,468.37,98.78,468.37Z" style="opacity:0.4"></path><path d="M48.63,409.62,89.1,431.23s51.09-72.81,52.11-91.94C142.62,312.87,120.07,229,120.07,229l-36-.24s14.62,86.25,13.43,101C96.9,337.43,48.63,409.62,48.63,409.62Z" style="fill:#263238"></path><path d="M92.64,422.86c-2.09-1.5-21.27-12.62-35.88-19.72-.1-.05-.16.09-.08.15,4.43,2.93,33.07,18.61,35.85,19.73C92.62,423.05,92.73,422.93,92.64,422.86Z" style="fill:#37474f"></path><path d="M102.52,311.3c-1.67-12.62-3.51-25.23-5.61-37.78s-4.32-25.23-7-37.74c-.32-1.53-.66-3.05-1-4.58a.19.19,0,0,0-.37.07c2.22,12.42,4.5,24.82,6.54,37.27s3.94,24.92,5.65,37.42c.42,3.09.83,6.19,1.23,9.28a84.28,84.28,0,0,1,.92,9.64,24.76,24.76,0,0,1-1.54,9A52.73,52.73,0,0,1,97.24,342c-6.51,11-35.66,59.13-36.42,60.53,0,.09.08.19.14.1,7-10.86,28.7-45.53,35.3-56.72,3-5.05,6.39-10.16,7.36-16.05C104.63,323.78,103.33,317.37,102.52,311.3Z" style="fill:#37474f"></path><path d="M92.15,409.62s-.4,41-.4,41.07c.21,7.85.54,14.73,1,18.28a.09.09,0,0,0,0,0,5.61,5.61,0,0,0,.64,2.41l0,.05c2.38,1.52,65.18,1.61,67.37.88s.27-7-2.17-9-26.47-12.74-26.47-12.74l0-41Z" style="fill:#d3766a"></path><path d="M91.83,442.26s-.08,8.4-.08,8.43c.21,7.85.54,14.73,1,18.28a.09.09,0,0,0,0,0,10.55,10.55,0,0,0,.64,2.41l0,.05c2.38,1.52,65.18,1.61,67.37.88s.27-7-2.17-9-26.47-12.74-26.47-12.74v-8.56Z" style="fill:#ebebeb"></path><path d="M160.9,472.28c-2.23.71-65.52-.4-67.9-2-.91-.58-1.29-9.81-1.42-21V449l40.84.26,0,.69s24,11.27,26.47,13.27S163.12,471.59,160.9,472.28Z" style="fill:#024ADF"></path><path d="M160.22,469.82c-10.66-.45-53.71-1.26-64.29-.9-.09,0-.09.07,0,.07,10.56.68,53.62,1.14,64.29,1C160.45,470,160.45,469.83,160.22,469.82Z" style="fill:#fff"></path><path d="M135.82,450.11c-4.19-.86-9.33-.31-12.59,2.63-.13.11,0,.29.17.25a59.32,59.32,0,0,1,12.39-2.35A.27.27,0,0,0,135.82,450.11Z" style="fill:#263238"></path><path d="M138.82,452c-4.19-.86-9.33-.31-12.59,2.63-.13.11,0,.29.17.25a59.19,59.19,0,0,1,12.39-2.35A.27.27,0,0,0,138.82,452Z" style="fill:#263238"></path><path d="M141.82,453.87c-4.19-.86-9.34-.31-12.6,2.63-.12.11,0,.29.18.25a59.19,59.19,0,0,1,12.39-2.35A.27.27,0,0,0,141.82,453.87Z" style="fill:#263238"></path><path d="M161.9,470c1.13.46.82,4.26,0,4.55s-69.82-1.23-71-1.51-.66-4.49.7-4.68S161.9,470,161.9,470Z" style="fill:#024ADF"></path><path d="M161.9,470c1.13.46.82,4.26,0,4.55s-69.82-1.23-71-1.51-.66-4.49.7-4.68S161.9,470,161.9,470Z" style="opacity:0.4"></path><path d="M101.9,456.24c-4.54-2.37-8.24,4.69-3.69,7.07S106.46,458.62,101.9,456.24Z" style="fill:#fff"></path><path d="M119.61,228.92a.16.16,0,0,1,0,0c-.24.74-13.17,36.17-14.39,36.74-1.38.64,28.57,50.93,30.34,74.3,1.13,14.94-1.09,99.52-1.09,99.52H90.68s2.11-76,3.11-100.13c.39-9.34-30.06-55.85-30.43-84.82-.12-9.13,6.44-25.81,6.44-25.81Z" style="fill:#263238"></path><path d="M94,338.74c0-.39-.3-.51-.33-.12-1,13-1.22,26-1.85,39.07s-.26,16.16-.85,29.19c-.32,7.37,0,14.75-.18,22.13a.09.09,0,0,0,.18,0C92.37,416,94,346.12,94,338.74Z" style="fill:#37474f"></path><path d="M135.55,340.51a64.16,64.16,0,0,0-.89-9.59,47.29,47.29,0,0,0-2.7-9c-2.42-6.1-5.28-12-8-18s-5.59-12.05-8.51-18q-2.46-5-5-10.05c-1.68-3.38-3.49-6.71-5.25-10.05-.07-.13-.28,0-.21.1,2.8,6,5.57,12.07,8.38,18.09S119,296,121.72,302.08s5.42,11.9,8,17.92a59.22,59.22,0,0,1,3.12,8.85,52,52,0,0,1,1.29,9.54c.42,7.48.63,15,1.36,22.43,0,.1.16.09.17,0C135.86,354.06,135.75,347.27,135.55,340.51Z" style="fill:#37474f"></path><path d="M131.29,430.71c-2.55-.31-21.95-.82-38.17,0-.11,0-.1.15,0,.16,5.29.43,35.17.38,38.14,0C131.37,430.89,131.41,430.72,131.29,430.71Z" style="fill:#37474f"></path><path d="M111.26,263.73a83.89,83.89,0,0,0-13.68,4.75.15.15,0,1,0,.09.28c4.59-1.44,9.27-2.79,13.78-4.48A.29.29,0,0,0,111.26,263.73Z" style="fill:#37474f"></path><path d="M115.68,233.72c0-.15-.26-.21-.28-.05a147.88,147.88,0,0,1-2.24,14.63c-.44,2.25-3.55,14.59-7.38,13.27-.65-.22-.92-.9-.92-1.9a15.88,15.88,0,0,1,.92-3.79c.7-2.58,1.32-5.17,1.82-7.8A72.49,72.49,0,0,0,109,233.24a.13.13,0,0,0-.26,0,135.75,135.75,0,0,1-3.29,20.34c-.83,3.21-3,7.94.39,8.8s6.5-7.13,7.16-9.33A75.9,75.9,0,0,0,115.68,233.72Z" style="fill:#37474f"></path><path d="M105.85,261.92a19.58,19.58,0,0,0-1.15,2.51,5.74,5.74,0,0,0-.59,2.1c0,.14.18.17.27.08a7.73,7.73,0,0,0,1.12-2c.38-.77.78-1.54,1.14-2.32A.44.44,0,0,0,105.85,261.92Z" style="fill:#37474f"></path><path d="M98.52,351.6c.23-6.22.92-12.75-1.12-18.75a62.36,62.36,0,0,0-4-8.52q-2.27-4.4-4.47-8.82c-5.84-11.82-11.36-23.82-16.28-36.05a76.54,76.54,0,0,1-5.34-18.26,56.23,56.23,0,0,1,1.23-19.85c.37-1.62.76-3.23,1.2-4.84,0-.11-.14-.18-.18-.06a65,65,0,0,0-3.41,19,53.63,53.63,0,0,0,3.29,18.15c2.1,6.11,4.73,12.05,7.32,18q4,9.13,8.31,18.15c2.87,6,5.92,11.84,8.94,17.73a31.71,31.71,0,0,1,3.36,8.94,45.22,45.22,0,0,1,.36,9.8C97.22,360,96,405.77,95.86,419.5c0,1.74,0,3.49-.06,5.23a.12.12,0,0,0,.24,0C96.91,411.05,98,365.33,98.52,351.6Z" style="fill:#37474f"></path><path d="M88.7,237.84c0-.1-.15-.08-.16,0-.52,3.79-.81,7.72-2.64,11.16-1.68,3.15-4.61,5.18-7.8,6.61a58.62,58.62,0,0,1-5.68,2.09c-.14.05-.11.26,0,.23,3.62-.75,7.3-1.59,10.45-3.63,3.37-2.17,5.1-5.66,5.65-9.56A32.58,32.58,0,0,0,88.7,237.84Z" style="fill:#37474f"></path><path d="M61.5,250.57l67.44.14c.86-1-7.79-66.26-18.92-80.9-2.79-3.66-15.26-5.33-18.62-1C71.41,194.87,60.94,249.94,61.5,250.57Z" style="fill:#455a64"></path><path d="M110.09,169.9H90.61c.26-.36.53-.71.79-1.05a2.92,2.92,0,0,1,.37-.41h16.62a5.66,5.66,0,0,1,1.63,1.37Zm2,3.2H88.39c-.32.47-.63,1-.94,1.45h25.33C112.55,174,112.31,173.56,112.06,173.1Zm2.12,4.65H85.52l-.83,1.45h30.06C114.56,178.7,114.37,178.22,114.18,177.75Zm1.72,4.65H83c-.25.48-.5,1-.74,1.46h34.15C116.22,183.36,116.06,182.88,115.9,182.4Zm1.47,4.65H80.67L80,188.51H117.8C117.66,188,117.51,187.53,117.37,187.05Zm1.32,4.66H78.57l-.63,1.45h41.14Zm1.2,4.65H76.62c-.19.48-.39,1-.58,1.46h44.2C120.13,197.33,120,196.84,119.89,196.36ZM121,201H74.82c-.19.49-.37,1-.55,1.46h47.06Zm1,4.65H73.13c-.18.49-.35,1-.51,1.46h49.71C122.23,206.63,122.13,206.15,122,205.66Zm1,4.66H71.53c-.16.49-.31,1-.47,1.45h52.22C123.19,211.29,123.09,210.81,123,210.32Zm.91,4.65H70l-.45,1.46h54.59C124.08,216,124,215.46,123.9,215Zm.85,4.65H68.63l-.42,1.46H125C124.93,220.6,124.84,220.11,124.75,219.62Zm.82,4.66H67.3l-.39,1.45H125.8C125.73,225.25,125.65,224.77,125.57,224.28Zm.76,4.65H66.06c-.13.49-.26,1-.38,1.45h60.88C126.48,229.9,126.41,229.42,126.33,228.93Zm.71,4.65H64.88c-.12.5-.24,1-.35,1.46h62.73C127.19,234.56,127.12,234.08,127,233.58Zm.67,4.65H63.79c-.12.5-.23,1-.33,1.46h64.45C127.85,239.22,127.78,238.73,127.71,238.23Zm.61,4.66H62.77c-.1.51-.2,1-.29,1.45h66C128.44,243.88,128.38,243.39,128.32,242.89Zm.51,4.65h-67c-.09.56-.17,1.05-.23,1.46H129C128.92,248.58,128.88,248.1,128.83,247.54Z" style="fill:#37474f"></path><path d="M105.91,179c-2.87.12-8.82-5.27-11.13-9.8-.16-.31.4-3.52.9-7.45.29-2.39.56-5,.63-7.5l15.26,4.17a39.11,39.11,0,0,0-1.76,9.36,6.46,6.46,0,0,0,.08,1s0,.11,0,.17C110.16,170.89,110.41,178.82,105.91,179Z" style="fill:#d3766a"></path><path d="M95.76,161.08c3,4.72,7.6,9.38,14.24,8.86,0-.41,0-.74-.09-1,0-.06,0-.12,0-.16a4.81,4.81,0,0,1-.07-1,39,39,0,0,1,1.74-9.36l-15.25-4.17C96.26,156.47,96,158.88,95.76,161.08Z" style="fill:#263238"></path><path d="M93.27,136.94c-2,5.34,0,21.22,3.63,24.95,5.31,5.41,14.46,6.44,19.18,0,4.57-6.29,1.66-26.94-2.47-30.38C107.52,126.39,96.19,129,93.27,136.94Z" style="fill:#d3766a"></path><path d="M116.07,161.84c-4.71,6.49-13.86,5.46-19.17,0-1.77-1.8-3.13-6.45-3.85-11.37l2.29-3.75s3,4.64,4.46,5.87c1.86,1.57,5.94,2.68,11.52-.86l1.92,0s3.4,2.73,5.15-1c0,.2,0,.4,0,.59,0,.69,0,1.37-.08,2.06,0,.17,0,.33,0,.5C118,157.27,117.34,160.1,116.07,161.84Z" style="opacity:0.2"></path><path d="M107.83,146.43s-.08.06-.07.11c.16,1.06.17,2.31-.75,2.78,0,0,0,.07,0,.06C108.18,149.07,108.16,147.41,107.83,146.43Z" style="fill:#263238"></path><path d="M106.74,145.43c-1.74.08-1.45,3.55.16,3.47S108.19,145.36,106.74,145.43Z" style="fill:#263238"></path><path d="M114.16,145.69s.09,0,.1.09c0,1.07.29,2.3,1.29,2.57,0,0,0,.07,0,.07C114.35,148.35,114,146.72,114.16,145.69Z" style="fill:#263238"></path><path d="M115,144.49c1.72-.28,2.14,3.18.55,3.43S113.59,144.72,115,144.49Z" style="fill:#263238"></path><path d="M105.24,144a12.64,12.64,0,0,0,1.3-.59,2.35,2.35,0,0,0,1.22-.84.74.74,0,0,0-.19-.88,1.83,1.83,0,0,0-1.85,0,2.66,2.66,0,0,0-1.44,1.28A.79.79,0,0,0,105.24,144Z" style="fill:#263238"></path><path d="M116.13,143a13.42,13.42,0,0,1-1.41-.25,2.31,2.31,0,0,1-1.39-.52.73.73,0,0,1,0-.9,1.84,1.84,0,0,1,1.78-.49,2.68,2.68,0,0,1,1.72.89A.79.79,0,0,1,116.13,143Z" style="fill:#263238"></path><path d="M107.66,156.48c.28.23.56.56,1,.56a2.78,2.78,0,0,0,1.14-.37,0,0,0,0,1,0,.06,1.46,1.46,0,0,1-1.32.69,1.13,1.13,0,0,1-.92-.88C107.54,156.48,107.62,156.45,107.66,156.48Z" style="fill:#263238"></path><path d="M108.52,153.17a3.68,3.68,0,0,0,2.58,1.43,4.51,4.51,0,0,0,1.32,0,1.11,1.11,0,0,0,.25-.05l.23-.05a.29.29,0,0,0,.2-.26h0a.41.41,0,0,0,0-.11h0V154c0-.83-.23-2.08-.23-2.08.31.13,1.91.69,1.85.26a55.78,55.78,0,0,0-2.33-11,.1.1,0,0,0-.2,0c.36,3.44,1.31,6.8,1.72,10.25a6.13,6.13,0,0,0-1.77-.38c-.11,0,.4,2.41.39,2.78v0a5.08,5.08,0,0,1-3.89-.86C108.53,153,108.45,153.09,108.52,153.17Z" style="fill:#263238"></path><path d="M111.9,154.17a4.43,4.43,0,0,1-1.63,1.49,2,2,0,0,1-1.18.18c-.88-.16-1-1-.86-1.63a4.41,4.41,0,0,1,.3-1.06A5.68,5.68,0,0,0,111.9,154.17Z" style="fill:#263238"></path><path d="M110.27,155.66a2,2,0,0,1-1.18.18c-.88-.16-1-1-.86-1.63A2,2,0,0,1,110.27,155.66Z" style="fill:#ff99ba"></path><path d="M116.43,137.23c-5.24,4.23-13.27-.92-13.27-.92a6,6,0,0,1-5.81,4.29s-.36,9.46-2.83,9.63c-3.77.27-5.93-12.42-4.94-15s4.14-3.5,4.14-3.5A6.15,6.15,0,0,1,96,127.78c2.42-2.17,11.5-.21,11.5-.21a8.32,8.32,0,0,1,2-3.25,2.34,2.34,0,0,1,3.38.05,5.51,5.51,0,0,0-.72,2.38c-.23,2.78,2,2.6,1.79.11a3.87,3.87,0,0,0-1.07-2.49c1-1.72,2.74-2.39,3.91-1.6C118.92,124.2,120.79,133.72,116.43,137.23Z" style="fill:#263238"></path><path d="M96.59,137.67a.12.12,0,1,0-.23.08,24.07,24.07,0,0,1,1,5.66c0,1.9-.6,6.74-3.36,6.39a.11.11,0,0,0,0,.21c1.86.72,2.92-1.68,3.38-3.32C98.16,143.72,97.54,140.52,96.59,137.67Z" style="fill:#263238"></path><path d="M116.65,122.66s0,0,0,0a11.11,11.11,0,0,1,1.93,12.79c-2.93,5.31-9.9,2.58-14.08.74-.2-.09-.37.21-.16.3,4.06,1.92,11.13,4.49,14.24-.37C121.34,131.81,120.18,126.13,116.65,122.66Z" style="fill:#263238"></path><path d="M94.51,131.63c-3.67.69-6.18,2.64-6.24,6.59A14.35,14.35,0,0,0,93,148.77c.14.13.32-.08.2-.21a16.26,16.26,0,0,1-4.28-7.83c-.44-2.25-.37-4.81,1.09-6.7,1-1.37,3-1.83,4.55-2.26A.07.07,0,0,0,94.51,131.63Z" style="fill:#263238"></path><path d="M108.66,128.27c-4.84-2.47-14.19-4.43-14.91,3.38,0,.06.11.08.12,0,1.15-7.86,9.79-5,14.71-3.18C108.7,128.52,108.77,128.33,108.66,128.27Z" style="fill:#263238"></path><path d="M95.87,149.94s-3.36-5.22-5.71-4,0,8.65,2.7,9.77a2.76,2.76,0,0,0,3.75-1.34Z" style="fill:#d3766a"></path><path d="M90.89,148a0,0,0,0,0,0,.07c1.87.85,2.8,2.65,3.43,4.5a1.52,1.52,0,0,0-2.26-.5s0,.11,0,.1a1.69,1.69,0,0,1,1.84.66,7.71,7.71,0,0,1,.83,1.55c.09.17.4.09.34-.11v0C95.24,151.83,93.49,148.37,90.89,148Z" style="fill:#263238"></path><path d="M110.7,171.18s0,0,0,0c.45,3,1.28,10-3.52,10a10.17,10.17,0,0,1-5.34-2.11,27.6,27.6,0,0,1-4.39-3.76,40.31,40.31,0,0,1-4.2-4.94c0-.08-.16,0-.11.09,1.29,1.76,2.39,3.61,3.84,5.25a23.48,23.48,0,0,0,4.74,4.16,10.16,10.16,0,0,0,5.67,2A3.85,3.85,0,0,0,111,178.7,16.91,16.91,0,0,0,110.7,171.18Z" style="fill:#263238"></path><path d="M102.54,183.46c6.23,5.88,27.2,24.62,31.94,26.63,1.25.53,13.35-3.23,18.12-4.69,3.87-1.19,12.83,27.78,9.05,28.49-6,1.12-30.8,6.81-36.44,4.3-7.17-3.19-24.08-32.47-32.1-47.48C86.23,177.83,90.5,172.06,102.54,183.46Z" style="fill:#d3766a"></path><path d="M106.19,215l19.26-11.74S106.77,182.86,96,177.7s-7.64,4.06-4.53,10.71S106.19,215,106.19,215Z" style="fill:#455a64"></path><path d="M104.41,210.31c2.53-1.88,5.33-3.46,8-5.09s5.63-3.17,8.43-4.79c.08-.05.16.08.09.13-2.68,1.71-5.28,3.53-8,5.14a90.92,90.92,0,0,1-8.49,4.68A0,0,0,0,1,104.41,210.31Z" style="fill:#263238"></path><path d="M95.86,199c.83,1.1,1.66,2.19,2.51,3.27-1.33-2.48-2.65-5-3.86-7.53,0-.06.07-.12.11-.06,2.08,3.34,4.06,6.75,6,10.17s3.85,6.57,5.48,10l.78-.34c.12-.05.22.13.11.2-.29.19-.58.4-.86.6a.22.22,0,0,1-.31-.05c-2.2-3.24-4.08-6.78-6-10.2-.31-.57-.6-1.14-.91-1.7a47.87,47.87,0,0,1-3.26-4.22A.1.1,0,0,1,95.86,199Z" style="fill:#263238"></path><path d="M124.75,203.72l.67-.49v.11c-1.34-1.18-2.62-2.41-3.91-3.63s-2.54-2.49-3.78-3.76-2.47-2.55-3.66-3.87-2.39-2.63-3.53-4c1.36,1.16,2.65,2.37,3.94,3.6s2.55,2.47,3.8,3.73,2.47,2.55,3.68,3.85,2.4,2.62,3.55,4l.06.07-.07,0Z" style="fill:#263238"></path><path d="M113.15,188.86a12.9,12.9,0,0,1,2.6,4.4,11.24,11.24,0,0,1-1.52-2.07A11.48,11.48,0,0,1,113.15,188.86Z" style="fill:#263238"></path><path d="M197.6,200.06c.19,3.52-8.52,3.25-8.52,3.25a6.48,6.48,0,0,1,2.81,3.41c.78,2.55-2.89,4.9-2.89,4.9a8,8,0,0,1,2.39,4.06c.5,2.53-2.86,5.42-2.86,5.42a7,7,0,0,1-.15,4.9c-1.87,4.11-8.79,4.53-13,5.63-4.54,1.19-12.22,2-16.26,2.64L152,205.58s18-11.92,23.24-11.92C179.66,193.66,197.31,194.69,197.6,200.06Z" style="fill:#d3766a"></path><path d="M189,203.21c-4.66-1.11-9.58-1.11-14.32-1.05a.08.08,0,0,0,0,.16c4.72-.11,9.58,1,14.29,1.12A.12.12,0,0,0,189,203.21Z" style="fill:#263238"></path><path d="M188.86,211.27a12.78,12.78,0,0,0-3.27,0c-1.15.08-2.3.17-3.46.28-2.3.22-4.6.49-6.9.83-.1,0-.1.17,0,.16,2.3-.21,4.6-.39,6.9-.51,1.16-.06,2.31-.11,3.47-.15a15.34,15.34,0,0,0,3.25-.26A.17.17,0,0,0,188.86,211.27Z" style="fill:#263238"></path><path d="M188.43,221.11a8.83,8.83,0,0,0-2.94.13c-1.05.13-2.1.24-3.15.35-2.1.22-4.2.44-6.3.59-.11,0-.11.17,0,.16,2.14-.14,4.28-.25,6.42-.4l3.15-.25a8.27,8.27,0,0,0,2.84-.48A.06.06,0,0,0,188.43,221.11Z" style="fill:#263238"></path></g><g id="freepik--speech-bubble--inject-389"><path d="M171.26,100.62a22.19,22.19,0,0,1-35.43,17.82L125,121.22l4.53-10.13a22.2,22.2,0,1,1,41.78-10.47Z" style="fill:#fff"></path><path d="M171.26,100.62c.16,12.84-11.36,23.45-24.14,22.36a22.52,22.52,0,0,1-11.51-4.25l.31.06-10.86,2.86-.88.23.37-.84L129,110.9v.42c-5.13-9.11-2.63-21.44,5.47-28,14.57-12,36.73-1.62,36.74,17.27Zm0,0c.06-14.19-13.82-25-27.53-21.25-13.54,3.37-20.52,19.26-13.83,31.49l.11.21-.09.22-4.57,10.11-.51-.6,10.9-2.7.17,0,.13.1a21.72,21.72,0,0,0,11.12,4.34c12.72,1.35,24.16-9.11,24.1-21.88Z" style="fill:#263238"></path><polygon points="145.46 113.83 135.51 103.76 138.85 100.45 144.66 106.34 156.74 87.41 160.7 89.93 145.46 113.83" style="fill:#024ADF"></polygon></g></svg>
